<?xml version="1.0" encoding="UTF-8" standalone="no"?>
<svg
   xmlns:dc="http://purl.org/dc/elements/1.1/"
   xmlns:cc="http://creativecommons.org/ns#"
   xmlns:rdf="http://www.w3.org/1999/02/22-rdf-syntax-ns#"
   xmlns:svg="http://www.w3.org/2000/svg"
   xmlns="http://www.w3.org/2000/svg"
   xmlns:sodipodi="http://sodipodi.sourceforge.net/DTD/sodipodi-0.dtd"
   xmlns:inkscape="http://www.inkscape.org/namespaces/inkscape"
   inkscape:export-ydpi="96"
   inkscape:export-xdpi="96"
   inkscape:export-filename="e:\Documents\pixi1\build\assets\Cards.png"
   inkscape:version="0.92.4 (5da689c313, 2019-01-14)"
   sodipodi:docname="Cards.svg"
   id="svg8"
   version="1.1"
   viewBox="0 0 142.87494 76.199997"
   height="288"
   width="540">
  <defs
     id="defs2" />
  <sodipodi:namedview
     inkscape:document-rotation="0"
     units="px"
     inkscape:window-maximized="0"
     inkscape:window-y="605"
     inkscape:window-x="976"
     inkscape:window-height="642"
     inkscape:window-width="1645"
     fit-margin-bottom="0"
     fit-margin-right="0"
     fit-margin-left="0"
     fit-margin-top="0"
     inkscape:snap-global="true"
     inkscape:guide-bbox="true"
     showguides="false"
     showgrid="true"
     inkscape:current-layer="layer1"
     inkscape:document-units="mm"
     inkscape:cy="96.177642"
     inkscape:cx="123.67334"
     inkscape:zoom="1.305026"
     inkscape:pageshadow="2"
     inkscape:pageopacity="0.0"
     borderopacity="1.0"
     bordercolor="#666666"
     pagecolor="#ffffff"
     id="base">
    <sodipodi:guide
       inkscape:locked="false"
       id="guide3807"
       orientation="0,1"
       position="27.81315,169.66963" />
    <sodipodi:guide
       inkscape:locked="false"
       id="guide3809"
       orientation="0,1"
       position="38.212049,159.42824" />
    <inkscape:grid
       originy="0"
       dotted="false"
       snapvisiblegridlinesonly="true"
       spacingy="12.699997"
       empspacing="1"
       empopacity="0.41960784"
       empcolor="#3f3fff"
       spacingx="7.9374997"
       originx="0"
       id="grid3919"
       type="xygrid" />
  </sodipodi:namedview>
  <metadata
     id="metadata5">
    <rdf:RDF>
      <cc:Work
         rdf:about="">
        <dc:format>image/svg+xml</dc:format>
        <dc:type
           rdf:resource="http://purl.org/dc/dcmitype/StillImage" />
        <dc:title></dc:title>
      </cc:Work>
    </rdf:RDF>
  </metadata>
  <g
     transform="translate(0,-246.20002)"
     id="layer1"
     inkscape:groupmode="layer"
     inkscape:label="Layer 1">
    <rect
       rx="0.95323128"
       ry="0.95323128"
       y="309.87244"
       x="0.35404778"
       height="12.283461"
       width="15.251957"
       id="rect7685"
       style="fill:#00ff00;fill-opacity:0.18781726;stroke:#ff00ff;stroke-width:0.256;stroke-linecap:butt;stroke-linejoin:bevel;stroke-miterlimit:4;stroke-dasharray:none" />
    <rect
       rx="0.93416667"
       ry="0.93416667"
       y="246.49532"
       x="32.256565"
       height="12.037791"
       width="14.946918"
       id="rect3921"
       style="fill:#999999;fill-opacity:1;stroke:#000000;stroke-width:0.2507869;stroke-linecap:butt;stroke-linejoin:bevel;stroke-miterlimit:4;stroke-dasharray:none" />
    <path
       d="m 19.692065,247.26865 q 0.159532,0.93174 0.490873,1.66506 0.331339,0.73332 1.178098,1.82036 0.852891,1.0784 1.07992,1.65643 0.22703,0.57803 0.22703,1.17332 0,0.82822 -0.392701,1.38036 -0.392697,0.55215 -0.957201,0.55215 -0.478603,0 -0.871302,-0.41412 -0.386562,-0.42273 -0.687221,-1.22507 0.0062,1.26821 0.233164,2.01879 0.233165,0.74194 0.736309,1.17331 0.509282,0.42274 1.349902,0.50039 l 0.04296,0.3192 h -4.865783 l 0.04909,-0.3192 q 1.129007,0 1.748736,-0.92312 0.625862,-0.93175 0.601321,-2.76937 -0.276117,0.8196 -0.687224,1.2337 -0.404972,0.40549 -0.920388,0.40549 -0.552231,0 -0.951068,-0.56079 -0.392697,-0.56076 -0.392697,-1.34585 0,-0.62979 0.202484,-1.1388 0.276117,-0.70743 0.895844,-1.42349 0.619726,-0.71608 0.914251,-1.18195 0.447922,-0.71605 0.650408,-1.27683 0.208619,-0.56076 0.325202,-1.31997 z"
       style="font-style:normal;font-variant:normal;font-weight:normal;font-stretch:normal;font-size:16.93330002px;line-height:1.25;font-family:NoCurvesBoustrophedon;-inkscape-font-specification:NoCurvesBoustrophedon;letter-spacing:0px;word-spacing:0px;fill:#000000;fill-opacity:1;stroke:none;stroke-width:0.232823"
       id="path3733"
       inkscape:connector-curvature="0" />
    <path
       d="m 30.064639,257.88883 h -4.358406 l 0.04112,-0.29332 q 0.84804,-0.30196 1.12558,-0.59529 0.416309,-0.43999 0.67843,-1.30271 0.267262,-0.86273 0.267262,-1.82035 0,-0.13804 -0.0052,-0.39686 -0.313519,1.06979 -0.765807,1.56154 -0.447148,0.49173 -0.914854,0.49173 -0.596197,0 -1.012507,-0.6988 -0.416311,-0.6988 -0.416311,-1.71681 0,-1.00077 0.380334,-1.68232 0.380333,-0.69019 0.863459,-0.69019 0.308376,0 0.837758,0.44 -0.215864,-0.60392 -0.282679,-0.90588 -0.06167,-0.31057 -0.06167,-0.66429 0,-0.98352 0.406032,-1.66506 0.40603,-0.68156 1.012506,-0.68156 0.606476,0 1.017647,0.68156 0.41631,0.68154 0.41631,1.62193 0,0.76782 -0.354635,1.6133 0.431728,-0.34509 0.519102,-0.38823 0.13877,-0.069 0.313517,-0.069 0.513964,0 0.889152,0.68156 0.380335,0.67292 0.380335,1.6737 0,1.03528 -0.416308,1.7427 -0.411171,0.69883 -0.991948,0.69883 -0.323797,0 -0.668154,-0.25883 -0.339214,-0.26746 -0.591055,-0.70744 -0.179887,-0.31921 -0.447148,-1.07841 0.02055,1.37173 0.246702,2.17407 0.231282,0.79372 0.704129,1.31998 0.318658,0.35372 1.146137,0.62116 z"
       style="font-style:normal;font-variant:normal;font-weight:normal;font-stretch:normal;font-size:16.93330002px;line-height:1.25;font-family:NoCurvesBoustrophedon;-inkscape-font-specification:NoCurvesBoustrophedon;letter-spacing:0px;word-spacing:0px;fill:#333333;fill-opacity:1;stroke:none;stroke-width:0.213085"
       id="path3735"
       inkscape:connector-curvature="0" />
    <path
       d="m 3.8919719,257.99236 q -0.190214,-1.01801 -0.546097,-1.90663 -0.349746,-0.89724 -1.362173,-2.77798 -0.742446,-1.38037 -0.914251,-1.75134 -0.28225197,-0.60392 -0.41110597,-1.10429 -0.122719,-0.50902 -0.122719,-1.02665 0,-0.95763 0.454058,-1.60467 0.45405797,-0.64705 1.12287297,-0.64705 0.674949,0 1.17196,0.67293 0.374291,0.50038 0.607455,1.49253 0.202485,-0.97489 0.57064,-1.48391 0.509281,-0.69018 1.178095,-0.69018 0.662678,0 1.122872,0.64705 0.460195,0.63842 0.460195,1.52704 0,0.77645 -0.269982,1.62192 -0.269981,0.83683 -1.043104,2.19995 -1.006292,1.78584 -1.466487,2.93328 -0.362019,0.90585 -0.552229,1.898 z"
       style="font-style:normal;font-variant:normal;font-weight:normal;font-stretch:normal;font-size:16.93330002px;line-height:1.25;font-family:NoCurvesBoustrophedon;-inkscape-font-specification:NoCurvesBoustrophedon;letter-spacing:0px;word-spacing:0px;fill:#c83737;fill-opacity:1;stroke:none;stroke-width:0.232823"
       id="path3737"
       inkscape:connector-curvature="0" />
    <path
       d="m 11.770547,247.16512 q 0.546095,1.3027 1.343766,2.79524 0.92039,1.72545 1.484891,2.61407 -0.45406,0.67292 -1.484891,2.60543 -0.834486,1.57016 -1.337628,2.8125 -0.165675,-0.44862 -0.45406,-1.04391 -0.497008,-1.03527 -1.233321,-2.407 -0.1595333,-0.30197 -1.1228723,-1.96702 0.619727,-0.99215 1.5953393,-2.82976 0.724038,-1.36311 1.208776,-2.57955 z"
       style="font-style:normal;font-variant:normal;font-weight:normal;font-stretch:normal;font-size:16.93330002px;line-height:1.25;font-family:NoCurvesBoustrophedon;-inkscape-font-specification:NoCurvesBoustrophedon;letter-spacing:0px;word-spacing:0px;fill:#800000;fill-opacity:1;stroke:none;stroke-width:0.232823"
       id="path3739"
       inkscape:connector-curvature="0" />
    <path
       d="m 0.94244442,270.13817 1.84200798,-9.98223 h 2.190496 l 1.842007,9.98223 H 5.0745164 L 4.7426227,268.10098 H 3.0167771 l -0.3318927,2.03719 z m 3.03682398,-6.73631 -0.049784,-0.25805 h -0.099568 l -0.049784,0.25805 -0.5144353,3.15085 h 1.2280056 z"
       style="font-style:normal;font-variant:normal;font-weight:normal;font-stretch:normal;font-size:16.93330002px;line-height:1.25;font-family:'League Gothic';-inkscape-font-specification:'League Gothic';letter-spacing:0px;word-spacing:0px;fill:#c83737;fill-opacity:1;stroke:none;stroke-width:0.23457083"
       id="path3760"
       inkscape:connector-curvature="0" />
    <path
       d="m 9.4329817,263.3747 v -0.69265 c 0,-0.66547 0.1161623,-1.31738 0.4646503,-1.79272 0.348489,-0.47534 0.945896,-0.78772 1.924982,-0.78772 0.912706,0 1.526708,0.28522 1.891792,0.71982 0.365082,0.44818 0.49784,1.07291 0.49784,1.76556 0,1.0186 -0.464652,2.22732 -1.045464,3.35457 -0.597408,1.14082 -1.294384,2.15942 -1.759036,2.79774 h 2.837688 v 1.4532 H 9.3831977 v -1.4532 c 0.547624,-0.69265 1.0454643,-1.39886 1.4935203,-2.1051 0.381676,-0.59756 0.746759,-1.27664 1.028867,-1.96928 0.28211,-0.69264 0.49784,-1.37171 0.514436,-1.98286 0,-0.27162 -0.01659,-0.584 -0.09957,-0.81488 -0.08298,-0.23087 -0.232326,-0.40744 -0.497839,-0.40744 -0.24892,0 -0.398272,0.1494 -0.481246,0.3667 -0.08298,0.23088 -0.116162,0.52967 -0.116162,0.85562 v 0.69264 z"
       style="font-style:normal;font-variant:normal;font-weight:normal;font-stretch:normal;font-size:16.93330002px;line-height:1.25;font-family:'League Gothic';-inkscape-font-specification:'League Gothic';letter-spacing:0px;word-spacing:0px;fill:#c83737;fill-opacity:1;stroke:none;stroke-width:0.23457083"
       id="path3762"
       inkscape:connector-curvature="0" />
    <path
       d="m 18.861112,265.62922 v -1.22231 c 0.74676,-0.0408 1.095248,-0.16299 1.2446,-0.44819 0.08298,-0.1358 0.116162,-0.31237 0.116162,-0.52968 0,-0.21729 0,-0.48891 0,-0.80129 0,-0.28521 0,-0.59757 -0.06638,-0.85561 -0.06638,-0.25804 -0.215731,-0.43459 -0.49784,-0.43459 -0.215731,0 -0.348488,0.0814 -0.414867,0.33953 -0.08298,0.27162 -0.116163,0.69264 -0.116163,1.35812 H 17.36759 c 0,-0.55683 0.01659,-1.31738 0.315298,-1.92853 0.298704,-0.59759 0.846328,-1.05934 1.974766,-1.05934 1.128437,0 1.70925,0.47535 2.007954,0.97784 0.298704,0.5025 0.315299,1.04576 0.315299,1.16799 0,1.48035 -0.315299,2.18659 -0.862923,2.63476 l -0.01659,0.0135 c 0.862922,0.55682 1.028869,1.589 1.028869,2.74341 0,0.0408 0,0.13581 -0.01659,0.2852 -0.01659,0.28521 -0.116162,0.70623 -0.298704,1.14083 -0.199136,0.43461 -0.531029,0.82845 -1.045464,1.05934 -0.265514,0.12223 -0.580813,0.17655 -0.96249,0.17655 -1.128438,0 -1.709251,-0.46176 -2.02455,-1.07292 -0.315298,-0.59757 -0.348488,-1.35812 -0.348488,-1.91496 h 1.759035 c 0,0.66549 0.04978,1.08651 0.149352,1.34456 0.09957,0.27163 0.24892,0.35311 0.464651,0.35311 0.282109,0 0.431461,-0.17655 0.49784,-0.42102 0.06638,-0.24446 0.06638,-0.55683 0.06638,-0.84202 0,-0.31237 0,-0.59758 0.01659,-0.85562 0,-0.48893 -0.116163,-0.82846 -0.49784,-1.03218 -0.199136,-0.0951 -0.49784,-0.16298 -0.879517,-0.17656 z"
       style="font-style:normal;font-variant:normal;font-weight:normal;font-stretch:normal;font-size:16.93330002px;line-height:1.25;font-family:'League Gothic';-inkscape-font-specification:'League Gothic';letter-spacing:0px;word-spacing:0px;fill:#c83737;fill-opacity:1;stroke:none;stroke-width:0.23457083"
       id="path3764"
       inkscape:connector-curvature="0" />
    <path
       d="m 27.8329,267.96516 h -2.771309 v -1.29021 l 2.621957,-6.51901 h 1.792224 v 6.51901 h 0.829735 v 1.29021 h -0.829735 v 2.17301 H 27.8329 Z m -1.244599,-1.29021 H 27.8329 v -3.42248 h -0.09957 l -0.09957,0.29879 z"
       style="font-style:normal;font-variant:normal;font-weight:normal;font-stretch:normal;font-size:16.93330002px;line-height:1.25;font-family:'League Gothic';-inkscape-font-specification:'League Gothic';letter-spacing:0px;word-spacing:0px;fill:#c83737;fill-opacity:1;stroke:none;stroke-width:0.23457083"
       id="path3766"
       inkscape:connector-curvature="0" />
    <path
       d="m 36.165785,265.35756 c 0,-0.42099 -0.182545,-0.73338 -0.564215,-0.73338 -0.199136,0 -0.36509,0.12223 -0.49784,0.27162 -0.132761,0.16298 -0.199136,0.35312 -0.199136,0.46177 h -1.51012 v -5.25593 h 4.331207 v 1.45319 h -2.787895 v 2.07793 c 0.199136,-0.12223 0.414864,-0.23088 0.663784,-0.29879 0.116159,-0.0408 0.24892,-0.0543 0.365079,-0.0408 0.929306,0 1.427146,0.43459 1.692657,0.90993 0.265511,0.47535 0.298704,0.99145 0.298704,1.15441 v 2.22733 c 0,0.47535 -0.03322,1.11368 -0.348488,1.64335 -0.315295,0.54323 -0.912703,0.96425 -1.991361,0.96425 -1.111839,0 -1.676063,-0.42102 -1.991358,-1.01858 -0.315295,-0.584 -0.348488,-1.33097 -0.348488,-1.99647 h 1.792222 v 0.39387 c 0,0.5025 0.03322,0.85561 0.116169,1.04577 0.08301,0.20372 0.215728,0.29879 0.431455,0.29879 0.182545,0 0.331897,-0.0951 0.414863,-0.28522 0.08301,-0.19014 0.132761,-0.54324 0.132761,-1.04577 z"
       style="font-style:normal;font-variant:normal;font-weight:normal;font-stretch:normal;font-size:16.93330002px;line-height:1.25;font-family:'League Gothic';-inkscape-font-specification:'League Gothic';letter-spacing:0px;word-spacing:0px;fill:#c83737;fill-opacity:1;stroke:none;stroke-width:0.23457083"
       id="path3768"
       inkscape:connector-curvature="0" />
    <path
       d="m 45.892628,268.08739 c 0,0.23089 -0.03322,0.77413 -0.348489,1.24948 -0.315295,0.48893 -0.912703,0.90994 -1.991359,0.90994 -1.111839,0 -1.676065,-0.42101 -1.99136,-0.90994 -0.315295,-0.47535 -0.348488,-1.01859 -0.348488,-1.24948 v -5.67696 c 0,-0.33953 0.01656,-0.95069 0.331897,-1.4532 0.315295,-0.48892 0.87951,-0.90993 2.007951,-0.90993 1.128441,0 1.692656,0.42101 2.007951,0.90993 0.315305,0.50251 0.331897,1.11368 0.331897,1.4532 v 0.62473 h -1.792225 c 0,-0.66547 -0.01656,-1.10008 -0.08301,-1.35812 -0.06635,-0.25804 -0.199137,-0.35312 -0.464648,-0.35312 -0.215738,0 -0.36509,0.0815 -0.431464,0.25806 -0.08301,0.17654 -0.116159,0.44817 -0.116159,0.82845 v 1.77914 c 0.315295,-0.14939 0.580806,-0.24446 0.896112,-0.24446 0.929293,0 1.427134,0.39385 1.692656,0.84204 0.265511,0.44818 0.298704,0.99143 0.298704,1.26305 z m -2.887472,0.4346 c 0,0.12224 0.132761,0.44819 0.547624,0.44819 0.381681,0 0.547623,-0.32595 0.547623,-0.44819 v -2.98787 c 0,-0.12223 -0.165943,-0.44818 -0.547623,-0.44818 -0.381682,0 -0.531034,0.25804 -0.547624,0.40743 z"
       style="font-style:normal;font-variant:normal;font-weight:normal;font-stretch:normal;font-size:16.93330002px;line-height:1.25;font-family:'League Gothic';-inkscape-font-specification:'League Gothic';letter-spacing:0px;word-spacing:0px;fill:#c83737;fill-opacity:1;stroke:none;stroke-width:0.23457083"
       id="path3770"
       inkscape:connector-curvature="0" />
    <path
       d="m 51.918859,261.60913 h -2.688336 v -1.45319 h 4.513752 v 1.46678 l -1.792224,8.51545 h -1.858598 z"
       style="font-style:normal;font-variant:normal;font-weight:normal;font-stretch:normal;font-size:16.93330002px;line-height:1.25;font-family:'League Gothic';-inkscape-font-specification:'League Gothic';letter-spacing:0px;word-spacing:0px;fill:#c83737;fill-opacity:1;stroke:none;stroke-width:0.23457083"
       id="path3772"
       inkscape:connector-curvature="0" />
    <path
       d="m 61.811641,268.00592 c 0,0.0951 -0.01656,0.36668 -0.09957,0.69264 -0.08301,0.33953 -0.282113,0.71981 -0.630601,1.01859 -0.348489,0.29879 -0.87952,0.52967 -1.659464,0.52967 -0.779953,0 -1.310984,-0.23088 -1.659473,-0.52967 -0.348488,-0.29878 -0.547623,-0.67906 -0.63059,-1.01859 -0.08301,-0.32596 -0.09957,-0.59757 -0.09957,-0.69264 v -1.168 c 0,-0.74698 0.315295,-1.49393 0.929295,-1.96928 -0.547624,-0.44819 -0.829727,-1.14083 -0.829727,-1.83348 v -0.84202 c 0,-0.12223 0.01656,-0.66548 0.315295,-1.168 0.298704,-0.5025 0.846328,-0.97785 1.974769,-0.97785 1.128431,0 1.692656,0.47535 1.99136,0.97785 0.298704,0.5025 0.298704,1.04577 0.298704,1.168 v 0.84202 c 0,0.69265 -0.282113,1.38528 -0.829738,1.83348 0.614001,0.47535 0.929305,1.22232 0.929305,1.96928 z m -1.858609,-5.2967 c 0,-0.46175 -0.03322,-0.80129 -0.08301,-1.03217 -0.06635,-0.23088 -0.215727,-0.33953 -0.448056,-0.33953 -0.199136,0 -0.331886,0.0951 -0.398271,0.29879 -0.149352,0.39385 -0.165945,1.7384 -0.03322,2.21374 0.04978,0.24446 0.199137,0.3667 0.431464,0.3667 0.232329,0 0.381681,-0.12224 0.448056,-0.3667 0.04978,-0.23088 0.08301,-0.61116 0.08301,-1.14083 z m 0.11617,4.7127 c 0,-0.59757 -0.03322,-1.04577 -0.08301,-1.33096 -0.06635,-0.28521 -0.24892,-0.43459 -0.564226,-0.43459 -0.315296,0 -0.49784,0.14938 -0.547623,0.43459 -0.132752,0.584 -0.11616,2.03718 0.04978,2.47179 0.08301,0.23088 0.24892,0.33953 0.49784,0.33953 0.315305,0 0.49784,-0.13582 0.564225,-0.39385 0.04978,-0.25805 0.08301,-0.62475 0.08301,-1.08651 z"
       style="font-style:normal;font-variant:normal;font-weight:normal;font-stretch:normal;font-size:16.93330002px;line-height:1.25;font-family:'League Gothic';-inkscape-font-specification:'League Gothic';letter-spacing:0px;word-spacing:0px;fill:#c83737;fill-opacity:1;stroke:none;stroke-width:0.23457083"
       id="path3774"
       inkscape:connector-curvature="0" />
    <path
       d="m 65.016779,262.20671 c 0,-0.23089 0.03322,-0.77412 0.348488,-1.26305 0.315296,-0.47535 0.879521,-0.89636 1.99136,-0.89636 1.078657,0 1.676065,0.42101 1.99136,0.89636 0.315295,0.48893 0.348488,1.03217 0.348488,1.26305 v 5.67697 c 0,0.3667 -0.01656,0.9507 -0.331897,1.43961 -0.315295,0.5025 -0.87951,0.92353 -2.007951,0.92353 -1.128441,0 -1.692656,-0.42101 -2.007951,-0.92353 -0.315306,-0.48891 -0.331897,-1.07291 -0.331897,-1.43961 v -0.62475 h 1.792224 c 0,0.66548 0.01656,1.10008 0.08301,1.35812 0.06635,0.25804 0.199136,0.35312 0.464647,0.35312 0.215728,0 0.36508,-0.0814 0.448056,-0.25804 0.06635,-0.17655 0.09957,-0.44819 0.09957,-0.82846 v -1.87422 c -0.315295,0.14939 -0.580816,0.24445 -0.896112,0.24445 -0.929294,0 -1.427134,-0.39385 -1.692656,-0.84202 -0.265511,-0.44819 -0.298704,-0.99145 -0.298704,-1.26305 z m 2.887472,-0.43459 c 0,-0.12224 -0.132761,-0.4482 -0.547624,-0.4482 -0.381681,0 -0.547624,0.32596 -0.547624,0.4482 v 2.8928 c 0,0.12223 0.165944,0.44819 0.547624,0.44819 0.381681,0 0.531033,-0.25804 0.547624,-0.40744 z"
       style="font-style:normal;font-variant:normal;font-weight:normal;font-stretch:normal;font-size:16.93330002px;line-height:1.25;font-family:'League Gothic';-inkscape-font-specification:'League Gothic';letter-spacing:0px;word-spacing:0px;fill:#c83737;fill-opacity:1;stroke:none;stroke-width:0.23457083"
       id="path3776"
       inkscape:connector-curvature="0" />
    <g
       style="fill:#c83737;fill-opacity:1"
       transform="matrix(0.98,0,0,0.80204313,-24.783196,157.48663)"
       id="g3805">
      <path
         inkscape:connector-curvature="0"
         id="path3778"
         style="font-style:normal;font-variant:normal;font-weight:normal;font-stretch:normal;font-size:12.34720039px;line-height:1.25;font-family:'League Gothic';-inkscape-font-specification:'League Gothic';letter-spacing:0px;word-spacing:0px;fill:#c83737;fill-opacity:1;stroke:none;stroke-width:0.26458299"
         d="m 98.918068,129.90366 v -0.85195 c 0.555625,-0.11113 0.889,-0.39512 1.123602,-0.64206 0.12347,-0.14817 0.22225,-0.30868 0.29633,-0.46919 h 0.80257 v 9.07521 h -1.333502 v -7.11201 z" />
      <path
         inkscape:connector-curvature="0"
         id="path3780"
         style="font-style:normal;font-variant:normal;font-weight:normal;font-stretch:normal;font-size:12.69999981px;line-height:1.25;font-family:'League Gothic';-inkscape-font-specification:'League Gothic';letter-spacing:0px;word-spacing:0px;fill:#c83737;fill-opacity:1;stroke:none;stroke-width:0.26458299"
         d="m 105.31547,138.50566 c -0.0127,0.381 -0.0889,0.7239 -0.2286,1.016 -0.1143,0.254 -0.2921,0.4953 -0.5461,0.6858 -0.254,0.2032 -0.5969,0.3175 -1.0541,0.3175 -0.4572,0 -0.8128,-0.1143 -1.0668,-0.3175 -0.254,-0.1905 -0.4191,-0.4318 -0.5334,-0.6858 -0.1397,-0.2921 -0.2159,-0.635 -0.2286,-1.016 v -5.4991 c 0.0127,-0.3683 0.0889,-0.7112 0.2286,-1.0033 0.1143,-0.254 0.2794,-0.508 0.5334,-0.6985 0.254,-0.1905 0.6096,-0.3175 1.0668,-0.3175 0.4572,0 0.8001,0.127 1.0541,0.3175 0.254,0.1905 0.4318,0.4445 0.5461,0.6985 0.1397,0.2921 0.2159,0.635 0.2286,1.0033 z m -1.3716,-5.4991 c 0,-0.254 -0.0508,-0.4318 -0.1778,-0.5842 -0.0635,-0.0635 -0.1651,-0.1016 -0.2794,-0.1016 -0.2413,0 -0.3556,0.1778 -0.4064,0.3429 -0.0381,0.1016 -0.0508,0.2159 -0.0508,0.3429 v 5.4991 c 0,0.2667 0.0635,0.4445 0.1905,0.5842 0.0635,0.0635 0.1524,0.1016 0.2667,0.1016 0.2413,0 0.3556,-0.1524 0.4064,-0.3429 0.0381,-0.0889 0.0508,-0.2032 0.0508,-0.3429 z" />
    </g>
    <path
       d="m 81.8485,268.74195 c 0.348488,0.0408 0.614,-0.0271 0.813136,-0.24446 0.09957,-0.0951 0.149352,-0.25804 0.149352,-0.48892 v -7.9043 h 1.792224 v 8.13518 c 0,0.54325 -0.165944,1.04576 -0.580817,1.41245 -0.414863,0.36669 -1.111839,0.584 -2.173895,0.52966 z"
       style="font-style:normal;font-variant:normal;font-weight:normal;font-stretch:normal;font-size:16.93330002px;line-height:1.25;font-family:'League Gothic';-inkscape-font-specification:'League Gothic';letter-spacing:0px;word-spacing:0px;fill:#c83737;fill-opacity:1;stroke:none;stroke-width:0.23457083"
       id="path3782"
       inkscape:connector-curvature="0" />
    <path
       d="m 93.375864,267.76145 c 0,0.23089 -0.04978,0.48893 -0.149352,0.77414 -0.04978,0.14939 -0.132761,0.28521 -0.215726,0.43459 0.149352,0.16298 0.365078,0.29879 0.713566,0.35311 v 1.24947 c -1.01227,0 -1.526713,-0.3531 -1.842008,-0.77413 -0.24892,0.0679 -0.547624,0.12224 -0.896112,0.12224 -0.597408,0 -1.062055,-0.12224 -1.393951,-0.33954 -0.331897,-0.20371 -0.547625,-0.46175 -0.696977,-0.73337 -0.182544,-0.31237 -0.282113,-0.67907 -0.298704,-1.08651 v -5.88068 c 0.01656,-0.39386 0.11616,-0.76055 0.298704,-1.07291 0.149352,-0.27163 0.365079,-0.54327 0.696977,-0.74698 0.331896,-0.20372 0.796543,-0.33953 1.393951,-0.33953 0.597408,0 1.045464,0.13581 1.377361,0.33953 0.331886,0.20371 0.564215,0.47535 0.713567,0.74698 0.182545,0.31236 0.282113,0.67905 0.298704,1.07291 z m -1.792224,-5.88068 c 0,-0.27163 -0.06635,-0.46176 -0.232329,-0.62473 -0.08301,-0.0679 -0.215727,-0.10866 -0.365079,-0.10866 -0.315295,0 -0.464647,0.19014 -0.531033,0.36668 -0.04978,0.10866 -0.06635,0.23089 -0.06635,0.3667 v 5.88069 c 0,0.2852 0.08301,0.47534 0.24892,0.62474 0.08301,0.0679 0.199136,0.10864 0.348488,0.10864 0.315296,0 0.464648,-0.16298 0.531033,-0.36668 0.04978,-0.0951 0.06635,-0.21731 0.06635,-0.3667 z"
       style="font-style:normal;font-variant:normal;font-weight:normal;font-stretch:normal;font-size:16.93330002px;line-height:1.25;font-family:'League Gothic';-inkscape-font-specification:'League Gothic';letter-spacing:0px;word-spacing:0px;fill:#c83737;fill-opacity:1;stroke:none;stroke-width:0.23457083"
       id="path3784"
       inkscape:connector-curvature="0" />
    <path
       d="m 98.190673,260.15594 v 3.49038 h 0.06635 l 0.08301,-0.16298 1.49352,-3.3274 H 101.576 l -1.642884,3.28666 1.858614,6.69557 h -1.74245 l -1.244607,-4.34601 -0.04978,-0.20372 h -0.04978 l -0.09957,0.20372 -0.414864,0.81487 v 3.53114 h -1.792224 v -9.98223 z"
       style="font-style:normal;font-variant:normal;font-weight:normal;font-stretch:normal;font-size:16.93330002px;line-height:1.25;font-family:'League Gothic';-inkscape-font-specification:'League Gothic';letter-spacing:0px;word-spacing:0px;fill:#c83737;fill-opacity:1;stroke:none;stroke-width:0.23457083"
       id="path3786"
       inkscape:connector-curvature="0" />
    <path
       inkscape:connector-curvature="0"
       id="path3811"
       style="font-style:normal;font-variant:normal;font-weight:normal;font-stretch:normal;font-size:16.93330002px;line-height:1.25;font-family:'League Gothic';-inkscape-font-specification:'League Gothic';letter-spacing:0px;word-spacing:0px;fill:#800000;fill-opacity:1;stroke:none;stroke-width:0.23457083"
       d="m 0.94244439,283.003 1.84200801,-9.98223 h 2.190496 l 1.842008,9.98223 h -1.74244 L 4.7426198,280.96581 H 3.016781 L 2.6848844,283.003 Z m 3.03682401,-6.73631 -0.049784,-0.25805 h -0.099568 l -0.049784,0.25805 -0.5144314,3.15085 h 1.2279988 z" />
    <path
       inkscape:connector-curvature="0"
       id="path3813"
       style="font-style:normal;font-variant:normal;font-weight:normal;font-stretch:normal;font-size:16.93330002px;line-height:1.25;font-family:'League Gothic';-inkscape-font-specification:'League Gothic';letter-spacing:0px;word-spacing:0px;fill:#800000;fill-opacity:1;stroke:none;stroke-width:0.23457083"
       d="m 9.4329796,276.23952 v -0.69264 c 0,-0.66548 0.1161692,-1.31739 0.4646572,-1.79273 0.3484892,-0.47534 0.9458972,-0.78771 1.9249752,-0.78771 0.912713,0 1.526711,0.28521 1.891792,0.71981 0.365089,0.44819 0.49784,1.07291 0.49784,1.76556 0,1.0186 -0.464648,2.22733 -1.045464,3.35458 -0.597408,1.14082 -1.294384,2.15941 -1.759032,2.79774 h 2.837688 v 1.45319 H 9.3831956 v -1.45319 c 0.547624,-0.69266 1.0454644,-1.39887 1.4935214,-2.1051 0.38168,-0.59755 0.746758,-1.27663 1.02887,-1.96926 0.282113,-0.69266 0.49784,-1.37171 0.514432,-1.98286 0,-0.27162 -0.01656,-0.584 -0.09957,-0.81488 -0.08301,-0.23087 -0.232318,-0.40744 -0.497839,-0.40744 -0.24892,0 -0.398272,0.14939 -0.481239,0.3667 -0.08301,0.23088 -0.116168,0.52967 -0.116168,0.85561 v 0.69264 z" />
    <path
       inkscape:connector-curvature="0"
       id="path3815"
       style="font-style:normal;font-variant:normal;font-weight:normal;font-stretch:normal;font-size:16.93330002px;line-height:1.25;font-family:'League Gothic';-inkscape-font-specification:'League Gothic';letter-spacing:0px;word-spacing:0px;fill:#800000;fill-opacity:1;stroke:none;stroke-width:0.23457083"
       d="m 18.861063,278.49406 v -1.22232 c 0.74676,-0.0408 1.095247,-0.16297 1.244599,-0.44818 0.08301,-0.13581 0.116169,-0.31237 0.116169,-0.52967 0,-0.21729 0,-0.48892 0,-0.8013 0,-0.28521 0,-0.59757 -0.06635,-0.85561 -0.06635,-0.25805 -0.215737,-0.4346 -0.497839,-0.4346 -0.215737,0 -0.348489,0.0814 -0.414874,0.33953 -0.08301,0.27163 -0.11616,0.69266 -0.11616,1.35811 h -1.75903 c 0,-0.55681 0.01656,-1.31736 0.315295,-1.92853 0.298704,-0.59759 0.846327,-1.05934 1.974769,-1.05934 1.128431,0 1.709247,0.47535 2.007951,0.97785 0.298704,0.50251 0.315295,1.04576 0.315295,1.16799 0,1.48035 -0.315295,2.18658 -0.86292,2.63476 l -0.01656,0.0135 c 0.86292,0.55683 1.028873,1.58901 1.028873,2.74341 0,0.0408 0,0.13581 -0.01656,0.2852 -0.01656,0.28521 -0.116169,0.70623 -0.298704,1.14083 -0.199136,0.43462 -0.531033,0.82846 -1.045464,1.05934 -0.265521,0.12223 -0.580817,0.17655 -0.962497,0.17655 -1.128431,0 -1.709248,-0.46175 -2.024543,-1.07292 -0.315305,-0.59757 -0.348488,-1.35812 -0.348488,-1.91495 h 1.759031 c 0,0.66548 0.04978,1.0865 0.149352,1.34456 0.09957,0.27163 0.24892,0.35311 0.464648,0.35311 0.282112,0 0.431464,-0.17655 0.49784,-0.42102 0.06635,-0.24446 0.06635,-0.55683 0.06635,-0.84202 0,-0.31237 0,-0.59758 0.01656,-0.85562 0,-0.48893 -0.11616,-0.82846 -0.49784,-1.03218 -0.199136,-0.0951 -0.49784,-0.16297 -0.879511,-0.17656 z" />
    <path
       inkscape:connector-curvature="0"
       id="path3817"
       style="font-style:normal;font-variant:normal;font-weight:normal;font-stretch:normal;font-size:16.93330002px;line-height:1.25;font-family:'League Gothic';-inkscape-font-specification:'League Gothic';letter-spacing:0px;word-spacing:0px;fill:#800000;fill-opacity:1;stroke:none;stroke-width:0.23457083"
       d="M 27.832903,280.82999 H 25.06159 v -1.29021 l 2.621961,-6.51901 h 1.792224 v 6.51901 h 0.829735 v 1.29021 h -0.829735 v 2.17301 h -1.642872 z m -1.244599,-1.29021 h 1.244599 v -3.42248 h -0.09957 l -0.09957,0.29879 z" />
    <path
       inkscape:connector-curvature="0"
       id="path3819"
       style="font-style:normal;font-variant:normal;font-weight:normal;font-stretch:normal;font-size:16.93330002px;line-height:1.25;font-family:'League Gothic';-inkscape-font-specification:'League Gothic';letter-spacing:0px;word-spacing:0px;fill:#800000;fill-opacity:1;stroke:none;stroke-width:0.23457083"
       d="m 36.165787,278.22239 c 0,-0.421 -0.182545,-0.73338 -0.564215,-0.73338 -0.199137,0 -0.365091,0.12222 -0.497841,0.27164 -0.132761,0.16296 -0.199136,0.35311 -0.199136,0.46175 h -1.510122 v -5.25593 h 4.331208 v 1.45318 h -2.787894 v 2.07793 c 0.199136,-0.12223 0.414864,-0.23087 0.663784,-0.29879 0.116159,-0.0408 0.24892,-0.0543 0.365079,-0.0408 0.929305,0 1.427145,0.4346 1.692656,0.90994 0.265511,0.47535 0.298704,0.99144 0.298704,1.15442 v 2.22733 c 0,0.47535 -0.03322,1.11366 -0.348488,1.64333 -0.315295,0.54324 -0.912703,0.96427 -1.99136,0.96427 -1.111839,0 -1.676065,-0.42103 -1.99136,-1.01859 -0.315304,-0.58399 -0.348488,-1.33096 -0.348488,-1.99645 h 1.792224 v 0.39387 c 0,0.50249 0.03322,0.85561 0.11617,1.04575 0.08301,0.20372 0.215727,0.29879 0.431455,0.29879 0.182545,0 0.331897,-0.0951 0.414863,-0.28521 0.08301,-0.19014 0.132761,-0.54325 0.132761,-1.04576 z" />
    <path
       inkscape:connector-curvature="0"
       id="path3821"
       style="font-style:normal;font-variant:normal;font-weight:normal;font-stretch:normal;font-size:16.93330002px;line-height:1.25;font-family:'League Gothic';-inkscape-font-specification:'League Gothic';letter-spacing:0px;word-spacing:0px;fill:#800000;fill-opacity:1;stroke:none;stroke-width:0.23457083"
       d="m 45.892628,280.95223 c 0,0.23089 -0.03322,0.77413 -0.348489,1.24948 -0.315295,0.48892 -0.912703,0.90993 -1.991359,0.90993 -1.111839,0 -1.676065,-0.421 -1.99136,-0.90993 -0.315295,-0.47535 -0.348488,-1.01859 -0.348488,-1.24948 v -5.67697 c 0,-0.33953 0.01656,-0.95069 0.331897,-1.45319 0.315295,-0.48893 0.87951,-0.90995 2.007951,-0.90995 1.128441,0 1.692656,0.42102 2.007951,0.90995 0.315305,0.50251 0.331897,1.11367 0.331897,1.45319 V 275.9 h -1.792225 c 0,-0.66548 -0.01656,-1.10007 -0.08301,-1.35811 -0.06635,-0.25805 -0.199137,-0.35312 -0.464648,-0.35312 -0.215738,0 -0.36509,0.0815 -0.431464,0.25805 -0.08301,0.17654 -0.116159,0.44818 -0.116159,0.82845 v 1.77914 c 0.315295,-0.14939 0.580806,-0.24445 0.896112,-0.24445 0.929293,0 1.427134,0.39385 1.692656,0.84202 0.265511,0.4482 0.298704,0.99145 0.298704,1.26306 z m -2.887472,0.43459 c 0,0.12224 0.132761,0.4482 0.547624,0.4482 0.381681,0 0.547623,-0.32596 0.547623,-0.4482 v -2.98786 c 0,-0.12223 -0.165943,-0.44819 -0.547623,-0.44819 -0.381682,0 -0.531034,0.25804 -0.547624,0.40743 z" />
    <path
       inkscape:connector-curvature="0"
       id="path3823"
       style="font-style:normal;font-variant:normal;font-weight:normal;font-stretch:normal;font-size:16.93330002px;line-height:1.25;font-family:'League Gothic';-inkscape-font-specification:'League Gothic';letter-spacing:0px;word-spacing:0px;fill:#800000;fill-opacity:1;stroke:none;stroke-width:0.23457083"
       d="m 51.918857,274.47396 h -2.688336 v -1.45319 h 4.513752 v 1.46678 L 51.952049,283.003 H 50.09345 Z" />
    <path
       inkscape:connector-curvature="0"
       id="path3825"
       style="font-style:normal;font-variant:normal;font-weight:normal;font-stretch:normal;font-size:16.93330002px;line-height:1.25;font-family:'League Gothic';-inkscape-font-specification:'League Gothic';letter-spacing:0px;word-spacing:0px;fill:#800000;fill-opacity:1;stroke:none;stroke-width:0.23457083"
       d="m 61.811647,280.87075 c 0,0.0951 -0.01656,0.36669 -0.09957,0.69264 -0.08301,0.33953 -0.282113,0.71981 -0.630601,1.01859 -0.348489,0.29879 -0.87952,0.52967 -1.659464,0.52967 -0.779962,0 -1.310995,-0.23088 -1.659483,-0.52967 -0.348488,-0.29878 -0.547624,-0.67906 -0.630591,-1.01859 -0.08301,-0.32595 -0.09957,-0.59757 -0.09957,-0.69264 v -1.16799 c 0,-0.74698 0.315295,-1.49394 0.929294,-1.96929 -0.547624,-0.44819 -0.829727,-1.14083 -0.829727,-1.83347 v -0.84203 c 0,-0.12223 0.01656,-0.66548 0.315296,-1.16799 0.298704,-0.50251 0.846328,-0.97786 1.974778,-0.97786 1.128431,0 1.692657,0.47535 1.991361,0.97786 0.298704,0.5025 0.298704,1.04576 0.298704,1.16799 V 275.9 c 0,0.69264 -0.282113,1.38528 -0.829738,1.83347 0.614001,0.47535 0.929305,1.22232 0.929305,1.96929 z m -1.858609,-5.2967 c 0,-0.46175 -0.03322,-0.80129 -0.08301,-1.03217 -0.06635,-0.23088 -0.215727,-0.33953 -0.448056,-0.33953 -0.199136,0 -0.331886,0.0951 -0.398282,0.29879 -0.149352,0.39385 -0.165943,1.7384 -0.03322,2.21374 0.04978,0.24446 0.199146,0.3667 0.431474,0.3667 0.232329,0 0.381681,-0.12224 0.448056,-0.3667 0.04978,-0.23088 0.08301,-0.61116 0.08301,-1.14083 z m 0.11617,4.7127 c 0,-0.59757 -0.03322,-1.04575 -0.08301,-1.33096 -0.06635,-0.28521 -0.24892,-0.43459 -0.564226,-0.43459 -0.315296,0 -0.497849,0.14938 -0.547634,0.43459 -0.132751,0.584 -0.116159,2.03718 0.04978,2.47179 0.08301,0.23088 0.24893,0.33953 0.497849,0.33953 0.315305,0 0.497841,-0.13582 0.564226,-0.39385 0.04978,-0.25805 0.08301,-0.62475 0.08301,-1.08651 z" />
    <path
       inkscape:connector-curvature="0"
       id="path3827"
       style="font-style:normal;font-variant:normal;font-weight:normal;font-stretch:normal;font-size:16.93330002px;line-height:1.25;font-family:'League Gothic';-inkscape-font-specification:'League Gothic';letter-spacing:0px;word-spacing:0px;fill:#800000;fill-opacity:1;stroke:none;stroke-width:0.23457083"
       d="m 65.016782,275.07154 c 0,-0.23089 0.03322,-0.77413 0.348488,-1.26306 0.315296,-0.47535 0.879521,-0.89635 1.99136,-0.89635 1.078657,0 1.676065,0.421 1.99136,0.89635 0.315295,0.48893 0.348488,1.03218 0.348488,1.26306 v 5.67696 c 0,0.3667 -0.01656,0.9507 -0.331897,1.43962 -0.315295,0.5025 -0.87951,0.92352 -2.007951,0.92352 -1.128441,0 -1.692656,-0.421 -2.007951,-0.92352 -0.315306,-0.48892 -0.331897,-1.07292 -0.331897,-1.43962 v -0.62473 h 1.792224 c 0,0.66547 0.01656,1.10008 0.08301,1.35812 0.06635,0.25804 0.199136,0.35312 0.464647,0.35312 0.215728,0 0.36508,-0.0814 0.448056,-0.25805 0.06635,-0.17655 0.09957,-0.44818 0.09957,-0.82846 v -1.87421 c -0.315295,0.14939 -0.580816,0.24446 -0.896112,0.24446 -0.929294,0 -1.427134,-0.39386 -1.692656,-0.84203 -0.265511,-0.44819 -0.298704,-0.99145 -0.298704,-1.26306 z m 2.887472,-0.4346 c 0,-0.12224 -0.132761,-0.44819 -0.547624,-0.44819 -0.381681,0 -0.547624,0.32595 -0.547624,0.44819 v 2.89281 c 0,0.12223 0.165944,0.44818 0.547624,0.44818 0.381681,0 0.531033,-0.25803 0.547624,-0.40743 z" />
    <g
       style="fill:#800000"
       id="g3833"
       transform="matrix(0.98,0,0,0.80204313,-24.783193,170.35146)">
      <path
         d="m 98.918068,129.90366 v -0.85195 c 0.555625,-0.11113 0.889,-0.39512 1.123602,-0.64206 0.12347,-0.14817 0.22225,-0.30868 0.29633,-0.46919 h 0.80257 v 9.07521 h -1.333502 v -7.11201 z"
         style="font-style:normal;font-variant:normal;font-weight:normal;font-stretch:normal;font-size:12.34720039px;line-height:1.25;font-family:'League Gothic';-inkscape-font-specification:'League Gothic';letter-spacing:0px;word-spacing:0px;fill:#800000;fill-opacity:1;stroke:none;stroke-width:0.26458299"
         id="path3829"
         inkscape:connector-curvature="0" />
      <path
         d="m 105.31547,138.50566 c -0.0127,0.381 -0.0889,0.7239 -0.2286,1.016 -0.1143,0.254 -0.2921,0.4953 -0.5461,0.6858 -0.254,0.2032 -0.5969,0.3175 -1.0541,0.3175 -0.4572,0 -0.8128,-0.1143 -1.0668,-0.3175 -0.254,-0.1905 -0.4191,-0.4318 -0.5334,-0.6858 -0.1397,-0.2921 -0.2159,-0.635 -0.2286,-1.016 v -5.4991 c 0.0127,-0.3683 0.0889,-0.7112 0.2286,-1.0033 0.1143,-0.254 0.2794,-0.508 0.5334,-0.6985 0.254,-0.1905 0.6096,-0.3175 1.0668,-0.3175 0.4572,0 0.8001,0.127 1.0541,0.3175 0.254,0.1905 0.4318,0.4445 0.5461,0.6985 0.1397,0.2921 0.2159,0.635 0.2286,1.0033 z m -1.3716,-5.4991 c 0,-0.254 -0.0508,-0.4318 -0.1778,-0.5842 -0.0635,-0.0635 -0.1651,-0.1016 -0.2794,-0.1016 -0.2413,0 -0.3556,0.1778 -0.4064,0.3429 -0.0381,0.1016 -0.0508,0.2159 -0.0508,0.3429 v 5.4991 c 0,0.2667 0.0635,0.4445 0.1905,0.5842 0.0635,0.0635 0.1524,0.1016 0.2667,0.1016 0.2413,0 0.3556,-0.1524 0.4064,-0.3429 0.0381,-0.0889 0.0508,-0.2032 0.0508,-0.3429 z"
         style="font-style:normal;font-variant:normal;font-weight:normal;font-stretch:normal;font-size:12.69999981px;line-height:1.25;font-family:'League Gothic';-inkscape-font-specification:'League Gothic';letter-spacing:0px;word-spacing:0px;fill:#800000;fill-opacity:1;stroke:none;stroke-width:0.26458299"
         id="path3831"
         inkscape:connector-curvature="0" />
    </g>
    <path
       inkscape:connector-curvature="0"
       id="path3835"
       style="font-style:normal;font-variant:normal;font-weight:normal;font-stretch:normal;font-size:16.93330002px;line-height:1.25;font-family:'League Gothic';-inkscape-font-specification:'League Gothic';letter-spacing:0px;word-spacing:0px;fill:#800000;fill-opacity:1;stroke:none;stroke-width:0.23457083"
       d="m 81.8485,281.60678 c 0.348488,0.0408 0.614,-0.0271 0.813136,-0.24446 0.09957,-0.0951 0.149352,-0.25804 0.149352,-0.48892 v -7.9043 h 1.792224 v 8.13518 c 0,0.54325 -0.165944,1.04576 -0.580817,1.41245 -0.414863,0.36669 -1.111839,0.584 -2.173895,0.52966 z" />
    <path
       inkscape:connector-curvature="0"
       id="path3837"
       style="font-style:normal;font-variant:normal;font-weight:normal;font-stretch:normal;font-size:16.93330002px;line-height:1.25;font-family:'League Gothic';-inkscape-font-specification:'League Gothic';letter-spacing:0px;word-spacing:0px;fill:#800000;fill-opacity:1;stroke:none;stroke-width:0.23457083"
       d="m 93.375864,280.62628 c 0,0.23089 -0.04978,0.48893 -0.149352,0.77414 -0.04978,0.14939 -0.132761,0.28521 -0.215726,0.43459 0.149352,0.16298 0.365078,0.29879 0.713566,0.35311 v 1.24947 c -1.01227,0 -1.526713,-0.3531 -1.842008,-0.77413 -0.24892,0.0679 -0.547624,0.12224 -0.896112,0.12224 -0.597408,0 -1.062055,-0.12224 -1.393951,-0.33954 -0.331897,-0.20371 -0.547625,-0.46175 -0.696977,-0.73337 -0.182544,-0.31237 -0.282113,-0.67907 -0.298704,-1.08651 v -5.88068 c 0.01656,-0.39386 0.11616,-0.76055 0.298704,-1.07291 0.149352,-0.27163 0.365079,-0.54327 0.696977,-0.74698 0.331896,-0.20372 0.796543,-0.33953 1.393951,-0.33953 0.597408,0 1.045464,0.13581 1.377361,0.33953 0.331886,0.20371 0.564215,0.47535 0.713567,0.74698 0.182545,0.31236 0.282113,0.67905 0.298704,1.07291 z M 91.58364,274.7456 c 0,-0.27163 -0.06635,-0.46176 -0.232329,-0.62473 -0.08301,-0.0679 -0.215727,-0.10866 -0.365079,-0.10866 -0.315295,0 -0.464647,0.19014 -0.531033,0.36668 -0.04978,0.10866 -0.06635,0.23089 -0.06635,0.3667 v 5.88069 c 0,0.2852 0.08301,0.47534 0.24892,0.62474 0.08301,0.0679 0.199136,0.10864 0.348488,0.10864 0.315296,0 0.464648,-0.16298 0.531033,-0.36668 0.04978,-0.0951 0.06635,-0.21731 0.06635,-0.3667 z" />
    <path
       inkscape:connector-curvature="0"
       id="path3839"
       style="font-style:normal;font-variant:normal;font-weight:normal;font-stretch:normal;font-size:16.93330002px;line-height:1.25;font-family:'League Gothic';-inkscape-font-specification:'League Gothic';letter-spacing:0px;word-spacing:0px;fill:#800000;fill-opacity:1;stroke:none;stroke-width:0.23457083"
       d="m 98.190681,273.02077 v 3.49038 h 0.06635 l 0.08301,-0.16298 1.49352,-3.3274 H 101.576 l -1.642871,3.28666 1.858601,6.69557 h -1.74244 l -1.244601,-4.34601 -0.04978,-0.20372 h -0.04978 l -0.09957,0.20372 -0.414864,0.81487 v 3.53114 h -1.792224 v -9.98223 z" />
    <rect
       style="fill:#ff8080;fill-opacity:1;stroke:#000000;stroke-width:0.24577117;stroke-linecap:butt;stroke-linejoin:bevel;stroke-miterlimit:4;stroke-dasharray:none"
       id="rect4728"
       width="14.647979"
       height="11.797035"
       x="64.169708"
       y="246.6413"
       ry="0.91548336"
       rx="0.91548336" />
    <text
       id="text4734"
       y="347.08179"
       x="0.66145831"
       style="font-style:normal;font-variant:normal;font-weight:normal;font-stretch:normal;font-size:16.93330002px;line-height:1.25;font-family:'Bou Western';-inkscape-font-specification:'Bou Western';letter-spacing:0px;word-spacing:0px;fill:#800000;fill-opacity:1;stroke:#000000;stroke-width:0.565;stroke-miterlimit:4;stroke-dasharray:none"
       xml:space="preserve"><tspan
         style="font-style:normal;font-variant:normal;font-weight:normal;font-stretch:normal;font-family:'Bou Western';-inkscape-font-specification:'Bou Western';fill:#800000;stroke:#000000;stroke-width:0.565;stroke-miterlimit:4;stroke-dasharray:none"
         y="347.08179"
         x="0.66145831"
         id="tspan4732"
         sodipodi:role="line">SWIPE POKER</tspan></text>
    <text
       id="text864"
       y="355.16501"
       x="31.809292"
       style="font-style:normal;font-variant:normal;font-weight:normal;font-stretch:normal;font-size:6.37489986px;line-height:1.25;font-family:'Yatsurano Western';-inkscape-font-specification:'Yatsurano Western';letter-spacing:0px;word-spacing:0px;fill:#000000;fill-opacity:1;stroke:none;stroke-width:0.170756"
       xml:space="preserve"><tspan
         style="font-style:normal;font-variant:normal;font-weight:normal;font-stretch:normal;font-family:'Yatsurano Western';-inkscape-font-specification:'Yatsurano Western';stroke-width:0.170756"
         y="355.16501"
         x="31.809292"
         id="tspan862"
         sodipodi:role="line">- Lachlan Kingsford -</tspan></text>
    <rect
       rx="0.91548336"
       ry="0.91548336"
       y="246.6413"
       x="79.938606"
       height="11.797035"
       width="14.647979"
       id="rect866"
       style="fill:#afe9af;fill-opacity:1;stroke:#000000;stroke-width:0.24577117;stroke-linecap:butt;stroke-linejoin:bevel;stroke-miterlimit:4;stroke-dasharray:none" />
    <rect
       rx="0.91548336"
       ry="0.91548336"
       y="246.6413"
       x="95.974777"
       height="11.797035"
       width="14.647979"
       id="rect868"
       style="fill:#550000;fill-opacity:1;stroke:#000000;stroke-width:0.24577117;stroke-linecap:butt;stroke-linejoin:bevel;stroke-miterlimit:4;stroke-dasharray:none" />
    <rect
       style="fill:#f2f2f2;fill-opacity:1;stroke:#ff0000;stroke-width:0.24577117;stroke-linecap:butt;stroke-linejoin:bevel;stroke-miterlimit:4;stroke-dasharray:none"
       id="rect1559"
       width="14.647979"
       height="11.797035"
       x="48.241753"
       y="246.61569"
       ry="0.91548336"
       rx="0.91548336" />
    <circle
       r="3.6996784"
       cy="252.53981"
       cx="87.262596"
       id="path7072"
       style="fill:#cccccc;fill-opacity:1;stroke:#f2f2f2;stroke-width:0.65170002;stroke-linecap:round;stroke-linejoin:bevel;stroke-miterlimit:4;stroke-dasharray:none;stroke-opacity:1" />
    <path
       inkscape:connector-curvature="0"
       id="path7074"
       d="m 96.485968,246.89024 13.259902,10.83712"
       style="fill:#f2f2f2;stroke:#ececec;stroke-width:0.55369997;stroke-linecap:butt;stroke-linejoin:miter;stroke-miterlimit:4;stroke-dasharray:none;stroke-opacity:1" />
    <path
       style="fill:#f2f2f2;stroke:#ececec;stroke-width:0.55369997;stroke-linecap:butt;stroke-linejoin:miter;stroke-miterlimit:4;stroke-dasharray:none;stroke-opacity:1"
       d="M 109.74587,246.89024 96.485968,257.72736"
       id="path7076"
       inkscape:connector-curvature="0" />
    <rect
       rx="0.93416667"
       ry="0.93416667"
       y="246.52092"
       x="111.45625"
       height="12.037791"
       width="14.946918"
       id="rect4573"
       style="fill:none;fill-opacity:1;stroke:none;stroke-width:0.2507869;stroke-linecap:butt;stroke-linejoin:bevel;stroke-miterlimit:4;stroke-dasharray:none" />
    <rect
       style="fill:#999999;fill-opacity:1;stroke:#000000;stroke-width:0.24577117;stroke-linecap:butt;stroke-linejoin:bevel;stroke-miterlimit:4;stroke-dasharray:none"
       id="rect5173"
       width="14.647979"
       height="11.797035"
       x="32.406033"
       y="246.61569"
       ry="0.91548336"
       rx="0.91548336" />
    <rect
       rx="0.88459307"
       ry="0.82903111"
       y="247.17271"
       x="127.88024"
       height="10.683001"
       width="14.153726"
       id="rect5177"
       style="fill:#d7e3f4;fill-opacity:1;stroke:#0b1728;stroke-width:0.85884923;stroke-linecap:butt;stroke-linejoin:bevel;stroke-miterlimit:4;stroke-dasharray:none;stroke-opacity:1" />
    <path
       inkscape:connector-curvature="0"
       id="path950"
       style="font-style:normal;font-variant:normal;font-weight:normal;font-stretch:normal;font-size:16.93330002px;line-height:1.25;font-family:'League Gothic';-inkscape-font-specification:'League Gothic';letter-spacing:0px;word-spacing:0px;fill:#000000;fill-opacity:1;stroke:none;stroke-width:0.23457083"
       d="m 0.94244442,295.6053 1.84200798,-9.98223 h 2.190496 l 1.842007,9.98223 H 5.0745164 L 4.7426227,293.56811 H 3.0167771 l -0.3318927,2.03719 z m 3.03682398,-6.73631 -0.049784,-0.25805 h -0.099568 l -0.049784,0.25805 -0.5144353,3.15085 h 1.2280056 z" />
    <path
       inkscape:connector-curvature="0"
       id="path952"
       style="font-style:normal;font-variant:normal;font-weight:normal;font-stretch:normal;font-size:16.93330002px;line-height:1.25;font-family:'League Gothic';-inkscape-font-specification:'League Gothic';letter-spacing:0px;word-spacing:0px;fill:#000000;fill-opacity:1;stroke:none;stroke-width:0.23457083"
       d="m 9.4329817,288.84183 v -0.69265 c 0,-0.66547 0.1161623,-1.31738 0.4646503,-1.79272 0.348489,-0.47534 0.945896,-0.78772 1.924982,-0.78772 0.912706,0 1.526708,0.28522 1.891792,0.71982 0.365082,0.44818 0.49784,1.07291 0.49784,1.76556 0,1.0186 -0.464652,2.22732 -1.045464,3.35457 -0.597408,1.14082 -1.294384,2.15942 -1.759036,2.79774 h 2.837688 v 1.4532 H 9.3831977 v -1.4532 c 0.547624,-0.69265 1.0454643,-1.39886 1.4935203,-2.1051 0.381676,-0.59756 0.746759,-1.27664 1.028867,-1.96928 0.28211,-0.69264 0.49784,-1.37171 0.514436,-1.98286 0,-0.27162 -0.01659,-0.584 -0.09957,-0.81488 -0.08298,-0.23087 -0.232326,-0.40744 -0.497839,-0.40744 -0.24892,0 -0.398272,0.1494 -0.481246,0.3667 -0.08298,0.23088 -0.116162,0.52967 -0.116162,0.85562 v 0.69264 z" />
    <path
       inkscape:connector-curvature="0"
       id="path954"
       style="font-style:normal;font-variant:normal;font-weight:normal;font-stretch:normal;font-size:16.93330002px;line-height:1.25;font-family:'League Gothic';-inkscape-font-specification:'League Gothic';letter-spacing:0px;word-spacing:0px;fill:#000000;fill-opacity:1;stroke:none;stroke-width:0.23457083"
       d="m 18.861112,291.09635 v -1.22231 c 0.74676,-0.0408 1.095248,-0.16299 1.2446,-0.44819 0.08298,-0.1358 0.116162,-0.31237 0.116162,-0.52968 0,-0.21729 0,-0.48891 0,-0.80129 0,-0.28521 0,-0.59757 -0.06638,-0.85561 -0.06638,-0.25804 -0.215731,-0.43459 -0.49784,-0.43459 -0.215731,0 -0.348488,0.0814 -0.414867,0.33953 -0.08298,0.27162 -0.116163,0.69264 -0.116163,1.35812 H 17.36759 c 0,-0.55683 0.01659,-1.31738 0.315298,-1.92853 0.298704,-0.59759 0.846328,-1.05934 1.974766,-1.05934 1.128437,0 1.70925,0.47535 2.007954,0.97784 0.298704,0.5025 0.315299,1.04576 0.315299,1.16799 0,1.48035 -0.315299,2.18659 -0.862923,2.63476 l -0.01659,0.0135 c 0.862922,0.55682 1.028869,1.589 1.028869,2.74341 0,0.0408 0,0.13581 -0.01659,0.2852 -0.01659,0.28521 -0.116162,0.70623 -0.298704,1.14083 -0.199136,0.43461 -0.531029,0.82845 -1.045464,1.05934 -0.265514,0.12223 -0.580813,0.17655 -0.96249,0.17655 -1.128438,0 -1.709251,-0.46176 -2.02455,-1.07292 -0.315298,-0.59757 -0.348488,-1.35812 -0.348488,-1.91496 h 1.759035 c 0,0.66549 0.04978,1.08651 0.149352,1.34456 0.09957,0.27163 0.24892,0.35311 0.464651,0.35311 0.282109,0 0.431461,-0.17655 0.49784,-0.42102 0.06638,-0.24446 0.06638,-0.55683 0.06638,-0.84202 0,-0.31237 0,-0.59758 0.01659,-0.85562 0,-0.48893 -0.116163,-0.82846 -0.49784,-1.03218 -0.199136,-0.0951 -0.49784,-0.16298 -0.879517,-0.17656 z" />
    <path
       inkscape:connector-curvature="0"
       id="path956"
       style="font-style:normal;font-variant:normal;font-weight:normal;font-stretch:normal;font-size:16.93330002px;line-height:1.25;font-family:'League Gothic';-inkscape-font-specification:'League Gothic';letter-spacing:0px;word-spacing:0px;fill:#000000;fill-opacity:1;stroke:none;stroke-width:0.23457083"
       d="m 27.8329,293.43229 h -2.771309 v -1.29021 l 2.621957,-6.51901 h 1.792224 v 6.51901 h 0.829735 v 1.29021 h -0.829735 v 2.17301 H 27.8329 Z m -1.244599,-1.29021 H 27.8329 v -3.42248 h -0.09957 l -0.09957,0.29879 z" />
    <path
       inkscape:connector-curvature="0"
       id="path958"
       style="font-style:normal;font-variant:normal;font-weight:normal;font-stretch:normal;font-size:16.93330002px;line-height:1.25;font-family:'League Gothic';-inkscape-font-specification:'League Gothic';letter-spacing:0px;word-spacing:0px;fill:#000000;fill-opacity:1;stroke:none;stroke-width:0.23457083"
       d="m 36.165785,290.82469 c 0,-0.42099 -0.182545,-0.73338 -0.564215,-0.73338 -0.199136,0 -0.36509,0.12223 -0.49784,0.27162 -0.132761,0.16298 -0.199136,0.35312 -0.199136,0.46177 h -1.51012 v -5.25593 h 4.331207 v 1.45319 h -2.787895 v 2.07793 c 0.199136,-0.12223 0.414864,-0.23088 0.663784,-0.29879 0.116159,-0.0408 0.24892,-0.0543 0.365079,-0.0408 0.929306,0 1.427146,0.43459 1.692657,0.90993 0.265511,0.47535 0.298704,0.99145 0.298704,1.15441 v 2.22733 c 0,0.47535 -0.03322,1.11368 -0.348488,1.64335 -0.315295,0.54323 -0.912703,0.96425 -1.991361,0.96425 -1.111839,0 -1.676063,-0.42102 -1.991358,-1.01858 -0.315295,-0.584 -0.348488,-1.33097 -0.348488,-1.99647 h 1.792222 v 0.39387 c 0,0.5025 0.03322,0.85561 0.116169,1.04577 0.08301,0.20372 0.215728,0.29879 0.431455,0.29879 0.182545,0 0.331897,-0.0951 0.414863,-0.28522 0.08301,-0.19014 0.132761,-0.54324 0.132761,-1.04577 z" />
    <path
       inkscape:connector-curvature="0"
       id="path960"
       style="font-style:normal;font-variant:normal;font-weight:normal;font-stretch:normal;font-size:16.93330002px;line-height:1.25;font-family:'League Gothic';-inkscape-font-specification:'League Gothic';letter-spacing:0px;word-spacing:0px;fill:#000000;fill-opacity:1;stroke:none;stroke-width:0.23457083"
       d="m 45.892628,293.55452 c 0,0.23089 -0.03322,0.77413 -0.348489,1.24948 -0.315295,0.48893 -0.912703,0.90994 -1.991359,0.90994 -1.111839,0 -1.676065,-0.42101 -1.99136,-0.90994 -0.315295,-0.47535 -0.348488,-1.01859 -0.348488,-1.24948 v -5.67696 c 0,-0.33953 0.01656,-0.95069 0.331897,-1.4532 0.315295,-0.48892 0.87951,-0.90993 2.007951,-0.90993 1.128441,0 1.692656,0.42101 2.007951,0.90993 0.315305,0.50251 0.331897,1.11368 0.331897,1.4532 v 0.62473 h -1.792225 c 0,-0.66547 -0.01656,-1.10008 -0.08301,-1.35812 -0.06635,-0.25804 -0.199137,-0.35312 -0.464648,-0.35312 -0.215738,0 -0.36509,0.0815 -0.431464,0.25806 -0.08301,0.17654 -0.116159,0.44817 -0.116159,0.82845 v 1.77914 c 0.315295,-0.14939 0.580806,-0.24446 0.896112,-0.24446 0.929293,0 1.427134,0.39385 1.692656,0.84204 0.265511,0.44818 0.298704,0.99143 0.298704,1.26305 z m -2.887472,0.4346 c 0,0.12224 0.132761,0.44819 0.547624,0.44819 0.381681,0 0.547623,-0.32595 0.547623,-0.44819 v -2.98787 c 0,-0.12223 -0.165943,-0.44818 -0.547623,-0.44818 -0.381682,0 -0.531034,0.25804 -0.547624,0.40743 z" />
    <path
       inkscape:connector-curvature="0"
       id="path962"
       style="font-style:normal;font-variant:normal;font-weight:normal;font-stretch:normal;font-size:16.93330002px;line-height:1.25;font-family:'League Gothic';-inkscape-font-specification:'League Gothic';letter-spacing:0px;word-spacing:0px;fill:#000000;fill-opacity:1;stroke:none;stroke-width:0.23457083"
       d="m 51.918859,287.07626 h -2.688336 v -1.45319 h 4.513752 v 1.46678 l -1.792224,8.51545 h -1.858598 z" />
    <path
       inkscape:connector-curvature="0"
       id="path964"
       style="font-style:normal;font-variant:normal;font-weight:normal;font-stretch:normal;font-size:16.93330002px;line-height:1.25;font-family:'League Gothic';-inkscape-font-specification:'League Gothic';letter-spacing:0px;word-spacing:0px;fill:#000000;fill-opacity:1;stroke:none;stroke-width:0.23457083"
       d="m 61.811641,293.47305 c 0,0.0951 -0.01656,0.36668 -0.09957,0.69264 -0.08301,0.33953 -0.282113,0.71981 -0.630601,1.01859 -0.348489,0.29879 -0.87952,0.52967 -1.659464,0.52967 -0.779953,0 -1.310984,-0.23088 -1.659473,-0.52967 -0.348488,-0.29878 -0.547623,-0.67906 -0.63059,-1.01859 -0.08301,-0.32596 -0.09957,-0.59757 -0.09957,-0.69264 v -1.168 c 0,-0.74698 0.315295,-1.49393 0.929295,-1.96928 -0.547624,-0.44819 -0.829727,-1.14083 -0.829727,-1.83348 v -0.84202 c 0,-0.12223 0.01656,-0.66548 0.315295,-1.168 0.298704,-0.5025 0.846328,-0.97785 1.974769,-0.97785 1.128431,0 1.692656,0.47535 1.99136,0.97785 0.298704,0.5025 0.298704,1.04577 0.298704,1.168 v 0.84202 c 0,0.69265 -0.282113,1.38528 -0.829738,1.83348 0.614001,0.47535 0.929305,1.22232 0.929305,1.96928 z m -1.858609,-5.2967 c 0,-0.46175 -0.03322,-0.80129 -0.08301,-1.03217 -0.06635,-0.23088 -0.215727,-0.33953 -0.448056,-0.33953 -0.199136,0 -0.331886,0.0951 -0.398271,0.29879 -0.149352,0.39385 -0.165945,1.7384 -0.03322,2.21374 0.04978,0.24446 0.199137,0.3667 0.431464,0.3667 0.232329,0 0.381681,-0.12224 0.448056,-0.3667 0.04978,-0.23088 0.08301,-0.61116 0.08301,-1.14083 z m 0.11617,4.7127 c 0,-0.59757 -0.03322,-1.04577 -0.08301,-1.33096 -0.06635,-0.28521 -0.24892,-0.43459 -0.564226,-0.43459 -0.315296,0 -0.49784,0.14938 -0.547623,0.43459 -0.132752,0.584 -0.11616,2.03718 0.04978,2.47179 0.08301,0.23088 0.24892,0.33953 0.49784,0.33953 0.315305,0 0.49784,-0.13582 0.564225,-0.39385 0.04978,-0.25805 0.08301,-0.62475 0.08301,-1.08651 z" />
    <path
       inkscape:connector-curvature="0"
       id="path966"
       style="font-style:normal;font-variant:normal;font-weight:normal;font-stretch:normal;font-size:16.93330002px;line-height:1.25;font-family:'League Gothic';-inkscape-font-specification:'League Gothic';letter-spacing:0px;word-spacing:0px;fill:#000000;fill-opacity:1;stroke:none;stroke-width:0.23457083"
       d="m 65.016779,287.67384 c 0,-0.23089 0.03322,-0.77412 0.348488,-1.26305 0.315296,-0.47535 0.879521,-0.89636 1.99136,-0.89636 1.078657,0 1.676065,0.42101 1.99136,0.89636 0.315295,0.48893 0.348488,1.03217 0.348488,1.26305 v 5.67697 c 0,0.3667 -0.01656,0.9507 -0.331897,1.43961 -0.315295,0.5025 -0.87951,0.92353 -2.007951,0.92353 -1.128441,0 -1.692656,-0.42101 -2.007951,-0.92353 -0.315306,-0.48891 -0.331897,-1.07291 -0.331897,-1.43961 v -0.62475 h 1.792224 c 0,0.66548 0.01656,1.10008 0.08301,1.35812 0.06635,0.25804 0.199136,0.35312 0.464647,0.35312 0.215728,0 0.36508,-0.0814 0.448056,-0.25804 0.06635,-0.17655 0.09957,-0.44819 0.09957,-0.82846 v -1.87422 c -0.315295,0.14939 -0.580816,0.24445 -0.896112,0.24445 -0.929294,0 -1.427134,-0.39385 -1.692656,-0.84202 -0.265511,-0.44819 -0.298704,-0.99145 -0.298704,-1.26305 z m 2.887472,-0.43459 c 0,-0.12224 -0.132761,-0.4482 -0.547624,-0.4482 -0.381681,0 -0.547624,0.32596 -0.547624,0.4482 v 2.8928 c 0,0.12224 0.165944,0.44819 0.547624,0.44819 0.381681,0 0.531033,-0.25804 0.547624,-0.40744 z" />
    <g
       id="g972"
       transform="matrix(0.98,0,0,0.80204313,-24.783196,182.95376)">
      <path
         d="m 98.918068,129.90366 v -0.85195 c 0.555625,-0.11113 0.889,-0.39512 1.123602,-0.64206 0.12347,-0.14817 0.22225,-0.30868 0.29633,-0.46919 h 0.80257 v 9.07521 h -1.333502 v -7.11201 z"
         style="font-style:normal;font-variant:normal;font-weight:normal;font-stretch:normal;font-size:12.34720039px;line-height:1.25;font-family:'League Gothic';-inkscape-font-specification:'League Gothic';letter-spacing:0px;word-spacing:0px;fill:#000000;fill-opacity:1;stroke:none;stroke-width:0.26458299"
         id="path968"
         inkscape:connector-curvature="0" />
      <path
         d="m 105.31547,138.50566 c -0.0127,0.381 -0.0889,0.7239 -0.2286,1.016 -0.1143,0.254 -0.2921,0.4953 -0.5461,0.6858 -0.254,0.2032 -0.5969,0.3175 -1.0541,0.3175 -0.4572,0 -0.8128,-0.1143 -1.0668,-0.3175 -0.254,-0.1905 -0.4191,-0.4318 -0.5334,-0.6858 -0.1397,-0.2921 -0.2159,-0.635 -0.2286,-1.016 v -5.4991 c 0.0127,-0.3683 0.0889,-0.7112 0.2286,-1.0033 0.1143,-0.254 0.2794,-0.508 0.5334,-0.6985 0.254,-0.1905 0.6096,-0.3175 1.0668,-0.3175 0.4572,0 0.8001,0.127 1.0541,0.3175 0.254,0.1905 0.4318,0.4445 0.5461,0.6985 0.1397,0.2921 0.2159,0.635 0.2286,1.0033 z m -1.3716,-5.4991 c 0,-0.254 -0.0508,-0.4318 -0.1778,-0.5842 -0.0635,-0.0635 -0.1651,-0.1016 -0.2794,-0.1016 -0.2413,0 -0.3556,0.1778 -0.4064,0.3429 -0.0381,0.1016 -0.0508,0.2159 -0.0508,0.3429 v 5.4991 c 0,0.2667 0.0635,0.4445 0.1905,0.5842 0.0635,0.0635 0.1524,0.1016 0.2667,0.1016 0.2413,0 0.3556,-0.1524 0.4064,-0.3429 0.0381,-0.0889 0.0508,-0.2032 0.0508,-0.3429 z"
         style="font-style:normal;font-variant:normal;font-weight:normal;font-stretch:normal;font-size:12.69999981px;line-height:1.25;font-family:'League Gothic';-inkscape-font-specification:'League Gothic';letter-spacing:0px;word-spacing:0px;fill:#000000;fill-opacity:1;stroke:none;stroke-width:0.26458299"
         id="path970"
         inkscape:connector-curvature="0" />
    </g>
    <path
       inkscape:connector-curvature="0"
       id="path974"
       style="font-style:normal;font-variant:normal;font-weight:normal;font-stretch:normal;font-size:16.93330002px;line-height:1.25;font-family:'League Gothic';-inkscape-font-specification:'League Gothic';letter-spacing:0px;word-spacing:0px;fill:#000000;fill-opacity:1;stroke:none;stroke-width:0.23457083"
       d="m 81.8485,294.20908 c 0.348488,0.0408 0.614,-0.0271 0.813136,-0.24446 0.09957,-0.0951 0.149352,-0.25804 0.149352,-0.48892 v -7.9043 h 1.792224 v 8.13518 c 0,0.54325 -0.165944,1.04576 -0.580817,1.41245 -0.414863,0.36669 -1.111839,0.584 -2.173895,0.52966 z" />
    <path
       inkscape:connector-curvature="0"
       id="path976"
       style="font-style:normal;font-variant:normal;font-weight:normal;font-stretch:normal;font-size:16.93330002px;line-height:1.25;font-family:'League Gothic';-inkscape-font-specification:'League Gothic';letter-spacing:0px;word-spacing:0px;fill:#000000;fill-opacity:1;stroke:none;stroke-width:0.23457083"
       d="m 93.375864,293.22858 c 0,0.23089 -0.04978,0.48893 -0.149352,0.77414 -0.04978,0.14939 -0.132761,0.28521 -0.215726,0.43459 0.149352,0.16298 0.365078,0.29879 0.713566,0.35311 v 1.24947 c -1.01227,0 -1.526713,-0.3531 -1.842008,-0.77413 -0.24892,0.0679 -0.547624,0.12224 -0.896112,0.12224 -0.597408,0 -1.062055,-0.12224 -1.393951,-0.33954 -0.331897,-0.20371 -0.547625,-0.46175 -0.696977,-0.73337 -0.182544,-0.31237 -0.282113,-0.67907 -0.298704,-1.08651 v -5.88068 c 0.01656,-0.39386 0.11616,-0.76055 0.298704,-1.07291 0.149352,-0.27163 0.365079,-0.54327 0.696977,-0.74698 0.331896,-0.20372 0.796543,-0.33953 1.393951,-0.33953 0.597408,0 1.045464,0.13581 1.377361,0.33953 0.331886,0.20371 0.564215,0.47535 0.713567,0.74698 0.182545,0.31236 0.282113,0.67905 0.298704,1.07291 z M 91.58364,287.3479 c 0,-0.27163 -0.06635,-0.46176 -0.232329,-0.62473 -0.08301,-0.0679 -0.215727,-0.10866 -0.365079,-0.10866 -0.315295,0 -0.464647,0.19014 -0.531033,0.36668 -0.04978,0.10866 -0.06635,0.23089 -0.06635,0.3667 v 5.88069 c 0,0.2852 0.08301,0.47534 0.24892,0.62474 0.08301,0.0679 0.199136,0.10864 0.348488,0.10864 0.315296,0 0.464648,-0.16298 0.531033,-0.36668 0.04978,-0.0951 0.06635,-0.21731 0.06635,-0.3667 z" />
    <path
       inkscape:connector-curvature="0"
       id="path978"
       style="font-style:normal;font-variant:normal;font-weight:normal;font-stretch:normal;font-size:16.93330002px;line-height:1.25;font-family:'League Gothic';-inkscape-font-specification:'League Gothic';letter-spacing:0px;word-spacing:0px;fill:#000000;fill-opacity:1;stroke:none;stroke-width:0.23457083"
       d="m 98.190673,285.62307 v 3.49038 h 0.06635 l 0.08301,-0.16298 1.49352,-3.3274 H 101.576 l -1.642884,3.28666 1.858614,6.69557 h -1.74245 l -1.244607,-4.34601 -0.04978,-0.20372 h -0.04978 l -0.09957,0.20372 -0.414864,0.81487 v 3.53114 h -1.792224 v -9.98223 z" />
    <path
       d="m 0.94244439,308.30532 1.84200801,-9.98223 h 2.190496 l 1.842008,9.98223 h -1.74244 L 4.7426198,306.26813 H 3.016781 l -0.3318966,2.03719 z m 3.03682401,-6.73631 -0.049784,-0.25805 h -0.099568 l -0.049784,0.25805 -0.5144314,3.15085 h 1.2279988 z"
       style="font-style:normal;font-variant:normal;font-weight:normal;font-stretch:normal;font-size:16.93330002px;line-height:1.25;font-family:'League Gothic';-inkscape-font-specification:'League Gothic';letter-spacing:0px;word-spacing:0px;fill:#333333;fill-opacity:1;stroke:none;stroke-width:0.23457083"
       id="path980"
       inkscape:connector-curvature="0" />
    <path
       d="m 9.4329796,301.54184 v -0.69264 c 0,-0.66548 0.1161692,-1.31739 0.4646572,-1.79273 0.3484892,-0.47534 0.9458972,-0.78771 1.9249752,-0.78771 0.912713,0 1.526711,0.28521 1.891792,0.71981 0.365089,0.44819 0.49784,1.07291 0.49784,1.76556 0,1.0186 -0.464648,2.22733 -1.045464,3.35458 -0.597408,1.14082 -1.294384,2.15941 -1.759032,2.79774 h 2.837688 v 1.45319 H 9.3831956 v -1.45319 c 0.547624,-0.69266 1.0454644,-1.39887 1.4935214,-2.1051 0.38168,-0.59755 0.746758,-1.27663 1.02887,-1.96926 0.282113,-0.69266 0.49784,-1.37171 0.514432,-1.98286 0,-0.27162 -0.01656,-0.584 -0.09957,-0.81488 -0.08301,-0.23087 -0.232318,-0.40744 -0.497839,-0.40744 -0.24892,0 -0.398272,0.14939 -0.481239,0.3667 -0.08301,0.23088 -0.116168,0.52967 -0.116168,0.85561 v 0.69264 z"
       style="font-style:normal;font-variant:normal;font-weight:normal;font-stretch:normal;font-size:16.93330002px;line-height:1.25;font-family:'League Gothic';-inkscape-font-specification:'League Gothic';letter-spacing:0px;word-spacing:0px;fill:#333333;fill-opacity:1;stroke:none;stroke-width:0.23457083"
       id="path982"
       inkscape:connector-curvature="0" />
    <path
       d="m 18.861063,303.79638 v -1.22232 c 0.74676,-0.0408 1.095247,-0.16297 1.244599,-0.44818 0.08301,-0.13581 0.116169,-0.31237 0.116169,-0.52967 0,-0.21729 0,-0.48892 0,-0.8013 0,-0.28521 0,-0.59757 -0.06635,-0.85561 -0.06635,-0.25805 -0.215737,-0.43461 -0.497839,-0.43461 -0.215737,0 -0.348489,0.0814 -0.414874,0.33954 -0.08301,0.27163 -0.11616,0.69266 -0.11616,1.35811 h -1.75903 c 0,-0.55681 0.01656,-1.31736 0.315295,-1.92853 0.298704,-0.59759 0.846327,-1.05934 1.974769,-1.05934 1.128431,0 1.709247,0.47535 2.007951,0.97785 0.298704,0.50251 0.315295,1.04576 0.315295,1.16799 0,1.48035 -0.315295,2.18658 -0.86292,2.63476 l -0.01656,0.0135 c 0.86292,0.55683 1.028873,1.58901 1.028873,2.74341 0,0.0408 0,0.13581 -0.01656,0.2852 -0.01656,0.28521 -0.116169,0.70623 -0.298704,1.14083 -0.199136,0.43462 -0.531033,0.82846 -1.045464,1.05934 -0.265521,0.12223 -0.580817,0.17655 -0.962497,0.17655 -1.128431,0 -1.709248,-0.46175 -2.024543,-1.07292 -0.315305,-0.59757 -0.348488,-1.35812 -0.348488,-1.91495 h 1.759031 c 0,0.66548 0.04978,1.0865 0.149352,1.34456 0.09957,0.27163 0.24892,0.35311 0.464648,0.35311 0.282112,0 0.431464,-0.17655 0.49784,-0.42102 0.06635,-0.24446 0.06635,-0.55683 0.06635,-0.84202 0,-0.31237 0,-0.59758 0.01656,-0.85562 0,-0.48893 -0.11616,-0.82846 -0.49784,-1.03218 -0.199136,-0.0951 -0.49784,-0.16297 -0.879511,-0.17656 z"
       style="font-style:normal;font-variant:normal;font-weight:normal;font-stretch:normal;font-size:16.93330002px;line-height:1.25;font-family:'League Gothic';-inkscape-font-specification:'League Gothic';letter-spacing:0px;word-spacing:0px;fill:#333333;fill-opacity:1;stroke:none;stroke-width:0.23457083"
       id="path984"
       inkscape:connector-curvature="0" />
    <path
       d="M 27.832903,306.13231 H 25.06159 v -1.29021 l 2.621961,-6.51901 h 1.792224 v 6.51901 h 0.829735 v 1.29021 h -0.829735 v 2.17301 h -1.642872 z m -1.244599,-1.29021 h 1.244599 v -3.42248 h -0.09957 l -0.09957,0.29879 z"
       style="font-style:normal;font-variant:normal;font-weight:normal;font-stretch:normal;font-size:16.93330002px;line-height:1.25;font-family:'League Gothic';-inkscape-font-specification:'League Gothic';letter-spacing:0px;word-spacing:0px;fill:#333333;fill-opacity:1;stroke:none;stroke-width:0.23457083"
       id="path986"
       inkscape:connector-curvature="0" />
    <path
       d="m 36.165787,303.5247 c 0,-0.421 -0.182545,-0.73338 -0.564215,-0.73338 -0.199137,0 -0.365091,0.12222 -0.497841,0.27164 -0.132761,0.16296 -0.199136,0.35311 -0.199136,0.46175 h -1.510122 v -5.25593 h 4.331208 v 1.45318 h -2.787894 v 2.07793 c 0.199136,-0.12223 0.414864,-0.23087 0.663784,-0.29879 0.116159,-0.0408 0.24892,-0.0543 0.365079,-0.0408 0.929305,0 1.427145,0.4346 1.692656,0.90994 0.265511,0.47535 0.298704,0.99144 0.298704,1.15442 v 2.22733 c 0,0.47535 -0.03322,1.11366 -0.348488,1.64333 -0.315295,0.54324 -0.912703,0.96427 -1.99136,0.96427 -1.111839,0 -1.676065,-0.42103 -1.99136,-1.01859 -0.315304,-0.58399 -0.348488,-1.33096 -0.348488,-1.99645 h 1.792224 v 0.39387 c 0,0.50249 0.03322,0.85561 0.11617,1.04575 0.08301,0.20372 0.215727,0.29879 0.431455,0.29879 0.182545,0 0.331897,-0.0951 0.414863,-0.28521 0.08301,-0.19014 0.132761,-0.54325 0.132761,-1.04576 z"
       style="font-style:normal;font-variant:normal;font-weight:normal;font-stretch:normal;font-size:16.93330002px;line-height:1.25;font-family:'League Gothic';-inkscape-font-specification:'League Gothic';letter-spacing:0px;word-spacing:0px;fill:#333333;fill-opacity:1;stroke:none;stroke-width:0.23457083"
       id="path988"
       inkscape:connector-curvature="0" />
    <path
       d="m 45.892628,306.25455 c 0,0.23089 -0.03322,0.77413 -0.348489,1.24948 -0.315295,0.48892 -0.912703,0.90993 -1.991359,0.90993 -1.111839,0 -1.676065,-0.421 -1.99136,-0.90993 -0.315295,-0.47535 -0.348488,-1.01859 -0.348488,-1.24948 v -5.67697 c 0,-0.33953 0.01656,-0.95069 0.331897,-1.45319 0.315295,-0.48893 0.87951,-0.90995 2.007951,-0.90995 1.128441,0 1.692656,0.42102 2.007951,0.90995 0.315305,0.50251 0.331897,1.11367 0.331897,1.45319 v 0.62474 h -1.792225 c 0,-0.66548 -0.01656,-1.10007 -0.08301,-1.35811 -0.06635,-0.25805 -0.199137,-0.35312 -0.464648,-0.35312 -0.215738,0 -0.36509,0.0815 -0.431464,0.25805 -0.08301,0.17654 -0.116159,0.44818 -0.116159,0.82845 v 1.77914 c 0.315295,-0.14939 0.580806,-0.24445 0.896112,-0.24445 0.929293,0 1.427134,0.39385 1.692656,0.84202 0.265511,0.4482 0.298704,0.99145 0.298704,1.26306 z m -2.887472,0.43459 c 0,0.12224 0.132761,0.4482 0.547624,0.4482 0.381681,0 0.547623,-0.32596 0.547623,-0.4482 v -2.98786 c 0,-0.12224 -0.165943,-0.44819 -0.547623,-0.44819 -0.381682,0 -0.531034,0.25804 -0.547624,0.40743 z"
       style="font-style:normal;font-variant:normal;font-weight:normal;font-stretch:normal;font-size:16.93330002px;line-height:1.25;font-family:'League Gothic';-inkscape-font-specification:'League Gothic';letter-spacing:0px;word-spacing:0px;fill:#333333;fill-opacity:1;stroke:none;stroke-width:0.23457083"
       id="path990"
       inkscape:connector-curvature="0" />
    <path
       d="m 51.918857,299.77628 h -2.688336 v -1.45319 h 4.513752 v 1.46678 l -1.792224,8.51545 H 50.09345 Z"
       style="font-style:normal;font-variant:normal;font-weight:normal;font-stretch:normal;font-size:16.93330002px;line-height:1.25;font-family:'League Gothic';-inkscape-font-specification:'League Gothic';letter-spacing:0px;word-spacing:0px;fill:#333333;fill-opacity:1;stroke:none;stroke-width:0.23457083"
       id="path992"
       inkscape:connector-curvature="0" />
    <path
       d="m 61.811647,306.17307 c 0,0.0951 -0.01656,0.36669 -0.09957,0.69264 -0.08301,0.33953 -0.282113,0.71981 -0.630601,1.01859 -0.348489,0.29879 -0.87952,0.52967 -1.659464,0.52967 -0.779962,0 -1.310995,-0.23088 -1.659483,-0.52967 -0.348488,-0.29878 -0.547624,-0.67906 -0.630591,-1.01859 -0.08301,-0.32595 -0.09957,-0.59757 -0.09957,-0.69264 v -1.16799 c 0,-0.74698 0.315295,-1.49394 0.929294,-1.96929 -0.547624,-0.44819 -0.829727,-1.14083 -0.829727,-1.83347 v -0.84203 c 0,-0.12223 0.01656,-0.66548 0.315296,-1.16799 0.298704,-0.50251 0.846328,-0.97786 1.974778,-0.97786 1.128431,0 1.692657,0.47535 1.991361,0.97786 0.298704,0.5025 0.298704,1.04576 0.298704,1.16799 v 0.84203 c 0,0.69264 -0.282113,1.38528 -0.829738,1.83347 0.614001,0.47535 0.929305,1.22232 0.929305,1.96929 z m -1.858609,-5.2967 c 0,-0.46175 -0.03322,-0.80129 -0.08301,-1.03217 -0.06635,-0.23088 -0.215727,-0.33953 -0.448056,-0.33953 -0.199136,0 -0.331886,0.0951 -0.398282,0.29879 -0.149352,0.39385 -0.165943,1.7384 -0.03322,2.21374 0.04978,0.24446 0.199146,0.3667 0.431474,0.3667 0.232329,0 0.381681,-0.12224 0.448056,-0.3667 0.04978,-0.23088 0.08301,-0.61116 0.08301,-1.14083 z m 0.11617,4.7127 c 0,-0.59757 -0.03322,-1.04575 -0.08301,-1.33096 -0.06635,-0.28521 -0.24892,-0.43459 -0.564226,-0.43459 -0.315296,0 -0.497849,0.14938 -0.547634,0.43459 -0.132751,0.584 -0.116159,2.03718 0.04978,2.47179 0.08301,0.23088 0.24893,0.33953 0.497849,0.33953 0.315305,0 0.497841,-0.13582 0.564226,-0.39385 0.04978,-0.25805 0.08301,-0.62475 0.08301,-1.08651 z"
       style="font-style:normal;font-variant:normal;font-weight:normal;font-stretch:normal;font-size:16.93330002px;line-height:1.25;font-family:'League Gothic';-inkscape-font-specification:'League Gothic';letter-spacing:0px;word-spacing:0px;fill:#333333;fill-opacity:1;stroke:none;stroke-width:0.23457083"
       id="path994"
       inkscape:connector-curvature="0" />
    <path
       d="m 65.016782,300.37386 c 0,-0.23089 0.03322,-0.77413 0.348488,-1.26306 0.315296,-0.47535 0.879521,-0.89635 1.99136,-0.89635 1.078657,0 1.676065,0.421 1.99136,0.89635 0.315295,0.48893 0.348488,1.03218 0.348488,1.26306 v 5.67696 c 0,0.3667 -0.01656,0.9507 -0.331897,1.43962 -0.315295,0.5025 -0.87951,0.92352 -2.007951,0.92352 -1.128441,0 -1.692656,-0.421 -2.007951,-0.92352 -0.315306,-0.48892 -0.331897,-1.07292 -0.331897,-1.43962 v -0.62473 h 1.792224 c 0,0.66547 0.01656,1.10008 0.08301,1.35812 0.06635,0.25804 0.199136,0.35312 0.464647,0.35312 0.215728,0 0.36508,-0.0814 0.448056,-0.25805 0.06635,-0.17655 0.09957,-0.44818 0.09957,-0.82846 v -1.87421 c -0.315295,0.14939 -0.580816,0.24446 -0.896112,0.24446 -0.929294,0 -1.427134,-0.39386 -1.692656,-0.84203 -0.265511,-0.44819 -0.298704,-0.99145 -0.298704,-1.26306 z m 2.887472,-0.4346 c 0,-0.12224 -0.132761,-0.44819 -0.547624,-0.44819 -0.381681,0 -0.547624,0.32595 -0.547624,0.44819 v 2.89281 c 0,0.12223 0.165944,0.44818 0.547624,0.44818 0.381681,0 0.531033,-0.25803 0.547624,-0.40743 z"
       style="font-style:normal;font-variant:normal;font-weight:normal;font-stretch:normal;font-size:16.93330002px;line-height:1.25;font-family:'League Gothic';-inkscape-font-specification:'League Gothic';letter-spacing:0px;word-spacing:0px;fill:#333333;fill-opacity:1;stroke:none;stroke-width:0.23457083"
       id="path996"
       inkscape:connector-curvature="0" />
    <g
       transform="matrix(0.98,0,0,0.80204313,-24.783193,195.65378)"
       id="g1002"
       style="fill:#333333;fill-opacity:1">
      <path
         inkscape:connector-curvature="0"
         id="path998"
         style="font-style:normal;font-variant:normal;font-weight:normal;font-stretch:normal;font-size:12.34720039px;line-height:1.25;font-family:'League Gothic';-inkscape-font-specification:'League Gothic';letter-spacing:0px;word-spacing:0px;fill:#333333;fill-opacity:1;stroke:none;stroke-width:0.26458299"
         d="m 98.918068,129.90366 v -0.85195 c 0.555625,-0.11113 0.889,-0.39512 1.123602,-0.64206 0.12347,-0.14817 0.22225,-0.30868 0.29633,-0.46919 h 0.80257 v 9.07521 h -1.333502 v -7.11201 z" />
      <path
         inkscape:connector-curvature="0"
         id="path1000"
         style="font-style:normal;font-variant:normal;font-weight:normal;font-stretch:normal;font-size:12.69999981px;line-height:1.25;font-family:'League Gothic';-inkscape-font-specification:'League Gothic';letter-spacing:0px;word-spacing:0px;fill:#333333;fill-opacity:1;stroke:none;stroke-width:0.26458299"
         d="m 105.31547,138.50566 c -0.0127,0.381 -0.0889,0.7239 -0.2286,1.016 -0.1143,0.254 -0.2921,0.4953 -0.5461,0.6858 -0.254,0.2032 -0.5969,0.3175 -1.0541,0.3175 -0.4572,0 -0.8128,-0.1143 -1.0668,-0.3175 -0.254,-0.1905 -0.4191,-0.4318 -0.5334,-0.6858 -0.1397,-0.2921 -0.2159,-0.635 -0.2286,-1.016 v -5.4991 c 0.0127,-0.3683 0.0889,-0.7112 0.2286,-1.0033 0.1143,-0.254 0.2794,-0.508 0.5334,-0.6985 0.254,-0.1905 0.6096,-0.3175 1.0668,-0.3175 0.4572,0 0.8001,0.127 1.0541,0.3175 0.254,0.1905 0.4318,0.4445 0.5461,0.6985 0.1397,0.2921 0.2159,0.635 0.2286,1.0033 z m -1.3716,-5.4991 c 0,-0.254 -0.0508,-0.4318 -0.1778,-0.5842 -0.0635,-0.0635 -0.1651,-0.1016 -0.2794,-0.1016 -0.2413,0 -0.3556,0.1778 -0.4064,0.3429 -0.0381,0.1016 -0.0508,0.2159 -0.0508,0.3429 v 5.4991 c 0,0.2667 0.0635,0.4445 0.1905,0.5842 0.0635,0.0635 0.1524,0.1016 0.2667,0.1016 0.2413,0 0.3556,-0.1524 0.4064,-0.3429 0.0381,-0.0889 0.0508,-0.2032 0.0508,-0.3429 z" />
    </g>
    <path
       d="m 81.8485,306.90909 c 0.348488,0.0408 0.614,-0.0271 0.813136,-0.24446 0.09957,-0.0951 0.149352,-0.25804 0.149352,-0.48892 v -7.9043 h 1.792224 v 8.13518 c 0,0.54325 -0.165944,1.04576 -0.580817,1.41245 -0.414863,0.36669 -1.111839,0.584 -2.173895,0.52966 z"
       style="font-style:normal;font-variant:normal;font-weight:normal;font-stretch:normal;font-size:16.93330002px;line-height:1.25;font-family:'League Gothic';-inkscape-font-specification:'League Gothic';letter-spacing:0px;word-spacing:0px;fill:#333333;fill-opacity:1;stroke:none;stroke-width:0.23457083"
       id="path1004"
       inkscape:connector-curvature="0" />
    <path
       d="m 93.375864,305.9286 c 0,0.23089 -0.04978,0.48893 -0.149352,0.77414 -0.04978,0.14939 -0.132761,0.28521 -0.215726,0.43459 0.149352,0.16298 0.365078,0.29879 0.713566,0.35311 v 1.24947 c -1.01227,0 -1.526713,-0.3531 -1.842008,-0.77413 -0.24892,0.0679 -0.547624,0.12224 -0.896112,0.12224 -0.597408,0 -1.062055,-0.12224 -1.393951,-0.33954 -0.331897,-0.20371 -0.547625,-0.46175 -0.696977,-0.73337 -0.182544,-0.31237 -0.282113,-0.67907 -0.298704,-1.08651 v -5.88068 c 0.01656,-0.39386 0.11616,-0.76055 0.298704,-1.07291 0.149352,-0.27163 0.365079,-0.54327 0.696977,-0.74698 0.331896,-0.20372 0.796543,-0.33953 1.393951,-0.33953 0.597408,0 1.045464,0.13581 1.377361,0.33953 0.331886,0.20371 0.564215,0.47535 0.713567,0.74698 0.182545,0.31236 0.282113,0.67905 0.298704,1.07291 z m -1.792224,-5.88068 c 0,-0.27163 -0.06635,-0.46176 -0.232329,-0.62473 -0.08301,-0.0679 -0.215727,-0.10866 -0.365079,-0.10866 -0.315295,0 -0.464647,0.19014 -0.531033,0.36668 -0.04978,0.10866 -0.06635,0.23089 -0.06635,0.3667 v 5.88069 c 0,0.2852 0.08301,0.47534 0.24892,0.62474 0.08301,0.0679 0.199136,0.10864 0.348488,0.10864 0.315296,0 0.464648,-0.16298 0.531033,-0.36668 0.04978,-0.0951 0.06635,-0.21731 0.06635,-0.3667 z"
       style="font-style:normal;font-variant:normal;font-weight:normal;font-stretch:normal;font-size:16.93330002px;line-height:1.25;font-family:'League Gothic';-inkscape-font-specification:'League Gothic';letter-spacing:0px;word-spacing:0px;fill:#333333;fill-opacity:1;stroke:none;stroke-width:0.23457083"
       id="path1006"
       inkscape:connector-curvature="0" />
    <path
       d="m 98.190681,298.32309 v 3.49038 h 0.06635 l 0.08301,-0.16298 1.49352,-3.3274 H 101.576 l -1.642871,3.28666 1.858601,6.69557 h -1.74244 l -1.244601,-4.34601 -0.04978,-0.20372 h -0.04978 l -0.09957,0.20372 -0.414864,0.81487 v 3.53114 h -1.792224 v -9.98223 z"
       style="font-style:normal;font-variant:normal;font-weight:normal;font-stretch:normal;font-size:16.93330002px;line-height:1.25;font-family:'League Gothic';-inkscape-font-specification:'League Gothic';letter-spacing:0px;word-spacing:0px;fill:#333333;fill-opacity:1;stroke:none;stroke-width:0.23457083"
       id="path1008"
       inkscape:connector-curvature="0" />
  </g>
</svg>
