<?xml version="1.0" encoding="UTF-8" standalone="no"?>
<svg
   xmlns:dc="http://purl.org/dc/elements/1.1/"
   xmlns:cc="http://creativecommons.org/ns#"
   xmlns:rdf="http://www.w3.org/1999/02/22-rdf-syntax-ns#"
   xmlns:svg="http://www.w3.org/2000/svg"
   xmlns="http://www.w3.org/2000/svg"
   xmlns:sodipodi="http://sodipodi.sourceforge.net/DTD/sodipodi-0.dtd"
   xmlns:inkscape="http://www.inkscape.org/namespaces/inkscape"
   width="1080"
   height="576"
   viewBox="0 0 285.74988 152.39999"
   version="1.1"
   id="svg8"
   sodipodi:docname="Cards.svg"
   inkscape:version="1.0 (4035a4f, 2020-05-01)"
   inkscape:export-filename="/Users/lachlan/Documents/pixitest1/build/assets/Cards.png"
   inkscape:export-xdpi="96"
   inkscape:export-ydpi="96">
  <defs
     id="defs2" />
  <sodipodi:namedview
     id="base"
     pagecolor="#ffffff"
     bordercolor="#666666"
     borderopacity="1.0"
     inkscape:pageopacity="0.0"
     inkscape:pageshadow="2"
     inkscape:zoom="3.666935"
     inkscape:cx="68.491274"
     inkscape:cy="539.09708"
     inkscape:document-units="mm"
     inkscape:current-layer="layer1"
     showgrid="true"
     showguides="false"
     inkscape:guide-bbox="true"
     inkscape:snap-global="true"
     fit-margin-top="0"
     fit-margin-left="0"
     fit-margin-right="0"
     fit-margin-bottom="0"
     inkscape:window-width="1440"
     inkscape:window-height="874"
     inkscape:window-x="0"
     inkscape:window-y="26"
     inkscape:window-maximized="0"
     units="px"
     inkscape:document-rotation="0">
    <sodipodi:guide
       position="27.81315,169.66963"
       orientation="0,1"
       id="guide3807"
       inkscape:locked="false" />
    <sodipodi:guide
       position="38.212049,159.42824"
       orientation="0,1"
       id="guide3809"
       inkscape:locked="false" />
    <inkscape:grid
       type="xygrid"
       id="grid3919"
       originx="0"
       spacingx="7.9374997"
       empcolor="#3f3fff"
       empopacity="0.41960784"
       empspacing="1"
       spacingy="12.699997"
       snapvisiblegridlinesonly="true"
       dotted="false"
       originy="0" />
  </sodipodi:namedview>
  <metadata
     id="metadata5">
    <rdf:RDF>
      <cc:Work
         rdf:about="">
        <dc:format>image/svg+xml</dc:format>
        <dc:type
           rdf:resource="http://purl.org/dc/dcmitype/StillImage" />
        <dc:title></dc:title>
      </cc:Work>
    </rdf:RDF>
  </metadata>
  <g
     inkscape:label="Layer 1"
     inkscape:groupmode="layer"
     id="layer1"
     transform="translate(0,-246.20002)">
    <rect
       style="fill:#00ff00;fill-opacity:0.187817;stroke:#ff00ff;stroke-width:0.512;stroke-linecap:butt;stroke-linejoin:bevel;stroke-miterlimit:4;stroke-dasharray:none"
       id="rect7685"
       width="30.503914"
       height="24.566921"
       x="0.72153813"
       y="373.60013"
       ry="1.9064626"
       rx="1.9064626" />
    <rect
       style="fill:#999999;fill-opacity:1;stroke:#000000;stroke-width:0.501574;stroke-linecap:butt;stroke-linejoin:bevel;stroke-miterlimit:4;stroke-dasharray:none"
       id="rect3921"
       width="29.893835"
       height="24.075583"
       x="64.526573"
       y="246.8459"
       ry="1.8683333"
       rx="1.8683333" />
    <path
       inkscape:connector-curvature="0"
       id="path3733"
       style="font-style:normal;font-variant:normal;font-weight:normal;font-stretch:normal;font-size:16.9333px;line-height:1.25;font-family:NoCurvesBoustrophedon;-inkscape-font-specification:NoCurvesBoustrophedon;letter-spacing:0px;word-spacing:0px;fill:#000000;fill-opacity:1;stroke:none;stroke-width:0.465646"
       d="m 39.397575,248.39256 q 0.319064,1.86348 0.981746,3.33012 0.662678,1.46664 2.356196,3.64072 1.705782,2.1568 2.15984,3.31286 0.45406,1.15606 0.45406,2.34664 0,1.65644 -0.785402,2.76072 -0.785394,1.1043 -1.914402,1.1043 -0.957206,0 -1.742604,-0.82824 -0.773124,-0.84546 -1.374442,-2.45014 0.0124,2.53642 0.466328,4.03758 0.46633,1.48388 1.472618,2.34662 1.018564,0.84548 2.699804,1.00078 l 0.08592,0.6384 h -9.731566 l 0.09818,-0.6384 q 2.258014,0 3.497472,-1.84624 1.251724,-1.8635 1.202642,-5.53874 -0.552234,1.6392 -1.374448,2.4674 -0.809944,0.81098 -1.840776,0.81098 -1.104462,0 -1.902136,-1.12158 -0.785394,-1.12152 -0.785394,-2.6917 0,-1.25958 0.404968,-2.2776 0.552234,-1.41486 1.791688,-2.84698 1.239452,-1.43216 1.828502,-2.3639 0.895844,-1.4321 1.300816,-2.55366 0.417238,-1.12152 0.650404,-2.63994 z" />
    <path
       inkscape:connector-curvature="0"
       id="path3735"
       style="font-style:normal;font-variant:normal;font-weight:normal;font-stretch:normal;font-size:16.9333px;line-height:1.25;font-family:NoCurvesBoustrophedon;-inkscape-font-specification:NoCurvesBoustrophedon;letter-spacing:0px;word-spacing:0px;fill:#333333;fill-opacity:1;stroke:none;stroke-width:0.42617"
       d="m 60.142723,269.63292 h -8.716812 l 0.08224,-0.58664 q 1.69608,-0.60392 2.25116,-1.19058 0.832618,-0.87998 1.35686,-2.60542 0.534524,-1.72546 0.534524,-3.6407 0,-0.27608 -0.0104,-0.79372 -0.627038,2.13958 -1.531614,3.12308 -0.894296,0.98346 -1.829708,0.98346 -1.192394,0 -2.025014,-1.3976 -0.832622,-1.3976 -0.832622,-3.43362 0,-2.00154 0.760668,-3.36464 0.760666,-1.38038 1.726918,-1.38038 0.616752,0 1.675516,0.88 -0.431728,-1.20784 -0.565358,-1.81176 -0.12334,-0.62114 -0.12334,-1.32858 0,-1.96704 0.812064,-3.33012 0.81206,-1.36312 2.025012,-1.36312 1.212952,0 2.035294,1.36312 0.83262,1.36308 0.83262,3.24386 0,1.53564 -0.70927,3.2266 0.863456,-0.69018 1.038204,-0.77646 0.27754,-0.138 0.627034,-0.138 1.027928,0 1.778304,1.36312 0.76067,1.34584 0.76067,3.3474 0,2.07056 -0.832616,3.4854 -0.822342,1.39766 -1.983896,1.39766 -0.647594,0 -1.336308,-0.51766 -0.678428,-0.53492 -1.18211,-1.41488 -0.359774,-0.63842 -0.894296,-2.15682 0.0411,2.74346 0.493404,4.34814 0.462564,1.58744 1.408258,2.63996 0.637316,0.70744 2.292274,1.24232 z" />
    <path
       inkscape:connector-curvature="0"
       id="path3737"
       style="font-style:normal;font-variant:normal;font-weight:normal;font-stretch:normal;font-size:16.9333px;line-height:1.25;font-family:NoCurvesBoustrophedon;-inkscape-font-specification:NoCurvesBoustrophedon;letter-spacing:0px;word-spacing:0px;fill:#c83737;fill-opacity:1;stroke:none;stroke-width:0.465646"
       d="m 7.7973893,269.83998 q -0.380428,-2.03602 -1.092194,-3.81326 -0.699492,-1.79448 -2.724346,-5.55596 -1.484892,-2.76074 -1.828502,-3.50268 -0.564504,-1.20784 -0.822212,-2.20858 -0.245438,-1.01804 -0.245438,-2.0533 0,-1.91526 0.908116,-3.20934 0.908116,-1.2941 2.245746,-1.2941 1.349898,0 2.34392,1.34586 0.748582,1.00076 1.21491,2.98506 0.40497,-1.94978 1.14128,-2.96782 1.018562,-1.38036 2.3561897,-1.38036 1.325356,0 2.245744,1.2941 0.92039,1.27684 0.92039,3.05408 0,1.5529 -0.539964,3.24384 -0.539962,1.67366 -2.086208,4.3999 -2.0125837,3.57168 -2.9329737,5.86656 -0.724038,1.8117 -1.104458,3.796 z" />
    <path
       inkscape:connector-curvature="0"
       id="path3739"
       style="font-style:normal;font-variant:normal;font-weight:normal;font-stretch:normal;font-size:16.9333px;line-height:1.25;font-family:NoCurvesBoustrophedon;-inkscape-font-specification:NoCurvesBoustrophedon;letter-spacing:0px;word-spacing:0px;fill:#800000;fill-opacity:1;stroke:none;stroke-width:0.465646"
       d="m 23.554539,248.1855 q 1.09219,2.6054 2.687532,5.59048 1.84078,3.4509 2.969782,5.22814 -0.90812,1.34584 -2.969782,5.21086 -1.668972,3.14032 -2.675256,5.625 -0.33135,-0.89724 -0.90812,-2.08782 -0.994016,-2.07054 -2.466642,-4.814 -0.319066,-0.60394 -2.245744,-3.93404 1.239454,-1.9843 3.190678,-5.65952 1.448076,-2.72622 2.417552,-5.1591 z" />
    <path
       inkscape:connector-curvature="0"
       id="path3760"
       style="font-style:normal;font-variant:normal;font-weight:normal;font-stretch:normal;font-size:16.9333px;line-height:1.25;font-family:'League Gothic';-inkscape-font-specification:'League Gothic';letter-spacing:0px;word-spacing:0px;fill:#c83737;fill-opacity:1;stroke:none;stroke-width:0.469142"
       d="m 1.8983343,294.1316 3.684016,-19.96446 h 4.380992 l 3.6840137,19.96446 h -3.484878 l -0.6637867,-4.07438 h -3.451692 l -0.663785,4.07438 z m 6.073648,-13.47262 -0.09957,-0.5161 h -0.199136 l -0.09957,0.5161 -1.028871,6.3017 h 2.456012 z" />
    <path
       inkscape:connector-curvature="0"
       id="path3762"
       style="font-style:normal;font-variant:normal;font-weight:normal;font-stretch:normal;font-size:16.9333px;line-height:1.25;font-family:'League Gothic';-inkscape-font-specification:'League Gothic';letter-spacing:0px;word-spacing:0px;fill:#c83737;fill-opacity:1;stroke:none;stroke-width:0.23457"
       d="m 21.260743,282.37702 v -0.69266 c 0,-0.66546 0.11616,-1.31738 0.46465,-1.79272 0.348488,-0.47534 0.945896,-0.78772 1.924982,-0.78772 0.912706,0 1.526708,0.28522 1.891792,0.71982 0.365082,0.44818 0.49784,1.07292 0.49784,1.76556 0,1.0186 -0.464652,2.22732 -1.045464,3.35458 -0.597408,1.14082 -1.294384,2.15942 -1.759036,2.79774 h 2.837688 v 1.4532 h -4.862236 v -1.4532 c 0.547624,-0.69266 1.045464,-1.39886 1.49352,-2.1051 0.381676,-0.59756 0.746758,-1.27664 1.028866,-1.96928 0.28211,-0.69264 0.49784,-1.37172 0.514436,-1.98286 0,-0.27162 -0.0166,-0.584 -0.09956,-0.81488 -0.08298,-0.23088 -0.232326,-0.40744 -0.497838,-0.40744 -0.24892,0 -0.398272,0.1494 -0.481246,0.3667 -0.08298,0.23088 -0.11616,0.52966 -0.11616,0.85562 v 0.69264 z" />
    <path
       inkscape:connector-curvature="0"
       id="path3764"
       style="font-style:normal;font-variant:normal;font-weight:normal;font-stretch:normal;font-size:16.9333px;line-height:1.25;font-family:'League Gothic';-inkscape-font-specification:'League Gothic';letter-spacing:0px;word-spacing:0px;fill:#c83737;fill-opacity:1;stroke:none;stroke-width:0.248646"
       d="m 38.570215,284.66046 v -1.29566 c 0.791566,-0.0432 1.160962,-0.1728 1.319276,-0.47508 0.08796,-0.144 0.12314,-0.33112 0.12314,-0.56146 0,-0.23032 0,-0.51824 0,-0.84936 0,-0.30234 0,-0.63344 -0.07036,-0.90696 -0.07036,-0.27352 -0.228674,-0.46066 -0.52771,-0.46066 -0.228674,0 -0.369398,0.0862 -0.439758,0.3599 -0.08796,0.28792 -0.12314,0.7342 -0.12314,1.4396 h -1.864576 c 0,-0.59024 0.0176,-1.39642 0.334216,-2.04424 0.316626,-0.63344 0.897108,-1.1229 2.093252,-1.1229 1.196144,0 1.811806,0.50388 2.128432,1.03652 0.316626,0.53264 0.334216,1.1085 0.334216,1.23806 0,1.56918 -0.334216,2.3178 -0.914698,2.79286 l -0.0176,0.014 c 0.914698,0.59024 1.090602,1.68434 1.090602,2.90802 0,0.0432 0,0.144 -0.0176,0.3023 -0.0176,0.30234 -0.12314,0.74862 -0.316626,1.20928 -0.211084,0.4607 -0.56289,0.87816 -1.108192,1.1229 -0.281444,0.1296 -0.615662,0.1872 -1.02024,0.1872 -1.196144,0 -1.811806,-0.48948 -2.146022,-1.1373 -0.334216,-0.63342 -0.369398,-1.4396 -0.369398,-2.02986 h 1.864578 c 0,0.70542 0.05276,1.1517 0.15832,1.42524 0.10554,0.28792 0.263856,0.37428 0.49253,0.37428 0.299036,0 0.45735,-0.1872 0.527712,-0.44628 0.07036,-0.25912 0.07036,-0.59024 0.07036,-0.89254 0,-0.3311 0,-0.63342 0.0176,-0.90694 0,-0.51828 -0.12314,-0.87818 -0.52771,-1.09412 -0.211086,-0.1008 -0.527712,-0.1728 -0.93229,-0.1872 z" />
    <path
       inkscape:connector-curvature="0"
       id="path3766"
       style="font-style:normal;font-variant:normal;font-weight:normal;font-stretch:normal;font-size:16.9333px;line-height:1.25;font-family:'League Gothic';-inkscape-font-specification:'League Gothic';letter-spacing:0px;word-spacing:0px;fill:#c83737;fill-opacity:1;stroke:none;stroke-width:0.26272"
       d="m 55.547817,287.30564 h -3.103866 v -1.44502 l 2.93659,-7.3013 h 2.007292 v 7.3013 h 0.929302 v 1.44502 h -0.929302 v 2.43378 h -1.840016 z m -1.393952,-1.44502 h 1.393952 v -3.83318 h -0.11152 l -0.11152,0.33464 z" />
    <path
       inkscape:connector-curvature="0"
       id="path3768"
       style="font-style:normal;font-variant:normal;font-weight:normal;font-stretch:normal;font-size:16.9333px;line-height:1.25;font-family:'League Gothic';-inkscape-font-specification:'League Gothic';letter-spacing:0px;word-spacing:0px;fill:#c83737;fill-opacity:1;stroke:none;stroke-width:0.276794"
       d="m 71.895965,284.39776 c 0,-0.49678 -0.215404,-0.8654 -0.665774,-0.8654 -0.23498,0 -0.430806,0.1442 -0.587452,0.32052 -0.15666,0.1924 -0.23498,0.41668 -0.23498,0.54488 h -1.781942 v -6.202 h 5.110824 v 1.71478 h -3.289716 v 2.45194 c 0.234982,-0.1442 0.48954,-0.27242 0.783266,-0.35256 0.13706,-0.0482 0.293726,-0.064 0.430794,-0.0482 1.09658,0 1.684032,0.5128 1.997334,1.07372 0.313304,0.5609 0.352472,1.1699 0.352472,1.3622 v 2.62824 c 0,0.56092 -0.0392,1.31414 -0.411216,1.93916 -0.372048,0.641 -1.07699,1.13782 -2.349806,1.13782 -1.31197,0 -1.977756,-0.49682 -2.349804,-1.20194 -0.372048,-0.68912 -0.411216,-1.57054 -0.411216,-2.35582 h 2.114822 v 0.46476 c 0,0.59294 0.0392,1.00962 0.13708,1.234 0.09796,0.2404 0.25456,0.35258 0.509118,0.35258 0.215402,0 0.391638,-0.1122 0.489538,-0.33656 0.09796,-0.22436 0.15666,-0.64102 0.15666,-1.234 z" />
    <path
       inkscape:connector-curvature="0"
       id="path3770"
       style="font-style:normal;font-variant:normal;font-weight:normal;font-stretch:normal;font-size:16.9333px;line-height:1.25;font-family:'League Gothic';-inkscape-font-specification:'League Gothic';letter-spacing:0px;word-spacing:0px;fill:#c83737;fill-opacity:1;stroke:none;stroke-width:0.290868"
       d="m 90.020417,287.79538 c 0,0.2863 -0.0412,0.95992 -0.432126,1.54936 -0.390966,0.60628 -1.131752,1.12832 -2.469286,1.12832 -1.37868,0 -2.07832,-0.52204 -2.469286,-1.12832 -0.390966,-0.58944 -0.432126,-1.26306 -0.432126,-1.54936 v -7.03942 c 0,-0.42102 0.02054,-1.17886 0.411552,-1.80198 0.390966,-0.60626 1.090594,-1.1283 2.48986,-1.1283 1.399266,0 2.098894,0.52204 2.48986,1.1283 0.390978,0.62312 0.411552,1.38098 0.411552,1.80198 v 0.77466 h -2.22236 c 0,-0.82518 -0.02054,-1.3641 -0.10294,-1.68406 -0.08228,-0.31998 -0.24693,-0.43788 -0.576164,-0.43788 -0.267514,0 -0.452712,0.101 -0.535014,0.32 -0.10294,0.2189 -0.14404,0.55572 -0.14404,1.02728 v 2.20612 c 0.390966,-0.1852 0.7202,-0.30312 1.111178,-0.30312 1.152324,0 1.769648,0.48838 2.098894,1.04412 0.329234,0.55576 0.370394,1.22938 0.370394,1.56618 z m -3.580466,0.5389 c 0,0.1516 0.16462,0.55576 0.679054,0.55576 0.473284,0 0.679052,-0.40418 0.679052,-0.55576 v -3.70494 c 0,-0.1516 -0.205768,-0.55576 -0.679052,-0.55576 -0.473286,0 -0.658482,0.31998 -0.679054,0.50522 z" />
    <path
       inkscape:connector-curvature="0"
       id="path3772"
       style="font-style:normal;font-variant:normal;font-weight:normal;font-stretch:normal;font-size:16.9333px;line-height:1.25;font-family:'League Gothic';-inkscape-font-specification:'League Gothic';letter-spacing:0px;word-spacing:0px;fill:#c83737;fill-opacity:1;stroke:none;stroke-width:0.304942"
       d="m 103.54914,279.55006 h -3.49483 v -1.88914 h 5.86787 v 1.90682 l -2.32989,11.07008 h -2.41617 z" />
    <path
       inkscape:connector-curvature="0"
       id="path3774"
       style="font-style:normal;font-variant:normal;font-weight:normal;font-stretch:normal;font-size:16.9333px;line-height:1.25;font-family:'League Gothic';-inkscape-font-specification:'League Gothic';letter-spacing:0px;word-spacing:0px;fill:#c83737;fill-opacity:1;stroke:none;stroke-width:0.3284"
       d="m 122.20295,288.15178 c 0,0.1332 -0.0232,0.51336 -0.1394,0.9697 -0.11622,0.47534 -0.39496,1.00774 -0.88284,1.42602 -0.48789,0.4183 -1.23133,0.74154 -2.32325,0.74154 -1.09194,0 -1.83538,-0.32324 -2.32326,-0.74154 -0.48789,-0.41828 -0.76668,-0.95068 -0.88283,-1.42602 -0.11622,-0.45634 -0.1394,-0.8366 -0.1394,-0.9697 v -1.6352 c 0,-1.04578 0.44141,-2.0915 1.30101,-2.757 -0.76667,-0.62746 -1.16161,-1.59716 -1.16161,-2.56686 v -1.17884 c 0,-0.1712 0.0232,-0.93166 0.44141,-1.6352 0.41818,-0.7035 1.18486,-1.36898 2.76468,-1.36898 1.5798,0 2.36971,0.66548 2.7879,1.36898 0.41818,0.7035 0.41818,1.46408 0.41818,1.6352 v 1.17884 c 0,0.9697 -0.39495,1.93938 -1.16163,2.56686 0.8596,0.6655 1.30103,1.71126 1.30103,2.757 z m -2.60205,-7.41538 c 0,-0.64644 -0.0465,-1.1218 -0.11622,-1.44504 -0.0929,-0.32322 -0.30202,-0.47534 -0.62728,-0.47534 -0.27879,0 -0.46464,0.1332 -0.55758,0.4183 -0.20909,0.5514 -0.23232,2.43376 -0.0465,3.09924 0.0697,0.34224 0.27879,0.51338 0.60405,0.51338 0.32526,0 0.53435,-0.1712 0.62728,-0.51338 0.0697,-0.32322 0.11622,-0.85562 0.11622,-1.59716 z m 0.16264,6.59778 c 0,-0.8366 -0.0465,-1.46408 -0.11622,-1.86334 -0.0929,-0.3993 -0.34849,-0.60842 -0.78992,-0.60842 -0.44141,0 -0.69698,0.20912 -0.76667,0.60842 -0.18586,0.8176 -0.16262,2.85204 0.0697,3.4605 0.11622,0.32324 0.34849,0.47534 0.69697,0.47534 0.44143,0 0.69698,-0.1902 0.78992,-0.55138 0.0697,-0.36128 0.11622,-0.87466 0.11622,-1.52112 z" />
    <path
       inkscape:connector-curvature="0"
       id="path3776"
       style="font-style:normal;font-variant:normal;font-weight:normal;font-stretch:normal;font-size:16.9333px;line-height:1.25;font-family:'League Gothic';-inkscape-font-specification:'League Gothic';letter-spacing:0px;word-spacing:0px;fill:#c83737;fill-opacity:1;stroke:none;stroke-width:0.351856"
       d="m 131.21693,279.73886 c 0,-0.34634 0.0498,-1.16118 0.52273,-1.89458 0.47295,-0.71302 1.31928,-1.34454 2.98704,-1.34454 1.61799,0 2.5141,0.63152 2.98704,1.34454 0.47294,0.7334 0.52273,1.54826 0.52273,1.89458 v 8.51544 c 0,0.55006 -0.0248,1.42606 -0.49784,2.15942 -0.47294,0.75376 -1.31927,1.3853 -3.01193,1.3853 -1.69266,0 -2.53898,-0.63152 -3.01192,-1.3853 -0.47296,-0.73336 -0.49785,-1.60936 -0.49785,-2.15942 v -0.93712 h 2.68834 c 0,0.99822 0.0248,1.65012 0.12452,2.03718 0.0995,0.38706 0.2987,0.52968 0.69697,0.52968 0.32359,0 0.54762,-0.122 0.67208,-0.38706 0.0995,-0.26482 0.14936,-0.67228 0.14936,-1.24268 v -2.81134 c -0.47294,0.22408 -0.87122,0.36668 -1.34417,0.36668 -1.39394,0 -2.1407,-0.59078 -2.53898,-1.26302 -0.39827,-0.6723 -0.44806,-1.48718 -0.44806,-1.89458 z m 4.33121,-0.6519 c 0,-0.1834 -0.19914,-0.67228 -0.82144,-0.67228 -0.57252,0 -0.82143,0.48894 -0.82143,0.67228 v 4.33922 c 0,0.1834 0.24891,0.67228 0.82143,0.67228 0.57252,0 0.79655,-0.38706 0.82144,-0.61116 z" />
    <g
       id="g3805"
       transform="matrix(1.568,0,0,1.283269,-9.5231729,111.89268)"
       style="fill:#c83737;fill-opacity:1">
      <path
         d="m 98.918068,129.90366 v -0.85195 c 0.555625,-0.11113 0.889,-0.39512 1.123602,-0.64206 0.12347,-0.14817 0.22225,-0.30868 0.29633,-0.46919 h 0.80257 v 9.07521 h -1.333502 v -7.11201 z"
         style="font-style:normal;font-variant:normal;font-weight:normal;font-stretch:normal;font-size:12.3472px;line-height:1.25;font-family:'League Gothic';-inkscape-font-specification:'League Gothic';letter-spacing:0px;word-spacing:0px;fill:#c83737;fill-opacity:1;stroke:none;stroke-width:0.264583"
         id="path3778"
         inkscape:connector-curvature="0" />
      <path
         d="m 105.31547,138.50566 c -0.0127,0.381 -0.0889,0.7239 -0.2286,1.016 -0.1143,0.254 -0.2921,0.4953 -0.5461,0.6858 -0.254,0.2032 -0.5969,0.3175 -1.0541,0.3175 -0.4572,0 -0.8128,-0.1143 -1.0668,-0.3175 -0.254,-0.1905 -0.4191,-0.4318 -0.5334,-0.6858 -0.1397,-0.2921 -0.2159,-0.635 -0.2286,-1.016 v -5.4991 c 0.0127,-0.3683 0.0889,-0.7112 0.2286,-1.0033 0.1143,-0.254 0.2794,-0.508 0.5334,-0.6985 0.254,-0.1905 0.6096,-0.3175 1.0668,-0.3175 0.4572,0 0.8001,0.127 1.0541,0.3175 0.254,0.1905 0.4318,0.4445 0.5461,0.6985 0.1397,0.2921 0.2159,0.635 0.2286,1.0033 z m -1.3716,-5.4991 c 0,-0.254 -0.0508,-0.4318 -0.1778,-0.5842 -0.0635,-0.0635 -0.1651,-0.1016 -0.2794,-0.1016 -0.2413,0 -0.3556,0.1778 -0.4064,0.3429 -0.0381,0.1016 -0.0508,0.2159 -0.0508,0.3429 v 5.4991 c 0,0.2667 0.0635,0.4445 0.1905,0.5842 0.0635,0.0635 0.1524,0.1016 0.2667,0.1016 0.2413,0 0.3556,-0.1524 0.4064,-0.3429 0.0381,-0.0889 0.0508,-0.2032 0.0508,-0.3429 z"
         style="font-style:normal;font-variant:normal;font-weight:normal;font-stretch:normal;font-size:12.7px;line-height:1.25;font-family:'League Gothic';-inkscape-font-specification:'League Gothic';letter-spacing:0px;word-spacing:0px;fill:#c83737;fill-opacity:1;stroke:none;stroke-width:0.264583"
         id="path3780"
         inkscape:connector-curvature="0" />
    </g>
    <path
       inkscape:connector-curvature="0"
       id="path3782"
       style="font-style:normal;font-variant:normal;font-weight:normal;font-stretch:normal;font-size:16.9333px;line-height:1.25;font-family:'League Gothic';-inkscape-font-specification:'League Gothic';letter-spacing:0px;word-spacing:0px;fill:#c83737;fill-opacity:1;stroke:none;stroke-width:0.39877"
       d="m 164.12365,290.2607 c 0.59243,0.0694 1.0438,-0.046 1.38234,-0.4156 0.16928,-0.1616 0.25389,-0.43866 0.25389,-0.83116 v -13.4373 h 3.04679 v 13.8298 c 0,0.92352 -0.28211,1.7778 -0.98739,2.40116 -0.70527,0.62338 -1.89013,0.9928 -3.69563,0.90042 z" />
    <path
       inkscape:connector-curvature="0"
       id="path3784"
       style="font-style:normal;font-variant:normal;font-weight:normal;font-stretch:normal;font-size:16.9333px;line-height:1.25;font-family:'League Gothic';-inkscape-font-specification:'League Gothic';letter-spacing:0px;word-spacing:0px;fill:#c83737;fill-opacity:1;stroke:none;stroke-width:0.422228"
       d="m 186.3221,288.85528 c 0,0.4156 -0.0896,0.88008 -0.26883,1.39346 -0.0896,0.2689 -0.23897,0.51338 -0.38831,0.78226 0.26883,0.29336 0.65714,0.53782 1.28442,0.6356 v 2.24904 c -1.82209,0 -2.74808,-0.63558 -3.31562,-1.39344 -0.44805,0.1222 -0.98572,0.22004 -1.613,0.22004 -1.07533,0 -1.9117,-0.22004 -2.50911,-0.61118 -0.59741,-0.36668 -0.98572,-0.83114 -1.25456,-1.32006 -0.32858,-0.56226 -0.5078,-1.22232 -0.53766,-1.95572 v -10.58522 c 0.0298,-0.70896 0.20908,-1.369 0.53766,-1.93124 0.26884,-0.48894 0.65714,-0.97788 1.25456,-1.34456 0.59741,-0.3667 1.43378,-0.61116 2.50911,-0.61116 1.07534,0 1.88184,0.24446 2.47925,0.61116 0.5974,0.36668 1.01559,0.85562 1.28442,1.34456 0.32858,0.56224 0.50781,1.22228 0.53767,1.93124 z m -3.226,-10.58522 c 0,-0.48894 -0.11942,-0.83118 -0.4182,-1.12452 -0.14942,-0.1222 -0.3883,-0.1956 -0.65714,-0.1956 -0.56753,0 -0.83636,0.34224 -0.95586,0.66002 -0.0896,0.1956 -0.11942,0.4156 -0.11942,0.66006 v 10.58524 c 0,0.51336 0.14942,0.85562 0.44806,1.12454 0.14942,0.1222 0.35844,0.1956 0.62728,0.1956 0.56753,0 0.83636,-0.29336 0.95586,-0.66002 0.0896,-0.1712 0.11942,-0.39116 0.11942,-0.66006 z" />
    <path
       inkscape:connector-curvature="0"
       id="path3786"
       style="font-style:normal;font-variant:normal;font-weight:normal;font-stretch:normal;font-size:16.9333px;line-height:1.25;font-family:'League Gothic';-inkscape-font-specification:'League Gothic';letter-spacing:0px;word-spacing:0px;fill:#c83737;fill-opacity:1;stroke:none;stroke-width:0.445684"
       d="m 196.48524,274.66626 v 6.63172 h 0.12606 l 0.15772,-0.30966 2.83769,-6.32206 h 3.31064 l -3.12147,6.24464 3.53137,12.72158 h -3.31066 l -2.36476,-8.25742 -0.0946,-0.38706 h -0.0946 l -0.18918,0.38706 -0.78824,1.54826 v 6.70916 h -3.40522 v -18.96622 z" />
    <path
       d="m 1.8983343,319.86126 3.684016,-19.96446 h 4.380992 l 3.6840157,19.96446 h -3.48488 l -0.6637927,-4.07438 h -3.451678 l -0.663793,4.07438 z m 6.073648,-13.47262 -0.09957,-0.5161 h -0.199136 l -0.09957,0.5161 -1.028863,6.3017 h 2.455998 z"
       style="font-style:normal;font-variant:normal;font-weight:normal;font-stretch:normal;font-size:16.9333px;line-height:1.25;font-family:'League Gothic';-inkscape-font-specification:'League Gothic';letter-spacing:0px;word-spacing:0px;fill:#800000;fill-opacity:1;stroke:none;stroke-width:0.469142"
       id="path3811"
       inkscape:connector-curvature="0" />
    <path
       d="m 21.260741,308.10666 v -0.69264 c 0,-0.66548 0.11616,-1.31738 0.464656,-1.79274 0.34849,-0.47532 0.945898,-0.7877 1.924976,-0.7877 0.912712,0 1.52671,0.28522 1.891792,0.7198 0.365088,0.4482 0.49784,1.07292 0.49784,1.76558 0,1.0186 -0.464648,2.22732 -1.045464,3.35456 -0.597408,1.14084 -1.294384,2.15942 -1.759032,2.79774 h 2.837688 v 1.4532 h -4.86224 v -1.4532 c 0.547624,-0.69264 1.045464,-1.39886 1.49352,-2.1051 0.38168,-0.59754 0.746758,-1.27662 1.02887,-1.96926 0.282114,-0.69266 0.49784,-1.3717 0.514432,-1.98284 0,-0.27162 -0.0166,-0.58402 -0.09956,-0.8149 -0.08302,-0.23086 -0.232318,-0.40744 -0.497838,-0.40744 -0.24892,0 -0.398272,0.1494 -0.48124,0.3667 -0.083,0.23088 -0.11616,0.52968 -0.11616,0.85562 v 0.69264 z"
       style="font-style:normal;font-variant:normal;font-weight:normal;font-stretch:normal;font-size:16.9333px;line-height:1.25;font-family:'League Gothic';-inkscape-font-specification:'League Gothic';letter-spacing:0px;word-spacing:0px;fill:#800000;fill-opacity:1;stroke:none;stroke-width:0.23457"
       id="path3813"
       inkscape:connector-curvature="0" />
    <path
       d="m 38.570165,310.39012 v -1.29566 c 0.791566,-0.0432 1.160962,-0.1728 1.319276,-0.47508 0.08798,-0.144 0.12314,-0.3311 0.12314,-0.56144 0,-0.23034 0,-0.51826 0,-0.84938 0,-0.30232 0,-0.63342 -0.07032,-0.90694 -0.07034,-0.27354 -0.228682,-0.46068 -0.52771,-0.46068 -0.22868,0 -0.369398,0.0862 -0.439766,0.3599 -0.088,0.28792 -0.12314,0.73422 -0.12314,1.4396 h -1.864572 c 0,-0.59022 0.0176,-1.3964 0.334214,-2.04424 0.316626,-0.63346 0.897106,-1.1229 2.093254,-1.1229 1.196138,0 1.811802,0.50386 2.128428,1.03652 0.316626,0.53266 0.334214,1.1085 0.334214,1.23806 0,1.56918 -0.334214,2.31778 -0.914696,2.79284 l -0.0176,0.014 c 0.914696,0.59024 1.090606,1.68434 1.090606,2.90802 0,0.0432 0,0.144 -0.0176,0.3023 -0.0176,0.30232 -0.12314,0.7486 -0.316626,1.20928 -0.211084,0.4607 -0.562896,0.87818 -1.108192,1.1229 -0.281452,0.1296 -0.615666,0.1872 -1.020246,0.1872 -1.196138,0 -1.811804,-0.48944 -2.146016,-1.13728 -0.334224,-0.63344 -0.369398,-1.43962 -0.369398,-2.02986 h 1.864574 c 0,0.70542 0.05276,1.1517 0.15832,1.42524 0.10554,0.28792 0.263856,0.3743 0.492528,0.3743 0.299038,0 0.45735,-0.1872 0.52771,-0.44628 0.07032,-0.25914 0.07032,-0.59024 0.07032,-0.89254 0,-0.33112 0,-0.63344 0.0176,-0.90696 0,-0.51826 -0.12314,-0.87818 -0.52771,-1.09412 -0.211084,-0.1008 -0.52771,-0.1728 -0.932282,-0.1872 z"
       style="font-style:normal;font-variant:normal;font-weight:normal;font-stretch:normal;font-size:16.9333px;line-height:1.25;font-family:'League Gothic';-inkscape-font-specification:'League Gothic';letter-spacing:0px;word-spacing:0px;fill:#800000;fill-opacity:1;stroke:none;stroke-width:0.248646"
       id="path3815"
       inkscape:connector-curvature="0" />
    <path
       d="m 55.547821,313.0353 h -3.103872 v -1.44502 l 2.936598,-7.3013 h 2.00729 v 7.3013 h 0.929304 v 1.44502 h -0.929304 v 2.43378 h -1.840016 z m -1.393952,-1.44502 h 1.393952 v -3.83318 h -0.11152 l -0.11152,0.33464 z"
       style="font-style:normal;font-variant:normal;font-weight:normal;font-stretch:normal;font-size:16.9333px;line-height:1.25;font-family:'League Gothic';-inkscape-font-specification:'League Gothic';letter-spacing:0px;word-spacing:0px;fill:#800000;fill-opacity:1;stroke:none;stroke-width:0.26272"
       id="path3817"
       inkscape:connector-curvature="0" />
    <path
       d="m 71.895967,310.12742 c 0,-0.49678 -0.215404,-0.8654 -0.665774,-0.8654 -0.234982,0 -0.430808,0.1442 -0.587452,0.32054 -0.15666,0.1922 -0.234982,0.41668 -0.234982,0.54486 h -1.781944 v -6.20198 h 5.110826 v 1.71474 h -3.289714 v 2.45196 c 0.23498,-0.1442 0.48954,-0.27242 0.783264,-0.35258 0.13706,-0.0482 0.293726,-0.064 0.430794,-0.0482 1.09658,0 1.68403,0.51284 1.997334,1.07374 0.313302,0.5609 0.35247,1.1699 0.35247,1.36222 v 2.62824 c 0,0.56092 -0.0392,1.31412 -0.411216,1.93912 -0.372048,0.64104 -1.076988,1.13784 -2.349804,1.13784 -1.31197,0 -1.977756,-0.4968 -2.349804,-1.20192 -0.37206,-0.68912 -0.411216,-1.57054 -0.411216,-2.35582 h 2.114824 v 0.46476 c 0,0.59294 0.0392,1.00962 0.13708,1.234 0.09796,0.24038 0.254558,0.35256 0.509118,0.35256 0.215402,0 0.391638,-0.1122 0.489538,-0.33654 0.09796,-0.22436 0.15666,-0.64104 0.15666,-1.234 z"
       style="font-style:normal;font-variant:normal;font-weight:normal;font-stretch:normal;font-size:16.9333px;line-height:1.25;font-family:'League Gothic';-inkscape-font-specification:'League Gothic';letter-spacing:0px;word-spacing:0px;fill:#800000;fill-opacity:1;stroke:none;stroke-width:0.276794"
       id="path3819"
       inkscape:connector-curvature="0" />
    <path
       d="m 90.020417,313.52506 c 0,0.2863 -0.0412,0.95992 -0.432126,1.54934 -0.390966,0.60628 -1.131752,1.12832 -2.469286,1.12832 -1.37868,0 -2.07832,-0.52204 -2.469286,-1.12832 -0.390966,-0.58942 -0.432126,-1.26304 -0.432126,-1.54934 v -7.03944 c 0,-0.42102 0.02054,-1.17886 0.411552,-1.80196 0.390966,-0.60628 1.090594,-1.12834 2.48986,-1.12834 1.399266,0 2.098894,0.52206 2.48986,1.12834 0.390978,0.6231 0.411552,1.38094 0.411552,1.80196 v 0.77466 h -2.22236 c 0,-0.82518 -0.02054,-1.36408 -0.10294,-1.68404 -0.08228,-0.31998 -0.24693,-0.43788 -0.576164,-0.43788 -0.267514,0 -0.452712,0.101 -0.535014,0.31998 -0.10294,0.21892 -0.14404,0.55574 -0.14404,1.02728 v 2.20614 c 0.390966,-0.1852 0.7202,-0.30312 1.111178,-0.30312 1.152324,0 1.769648,0.48838 2.098894,1.0441 0.329234,0.55578 0.370394,1.2294 0.370394,1.5662 z m -3.580466,0.53888 c 0,0.1516 0.16462,0.55578 0.679054,0.55578 0.473284,0 0.679052,-0.4042 0.679052,-0.55578 V 310.359 c 0,-0.1516 -0.205768,-0.55576 -0.679052,-0.55576 -0.473286,0 -0.658482,0.31998 -0.679054,0.50522 z"
       style="font-style:normal;font-variant:normal;font-weight:normal;font-stretch:normal;font-size:16.9333px;line-height:1.25;font-family:'League Gothic';-inkscape-font-specification:'League Gothic';letter-spacing:0px;word-spacing:0px;fill:#800000;fill-opacity:1;stroke:none;stroke-width:0.290868"
       id="path3821"
       inkscape:connector-curvature="0" />
    <path
       d="m 103.54914,305.27972 h -3.49484 v -1.88914 h 5.86788 v 1.90682 l -2.32989,11.07008 h -2.41618 z"
       style="font-style:normal;font-variant:normal;font-weight:normal;font-stretch:normal;font-size:16.9333px;line-height:1.25;font-family:'League Gothic';-inkscape-font-specification:'League Gothic';letter-spacing:0px;word-spacing:0px;fill:#800000;fill-opacity:1;stroke:none;stroke-width:0.304942"
       id="path3823"
       inkscape:connector-curvature="0" />
    <path
       d="m 122.20296,313.88144 c 0,0.1332 -0.0232,0.51336 -0.1394,0.9697 -0.11622,0.47534 -0.39496,1.00774 -0.88284,1.42602 -0.48789,0.4183 -1.23133,0.74154 -2.32325,0.74154 -1.09195,0 -1.8354,-0.32324 -2.32328,-0.74154 -0.48788,-0.41828 -0.76667,-0.95068 -0.88283,-1.42602 -0.11622,-0.45634 -0.1394,-0.8366 -0.1394,-0.9697 v -1.63518 c 0,-1.04578 0.44142,-2.09152 1.30102,-2.75702 -0.76668,-0.62746 -1.16162,-1.59716 -1.16162,-2.56684 v -1.17886 c 0,-0.1712 0.0232,-0.93166 0.44141,-1.63518 0.41819,-0.70352 1.18486,-1.369 2.76469,-1.369 1.5798,0 2.36972,0.66548 2.78791,1.369 0.41818,0.7035 0.41818,1.46406 0.41818,1.63518 v 1.17886 c 0,0.96968 -0.39496,1.93938 -1.16163,2.56684 0.8596,0.6655 1.30103,1.71126 1.30103,2.75702 z m -2.60205,-7.41538 c 0,-0.64644 -0.0465,-1.1218 -0.11622,-1.44504 -0.0929,-0.32322 -0.30202,-0.47534 -0.62728,-0.47534 -0.27879,0 -0.46464,0.1332 -0.5576,0.4183 -0.20909,0.5514 -0.23232,2.43376 -0.0465,3.09924 0.0697,0.34224 0.27881,0.51338 0.60407,0.51338 0.32526,0 0.53435,-0.1712 0.62727,-0.51338 0.0697,-0.32322 0.11622,-0.85562 0.11622,-1.59716 z m 0.16264,6.59778 c 0,-0.8366 -0.0465,-1.46404 -0.11622,-1.86334 -0.0929,-0.3993 -0.34849,-0.60842 -0.78992,-0.60842 -0.44142,0 -0.69699,0.20912 -0.76669,0.60842 -0.18586,0.8176 -0.16262,2.85204 0.0697,3.4605 0.11622,0.32324 0.3485,0.47534 0.69699,0.47534 0.44143,0 0.69698,-0.1902 0.78992,-0.55138 0.0697,-0.36128 0.11622,-0.87466 0.11622,-1.52112 z"
       style="font-style:normal;font-variant:normal;font-weight:normal;font-stretch:normal;font-size:16.9333px;line-height:1.25;font-family:'League Gothic';-inkscape-font-specification:'League Gothic';letter-spacing:0px;word-spacing:0px;fill:#800000;fill-opacity:1;stroke:none;stroke-width:0.3284"
       id="path3825"
       inkscape:connector-curvature="0" />
    <path
       d="m 131.21694,305.46852 c 0,-0.34634 0.0498,-1.1612 0.52273,-1.8946 0.47294,-0.71302 1.31928,-1.34452 2.98704,-1.34452 1.61798,0 2.5141,0.6315 2.98704,1.34452 0.47294,0.7334 0.52273,1.54828 0.52273,1.8946 v 8.51544 c 0,0.55004 -0.0248,1.42604 -0.49785,2.15942 -0.47294,0.75376 -1.31926,1.38528 -3.01192,1.38528 -1.69266,0 -2.53899,-0.6315 -3.01193,-1.38528 -0.47296,-0.73338 -0.49784,-1.60938 -0.49784,-2.15942 v -0.9371 h 2.68833 c 0,0.9982 0.0248,1.65012 0.12452,2.03718 0.0995,0.38706 0.29871,0.52968 0.69697,0.52968 0.32359,0 0.54762,-0.1222 0.67209,-0.38708 0.0995,-0.26482 0.14936,-0.67226 0.14936,-1.24268 v -2.81132 c -0.47295,0.22408 -0.87123,0.36668 -1.34417,0.36668 -1.39394,0 -2.1407,-0.59078 -2.53899,-1.26304 -0.39826,-0.67228 -0.44805,-1.48718 -0.44805,-1.89458 z m 4.3312,-0.6519 c 0,-0.1834 -0.19914,-0.6723 -0.82143,-0.6723 -0.57252,0 -0.82144,0.48894 -0.82144,0.6723 v 4.3392 c 0,0.1834 0.24892,0.67228 0.82144,0.67228 0.57252,0 0.79655,-0.38704 0.82143,-0.61114 z"
       style="font-style:normal;font-variant:normal;font-weight:normal;font-stretch:normal;font-size:16.9333px;line-height:1.25;font-family:'League Gothic';-inkscape-font-specification:'League Gothic';letter-spacing:0px;word-spacing:0px;fill:#800000;fill-opacity:1;stroke:none;stroke-width:0.351856"
       id="path3827"
       inkscape:connector-curvature="0" />
    <g
       transform="matrix(1.568,0,0,1.283269,-9.5231669,137.62234)"
       id="g3833"
       style="fill:#800000">
      <path
         inkscape:connector-curvature="0"
         id="path3829"
         style="font-style:normal;font-variant:normal;font-weight:normal;font-stretch:normal;font-size:12.3472px;line-height:1.25;font-family:'League Gothic';-inkscape-font-specification:'League Gothic';letter-spacing:0px;word-spacing:0px;fill:#800000;fill-opacity:1;stroke:none;stroke-width:0.264583"
         d="m 98.918068,129.90366 v -0.85195 c 0.555625,-0.11113 0.889,-0.39512 1.123602,-0.64206 0.12347,-0.14817 0.22225,-0.30868 0.29633,-0.46919 h 0.80257 v 9.07521 h -1.333502 v -7.11201 z" />
      <path
         inkscape:connector-curvature="0"
         id="path3831"
         style="font-style:normal;font-variant:normal;font-weight:normal;font-stretch:normal;font-size:12.7px;line-height:1.25;font-family:'League Gothic';-inkscape-font-specification:'League Gothic';letter-spacing:0px;word-spacing:0px;fill:#800000;fill-opacity:1;stroke:none;stroke-width:0.264583"
         d="m 105.31547,138.50566 c -0.0127,0.381 -0.0889,0.7239 -0.2286,1.016 -0.1143,0.254 -0.2921,0.4953 -0.5461,0.6858 -0.254,0.2032 -0.5969,0.3175 -1.0541,0.3175 -0.4572,0 -0.8128,-0.1143 -1.0668,-0.3175 -0.254,-0.1905 -0.4191,-0.4318 -0.5334,-0.6858 -0.1397,-0.2921 -0.2159,-0.635 -0.2286,-1.016 v -5.4991 c 0.0127,-0.3683 0.0889,-0.7112 0.2286,-1.0033 0.1143,-0.254 0.2794,-0.508 0.5334,-0.6985 0.254,-0.1905 0.6096,-0.3175 1.0668,-0.3175 0.4572,0 0.8001,0.127 1.0541,0.3175 0.254,0.1905 0.4318,0.4445 0.5461,0.6985 0.1397,0.2921 0.2159,0.635 0.2286,1.0033 z m -1.3716,-5.4991 c 0,-0.254 -0.0508,-0.4318 -0.1778,-0.5842 -0.0635,-0.0635 -0.1651,-0.1016 -0.2794,-0.1016 -0.2413,0 -0.3556,0.1778 -0.4064,0.3429 -0.0381,0.1016 -0.0508,0.2159 -0.0508,0.3429 v 5.4991 c 0,0.2667 0.0635,0.4445 0.1905,0.5842 0.0635,0.0635 0.1524,0.1016 0.2667,0.1016 0.2413,0 0.3556,-0.1524 0.4064,-0.3429 0.0381,-0.0889 0.0508,-0.2032 0.0508,-0.3429 z" />
    </g>
    <path
       d="m 164.12365,315.99036 c 0.59243,0.0694 1.0438,-0.046 1.38234,-0.4156 0.16928,-0.1616 0.25389,-0.43866 0.25389,-0.83116 v -13.4373 h 3.04679 v 13.8298 c 0,0.92352 -0.28211,1.7778 -0.98739,2.40116 -0.70527,0.62338 -1.89013,0.9928 -3.69563,0.90042 z"
       style="font-style:normal;font-variant:normal;font-weight:normal;font-stretch:normal;font-size:16.9333px;line-height:1.25;font-family:'League Gothic';-inkscape-font-specification:'League Gothic';letter-spacing:0px;word-spacing:0px;fill:#800000;fill-opacity:1;stroke:none;stroke-width:0.39877"
       id="path3835"
       inkscape:connector-curvature="0" />
    <path
       d="m 186.3221,314.58494 c 0,0.4156 -0.0896,0.88008 -0.26883,1.39346 -0.0896,0.2689 -0.23897,0.51338 -0.38831,0.78226 0.26883,0.29336 0.65714,0.53782 1.28442,0.6356 v 2.24904 c -1.82209,0 -2.74808,-0.63558 -3.31562,-1.39344 -0.44805,0.1222 -0.98572,0.22004 -1.613,0.22004 -1.07533,0 -1.9117,-0.22004 -2.50911,-0.61118 -0.59741,-0.36668 -0.98572,-0.83114 -1.25456,-1.32006 -0.32858,-0.56226 -0.5078,-1.22232 -0.53766,-1.95572 v -10.58522 c 0.0298,-0.70896 0.20908,-1.369 0.53766,-1.93124 0.26884,-0.48894 0.65714,-0.97788 1.25456,-1.34456 0.59741,-0.3667 1.43378,-0.61116 2.50911,-0.61116 1.07534,0 1.88184,0.24446 2.47925,0.61116 0.5974,0.36668 1.01559,0.85562 1.28442,1.34456 0.32858,0.56224 0.50781,1.22228 0.53767,1.93124 z m -3.226,-10.58522 c 0,-0.48894 -0.11942,-0.83118 -0.4182,-1.12452 -0.14942,-0.1222 -0.3883,-0.1956 -0.65714,-0.1956 -0.56753,0 -0.83636,0.34224 -0.95586,0.66002 -0.0896,0.1956 -0.11942,0.4156 -0.11942,0.66006 v 10.58524 c 0,0.51336 0.14942,0.85562 0.44806,1.12454 0.14942,0.1222 0.35844,0.1956 0.62728,0.1956 0.56753,0 0.83636,-0.29336 0.95586,-0.66002 0.0896,-0.1712 0.11942,-0.39116 0.11942,-0.66006 z"
       style="font-style:normal;font-variant:normal;font-weight:normal;font-stretch:normal;font-size:16.9333px;line-height:1.25;font-family:'League Gothic';-inkscape-font-specification:'League Gothic';letter-spacing:0px;word-spacing:0px;fill:#800000;fill-opacity:1;stroke:none;stroke-width:0.422228"
       id="path3837"
       inkscape:connector-curvature="0" />
    <path
       d="m 196.48525,300.39592 v 6.63172 h 0.12606 l 0.15772,-0.30966 2.83769,-6.32206 h 3.31065 l -3.12147,6.24464 3.53135,12.72158 h -3.31064 l -2.36474,-8.25742 -0.0946,-0.38706 h -0.0946 l -0.18918,0.38706 -0.78825,1.54826 v 6.70916 h -3.40522 v -18.96622 z"
       style="font-style:normal;font-variant:normal;font-weight:normal;font-stretch:normal;font-size:16.9333px;line-height:1.25;font-family:'League Gothic';-inkscape-font-specification:'League Gothic';letter-spacing:0px;word-spacing:0px;fill:#800000;fill-opacity:1;stroke:none;stroke-width:0.445684"
       id="path3839"
       inkscape:connector-curvature="0" />
    <rect
       rx="1.8309667"
       ry="1.8309667"
       y="247.13786"
       x="128.35286"
       height="23.59407"
       width="29.295958"
       id="rect4728"
       style="fill:#ff8080;fill-opacity:1;stroke:#000000;stroke-width:0.491542;stroke-linecap:butt;stroke-linejoin:bevel;stroke-miterlimit:4;stroke-dasharray:none" />
    <rect
       style="fill:#afe9af;fill-opacity:1;stroke:#000000;stroke-width:0.491542;stroke-linecap:butt;stroke-linejoin:bevel;stroke-miterlimit:4;stroke-dasharray:none"
       id="rect866"
       width="29.295958"
       height="23.59407"
       x="159.89067"
       y="247.13786"
       ry="1.8309667"
       rx="1.8309667" />
    <rect
       style="fill:#550000;fill-opacity:1;stroke:#000000;stroke-width:0.491542;stroke-linecap:butt;stroke-linejoin:bevel;stroke-miterlimit:4;stroke-dasharray:none"
       id="rect868"
       width="29.295958"
       height="23.59407"
       x="191.96301"
       y="247.13786"
       ry="1.8309667"
       rx="1.8309667" />
    <rect
       rx="1.8309667"
       ry="1.8309667"
       y="247.08665"
       x="96.496948"
       height="23.59407"
       width="29.295958"
       id="rect1559"
       style="fill:#f2f2f2;fill-opacity:1;stroke:#ff0000;stroke-width:0.491542;stroke-linecap:butt;stroke-linejoin:bevel;stroke-miterlimit:4;stroke-dasharray:none" />
    <circle
       style="fill:#cccccc;fill-opacity:1;stroke:#f2f2f2;stroke-width:1.3034;stroke-linecap:round;stroke-linejoin:bevel;stroke-miterlimit:4;stroke-dasharray:none;stroke-opacity:1"
       id="path7072"
       cx="174.53865"
       cy="258.93488"
       r="7.3993568" />
    <path
       style="fill:#f2f2f2;stroke:#ececec;stroke-width:1.1074;stroke-linecap:butt;stroke-linejoin:miter;stroke-miterlimit:4;stroke-dasharray:none;stroke-opacity:1"
       d="m 192.98539,247.63574 26.5198,21.67424"
       id="path7074"
       inkscape:connector-curvature="0" />
    <path
       inkscape:connector-curvature="0"
       id="path7076"
       d="m 219.50519,247.63574 -26.5198,21.67424"
       style="fill:#f2f2f2;stroke:#ececec;stroke-width:1.1074;stroke-linecap:butt;stroke-linejoin:miter;stroke-miterlimit:4;stroke-dasharray:none;stroke-opacity:1" />
    <rect
       style="fill:none;fill-opacity:1;stroke:none;stroke-width:0.501574;stroke-linecap:butt;stroke-linejoin:bevel;stroke-miterlimit:4;stroke-dasharray:none"
       id="rect4573"
       width="29.893835"
       height="24.075583"
       x="222.92595"
       y="246.89711"
       ry="1.8683333"
       rx="1.8683333" />
    <rect
       rx="1.8309667"
       ry="1.8309667"
       y="247.08665"
       x="64.825508"
       height="23.59407"
       width="29.295958"
       id="rect5173"
       style="fill:#999999;fill-opacity:1;stroke:#000000;stroke-width:0.491542;stroke-linecap:butt;stroke-linejoin:bevel;stroke-miterlimit:4;stroke-dasharray:none" />
    <rect
       style="fill:#d7e3f4;fill-opacity:1;stroke:#0b1728;stroke-width:1.7177;stroke-linecap:butt;stroke-linejoin:bevel;stroke-miterlimit:4;stroke-dasharray:none;stroke-opacity:1"
       id="rect5177"
       width="28.307451"
       height="21.366001"
       x="255.77393"
       y="248.2007"
       ry="1.6580622"
       rx="1.7691861" />
    <path
       d="m 1.8983343,345.06586 3.684016,-19.96446 h 4.380992 l 3.6840137,19.96446 h -3.484878 l -0.6637867,-4.07438 h -3.451692 l -0.663785,4.07438 z m 6.073648,-13.47262 -0.09957,-0.5161 h -0.199136 l -0.09957,0.5161 -1.028871,6.3017 h 2.456012 z"
       style="font-style:normal;font-variant:normal;font-weight:normal;font-stretch:normal;font-size:16.9333px;line-height:1.25;font-family:'League Gothic';-inkscape-font-specification:'League Gothic';letter-spacing:0px;word-spacing:0px;fill:#000000;fill-opacity:1;stroke:none;stroke-width:0.469142"
       id="path950"
       inkscape:connector-curvature="0" />
    <path
       d="m 21.260743,333.31128 v -0.69266 c 0,-0.66546 0.11616,-1.31738 0.46465,-1.79272 0.348488,-0.47534 0.945896,-0.78772 1.924982,-0.78772 0.912706,0 1.526708,0.28522 1.891792,0.71982 0.365082,0.44818 0.49784,1.07292 0.49784,1.76556 0,1.0186 -0.464652,2.22732 -1.045464,3.35458 -0.597408,1.14082 -1.294384,2.15942 -1.759036,2.79774 h 2.837688 v 1.4532 h -4.862236 v -1.4532 c 0.547624,-0.69266 1.045464,-1.39886 1.49352,-2.1051 0.381676,-0.59756 0.746758,-1.27664 1.028866,-1.96928 0.28211,-0.69264 0.49784,-1.37172 0.514436,-1.98286 0,-0.27162 -0.0166,-0.584 -0.09956,-0.81488 -0.08298,-0.23088 -0.232326,-0.40744 -0.497838,-0.40744 -0.24892,0 -0.398272,0.1494 -0.481246,0.3667 -0.08298,0.23088 -0.11616,0.52966 -0.11616,0.85562 v 0.69264 z"
       style="font-style:normal;font-variant:normal;font-weight:normal;font-stretch:normal;font-size:16.9333px;line-height:1.25;font-family:'League Gothic';-inkscape-font-specification:'League Gothic';letter-spacing:0px;word-spacing:0px;fill:#000000;fill-opacity:1;stroke:none;stroke-width:0.23457"
       id="path952"
       inkscape:connector-curvature="0" />
    <path
       d="m 38.570215,335.59472 v -1.29566 c 0.791566,-0.0432 1.160962,-0.1728 1.319276,-0.47508 0.08796,-0.144 0.12314,-0.33112 0.12314,-0.56146 0,-0.23032 0,-0.51824 0,-0.84936 0,-0.30232 0,-0.63344 -0.07036,-0.90696 -0.07036,-0.27352 -0.228674,-0.46066 -0.52771,-0.46066 -0.228674,0 -0.369398,0.0862 -0.439758,0.3599 -0.08796,0.28792 -0.12314,0.7342 -0.12314,1.4396 h -1.864576 c 0,-0.59024 0.0176,-1.39642 0.334216,-2.04424 0.316626,-0.63344 0.897108,-1.1229 2.093252,-1.1229 1.196144,0 1.811806,0.50388 2.128432,1.03652 0.316626,0.53264 0.334216,1.1085 0.334216,1.23806 0,1.56918 -0.334216,2.3178 -0.914698,2.79286 l -0.0176,0.014 c 0.914698,0.59024 1.090602,1.68434 1.090602,2.90802 0,0.0432 0,0.144 -0.0176,0.3023 -0.0176,0.30234 -0.12314,0.74862 -0.316626,1.20928 -0.211084,0.4607 -0.56289,0.87816 -1.108192,1.1229 -0.281444,0.1296 -0.615662,0.1872 -1.02024,0.1872 -1.196144,0 -1.811806,-0.48948 -2.146022,-1.1373 -0.334216,-0.63342 -0.369398,-1.4396 -0.369398,-2.02986 h 1.864578 c 0,0.70542 0.05276,1.1517 0.15832,1.42524 0.10554,0.28792 0.263856,0.37428 0.49253,0.37428 0.299036,0 0.45735,-0.1872 0.527712,-0.44628 0.07036,-0.25912 0.07036,-0.59024 0.07036,-0.89254 0,-0.3311 0,-0.63342 0.0176,-0.90694 0,-0.51828 -0.12314,-0.87818 -0.52771,-1.09412 -0.211086,-0.1008 -0.527712,-0.1728 -0.93229,-0.1872 z"
       style="font-style:normal;font-variant:normal;font-weight:normal;font-stretch:normal;font-size:16.9333px;line-height:1.25;font-family:'League Gothic';-inkscape-font-specification:'League Gothic';letter-spacing:0px;word-spacing:0px;fill:#000000;fill-opacity:1;stroke:none;stroke-width:0.248646"
       id="path954"
       inkscape:connector-curvature="0" />
    <path
       d="m 55.547817,338.2399 h -3.103866 v -1.44502 l 2.93659,-7.3013 h 2.007292 v 7.3013 h 0.929302 v 1.44502 h -0.929302 v 2.43378 h -1.840016 z m -1.393952,-1.44502 h 1.393952 v -3.83318 h -0.11152 l -0.11152,0.33464 z"
       style="font-style:normal;font-variant:normal;font-weight:normal;font-stretch:normal;font-size:16.9333px;line-height:1.25;font-family:'League Gothic';-inkscape-font-specification:'League Gothic';letter-spacing:0px;word-spacing:0px;fill:#000000;fill-opacity:1;stroke:none;stroke-width:0.26272"
       id="path956"
       inkscape:connector-curvature="0" />
    <path
       d="m 71.895965,335.33202 c 0,-0.49678 -0.215404,-0.8654 -0.665774,-0.8654 -0.23498,0 -0.430806,0.1442 -0.587452,0.32052 -0.15666,0.1924 -0.23498,0.41668 -0.23498,0.54488 h -1.781942 v -6.202 h 5.110824 v 1.71478 h -3.289716 v 2.45194 c 0.234982,-0.1442 0.48954,-0.27242 0.783266,-0.35256 0.13706,-0.0482 0.293726,-0.064 0.430794,-0.0482 1.09658,0 1.684032,0.5128 1.997334,1.07372 0.313304,0.5609 0.352472,1.1699 0.352472,1.3622 v 2.62824 c 0,0.56092 -0.0392,1.31414 -0.411216,1.93916 -0.372048,0.641 -1.07699,1.13782 -2.349806,1.13782 -1.31197,0 -1.977756,-0.49682 -2.349804,-1.20194 -0.372048,-0.68912 -0.411216,-1.57054 -0.411216,-2.35582 h 2.114822 v 0.46476 c 0,0.59294 0.0392,1.00962 0.13708,1.234 0.09796,0.2404 0.25456,0.35258 0.509118,0.35258 0.215402,0 0.391638,-0.1122 0.489538,-0.33656 0.09796,-0.22436 0.15666,-0.64102 0.15666,-1.234 z"
       style="font-style:normal;font-variant:normal;font-weight:normal;font-stretch:normal;font-size:16.9333px;line-height:1.25;font-family:'League Gothic';-inkscape-font-specification:'League Gothic';letter-spacing:0px;word-spacing:0px;fill:#000000;fill-opacity:1;stroke:none;stroke-width:0.276794"
       id="path958"
       inkscape:connector-curvature="0" />
    <path
       d="m 90.020417,338.72964 c 0,0.2863 -0.0412,0.95992 -0.432126,1.54936 -0.390966,0.60628 -1.131752,1.12832 -2.469286,1.12832 -1.37868,0 -2.07832,-0.52204 -2.469286,-1.12832 -0.390966,-0.58944 -0.432126,-1.26306 -0.432126,-1.54936 v -7.03942 c 0,-0.42102 0.02054,-1.17886 0.411552,-1.80198 0.390966,-0.60626 1.090594,-1.1283 2.48986,-1.1283 1.399266,0 2.098894,0.52204 2.48986,1.1283 0.390978,0.62312 0.411552,1.38098 0.411552,1.80198 v 0.77466 h -2.22236 c 0,-0.82518 -0.02054,-1.3641 -0.10294,-1.68406 -0.08228,-0.31998 -0.24693,-0.43788 -0.576164,-0.43788 -0.267514,0 -0.452712,0.101 -0.535014,0.32 -0.10294,0.2189 -0.14404,0.55572 -0.14404,1.02728 v 2.20612 c 0.390966,-0.1852 0.7202,-0.30312 1.111178,-0.30312 1.152324,0 1.769648,0.48838 2.098894,1.04412 0.329234,0.55576 0.370394,1.22938 0.370394,1.56618 z m -3.580466,0.5389 c 0,0.1516 0.16462,0.55576 0.679054,0.55576 0.473284,0 0.679052,-0.40418 0.679052,-0.55576 v -3.70494 c 0,-0.1516 -0.205768,-0.55576 -0.679052,-0.55576 -0.473286,0 -0.658482,0.31998 -0.679054,0.50522 z"
       style="font-style:normal;font-variant:normal;font-weight:normal;font-stretch:normal;font-size:16.9333px;line-height:1.25;font-family:'League Gothic';-inkscape-font-specification:'League Gothic';letter-spacing:0px;word-spacing:0px;fill:#000000;fill-opacity:1;stroke:none;stroke-width:0.290868"
       id="path960"
       inkscape:connector-curvature="0" />
    <path
       d="m 103.54914,330.48432 h -3.49483 v -1.88914 h 5.86787 v 1.90682 l -2.32989,11.07008 h -2.41617 z"
       style="font-style:normal;font-variant:normal;font-weight:normal;font-stretch:normal;font-size:16.9333px;line-height:1.25;font-family:'League Gothic';-inkscape-font-specification:'League Gothic';letter-spacing:0px;word-spacing:0px;fill:#000000;fill-opacity:1;stroke:none;stroke-width:0.304942"
       id="path962"
       inkscape:connector-curvature="0" />
    <path
       d="m 122.20295,339.08604 c 0,0.1332 -0.0232,0.51336 -0.1394,0.9697 -0.11622,0.47534 -0.39496,1.00774 -0.88284,1.42602 -0.48789,0.4183 -1.23133,0.74154 -2.32325,0.74154 -1.09194,0 -1.83538,-0.32324 -2.32326,-0.74154 -0.48789,-0.41828 -0.76668,-0.95068 -0.88283,-1.42602 -0.11622,-0.45634 -0.1394,-0.8366 -0.1394,-0.9697 v -1.6352 c 0,-1.04578 0.44141,-2.0915 1.30101,-2.757 -0.76667,-0.62746 -1.16161,-1.59716 -1.16161,-2.56686 v -1.17884 c 0,-0.1712 0.0232,-0.93166 0.44141,-1.6352 0.41818,-0.7035 1.18486,-1.36898 2.76468,-1.36898 1.5798,0 2.36971,0.66548 2.7879,1.36898 0.41818,0.7035 0.41818,1.46408 0.41818,1.6352 v 1.17884 c 0,0.9697 -0.39495,1.93938 -1.16163,2.56686 0.8596,0.6655 1.30103,1.71126 1.30103,2.757 z m -2.60205,-7.41538 c 0,-0.64644 -0.0465,-1.1218 -0.11622,-1.44504 -0.0929,-0.32322 -0.30202,-0.47534 -0.62728,-0.47534 -0.27879,0 -0.46464,0.1332 -0.55758,0.4183 -0.20909,0.5514 -0.23232,2.43376 -0.0465,3.09924 0.0697,0.34224 0.27879,0.51338 0.60405,0.51338 0.32526,0 0.53435,-0.1712 0.62728,-0.51338 0.0697,-0.32322 0.11622,-0.85562 0.11622,-1.59716 z m 0.16264,6.59778 c 0,-0.8366 -0.0465,-1.46408 -0.11622,-1.86334 -0.0929,-0.3993 -0.34849,-0.60842 -0.78992,-0.60842 -0.44141,0 -0.69698,0.20912 -0.76667,0.60842 -0.18586,0.8176 -0.16262,2.85204 0.0697,3.4605 0.11622,0.32324 0.34849,0.47534 0.69697,0.47534 0.44143,0 0.69698,-0.1902 0.78992,-0.55138 0.0697,-0.36128 0.11622,-0.87466 0.11622,-1.52112 z"
       style="font-style:normal;font-variant:normal;font-weight:normal;font-stretch:normal;font-size:16.9333px;line-height:1.25;font-family:'League Gothic';-inkscape-font-specification:'League Gothic';letter-spacing:0px;word-spacing:0px;fill:#000000;fill-opacity:1;stroke:none;stroke-width:0.3284"
       id="path964"
       inkscape:connector-curvature="0" />
    <path
       d="m 131.21693,330.67312 c 0,-0.34634 0.0498,-1.16118 0.52273,-1.89458 0.47295,-0.71302 1.31928,-1.34454 2.98704,-1.34454 1.61799,0 2.5141,0.63152 2.98704,1.34454 0.47294,0.7334 0.52273,1.54826 0.52273,1.89458 v 8.51544 c 0,0.55006 -0.0248,1.42606 -0.49784,2.15942 -0.47294,0.75376 -1.31927,1.3853 -3.01193,1.3853 -1.69266,0 -2.53898,-0.63152 -3.01192,-1.3853 -0.47296,-0.73336 -0.49785,-1.60936 -0.49785,-2.15942 v -0.93712 h 2.68834 c 0,0.99822 0.0248,1.65012 0.12452,2.03718 0.0995,0.38706 0.2987,0.52968 0.69697,0.52968 0.32359,0 0.54762,-0.122 0.67208,-0.38706 0.0995,-0.26482 0.14936,-0.67228 0.14936,-1.24268 v -2.81134 c -0.47294,0.22408 -0.87122,0.36668 -1.34417,0.36668 -1.39394,0 -2.1407,-0.59078 -2.53898,-1.26304 -0.39827,-0.67228 -0.44806,-1.48716 -0.44806,-1.89456 z m 4.33121,-0.6519 c 0,-0.1834 -0.19914,-0.6723 -0.82144,-0.6723 -0.57252,0 -0.82143,0.48894 -0.82143,0.6723 v 4.3392 c 0,0.1834 0.24891,0.6723 0.82143,0.6723 0.57252,0 0.79655,-0.38706 0.82144,-0.61116 z"
       style="font-style:normal;font-variant:normal;font-weight:normal;font-stretch:normal;font-size:16.9333px;line-height:1.25;font-family:'League Gothic';-inkscape-font-specification:'League Gothic';letter-spacing:0px;word-spacing:0px;fill:#000000;fill-opacity:1;stroke:none;stroke-width:0.351856"
       id="path966"
       inkscape:connector-curvature="0" />
    <g
       transform="matrix(1.568,0,0,1.283269,-9.5231729,162.82694)"
       id="g972">
      <path
         inkscape:connector-curvature="0"
         id="path968"
         style="font-style:normal;font-variant:normal;font-weight:normal;font-stretch:normal;font-size:12.3472px;line-height:1.25;font-family:'League Gothic';-inkscape-font-specification:'League Gothic';letter-spacing:0px;word-spacing:0px;fill:#000000;fill-opacity:1;stroke:none;stroke-width:0.264583"
         d="m 98.918068,129.90366 v -0.85195 c 0.555625,-0.11113 0.889,-0.39512 1.123602,-0.64206 0.12347,-0.14817 0.22225,-0.30868 0.29633,-0.46919 h 0.80257 v 9.07521 h -1.333502 v -7.11201 z" />
      <path
         inkscape:connector-curvature="0"
         id="path970"
         style="font-style:normal;font-variant:normal;font-weight:normal;font-stretch:normal;font-size:12.7px;line-height:1.25;font-family:'League Gothic';-inkscape-font-specification:'League Gothic';letter-spacing:0px;word-spacing:0px;fill:#000000;fill-opacity:1;stroke:none;stroke-width:0.264583"
         d="m 105.31547,138.50566 c -0.0127,0.381 -0.0889,0.7239 -0.2286,1.016 -0.1143,0.254 -0.2921,0.4953 -0.5461,0.6858 -0.254,0.2032 -0.5969,0.3175 -1.0541,0.3175 -0.4572,0 -0.8128,-0.1143 -1.0668,-0.3175 -0.254,-0.1905 -0.4191,-0.4318 -0.5334,-0.6858 -0.1397,-0.2921 -0.2159,-0.635 -0.2286,-1.016 v -5.4991 c 0.0127,-0.3683 0.0889,-0.7112 0.2286,-1.0033 0.1143,-0.254 0.2794,-0.508 0.5334,-0.6985 0.254,-0.1905 0.6096,-0.3175 1.0668,-0.3175 0.4572,0 0.8001,0.127 1.0541,0.3175 0.254,0.1905 0.4318,0.4445 0.5461,0.6985 0.1397,0.2921 0.2159,0.635 0.2286,1.0033 z m -1.3716,-5.4991 c 0,-0.254 -0.0508,-0.4318 -0.1778,-0.5842 -0.0635,-0.0635 -0.1651,-0.1016 -0.2794,-0.1016 -0.2413,0 -0.3556,0.1778 -0.4064,0.3429 -0.0381,0.1016 -0.0508,0.2159 -0.0508,0.3429 v 5.4991 c 0,0.2667 0.0635,0.4445 0.1905,0.5842 0.0635,0.0635 0.1524,0.1016 0.2667,0.1016 0.2413,0 0.3556,-0.1524 0.4064,-0.3429 0.0381,-0.0889 0.0508,-0.2032 0.0508,-0.3429 z" />
    </g>
    <path
       d="m 164.12365,341.19496 c 0.59243,0.0694 1.0438,-0.046 1.38234,-0.4156 0.16928,-0.1616 0.25389,-0.43866 0.25389,-0.83116 v -13.4373 h 3.04679 v 13.8298 c 0,0.92352 -0.28211,1.7778 -0.98739,2.40116 -0.70527,0.62338 -1.89013,0.9928 -3.69563,0.90042 z"
       style="font-style:normal;font-variant:normal;font-weight:normal;font-stretch:normal;font-size:16.9333px;line-height:1.25;font-family:'League Gothic';-inkscape-font-specification:'League Gothic';letter-spacing:0px;word-spacing:0px;fill:#000000;fill-opacity:1;stroke:none;stroke-width:0.39877"
       id="path974"
       inkscape:connector-curvature="0" />
    <path
       d="m 186.3221,339.78954 c 0,0.4156 -0.0896,0.88008 -0.26883,1.39346 -0.0896,0.2689 -0.23897,0.51338 -0.38831,0.78226 0.26883,0.29336 0.65714,0.53782 1.28442,0.6356 v 2.24904 c -1.82209,0 -2.74808,-0.63558 -3.31562,-1.39344 -0.44805,0.1222 -0.98572,0.22004 -1.613,0.22004 -1.07533,0 -1.9117,-0.22004 -2.50911,-0.61118 -0.59741,-0.36668 -0.98572,-0.83114 -1.25456,-1.32006 -0.32858,-0.56226 -0.5078,-1.22232 -0.53766,-1.95572 v -10.58522 c 0.0298,-0.70896 0.20908,-1.369 0.53766,-1.93124 0.26884,-0.48894 0.65714,-0.97788 1.25456,-1.34456 0.59741,-0.3667 1.43378,-0.61116 2.50911,-0.61116 1.07534,0 1.88184,0.24446 2.47925,0.61116 0.5974,0.36668 1.01559,0.85562 1.28442,1.34456 0.32858,0.56224 0.50781,1.22228 0.53767,1.93124 z m -3.226,-10.58522 c 0,-0.48894 -0.11942,-0.83118 -0.4182,-1.12452 -0.14942,-0.1222 -0.3883,-0.1956 -0.65714,-0.1956 -0.56753,0 -0.83636,0.34224 -0.95586,0.66002 -0.0896,0.1956 -0.11942,0.4156 -0.11942,0.66006 v 10.58524 c 0,0.51336 0.14942,0.85562 0.44806,1.12454 0.14942,0.1222 0.35844,0.1956 0.62728,0.1956 0.56753,0 0.83636,-0.29336 0.95586,-0.66002 0.0896,-0.1712 0.11942,-0.39116 0.11942,-0.66006 z"
       style="font-style:normal;font-variant:normal;font-weight:normal;font-stretch:normal;font-size:16.9333px;line-height:1.25;font-family:'League Gothic';-inkscape-font-specification:'League Gothic';letter-spacing:0px;word-spacing:0px;fill:#000000;fill-opacity:1;stroke:none;stroke-width:0.422228"
       id="path976"
       inkscape:connector-curvature="0" />
    <path
       d="m 196.48524,325.60052 v 6.63172 h 0.12606 l 0.15772,-0.30966 2.83769,-6.32206 h 3.31064 l -3.12147,6.24464 3.53137,12.72158 h -3.31066 l -2.36476,-8.25742 -0.0946,-0.38706 h -0.0946 l -0.18918,0.38706 -0.78824,1.54826 v 6.70916 h -3.40522 v -18.96622 z"
       style="font-style:normal;font-variant:normal;font-weight:normal;font-stretch:normal;font-size:16.9333px;line-height:1.25;font-family:'League Gothic';-inkscape-font-specification:'League Gothic';letter-spacing:0px;word-spacing:0px;fill:#000000;fill-opacity:1;stroke:none;stroke-width:0.445684"
       id="path978"
       inkscape:connector-curvature="0" />
    <path
       inkscape:connector-curvature="0"
       id="path980"
       style="font-style:normal;font-variant:normal;font-weight:normal;font-stretch:normal;font-size:16.9333px;line-height:1.25;font-family:'League Gothic';-inkscape-font-specification:'League Gothic';letter-spacing:0px;word-spacing:0px;fill:#333333;fill-opacity:1;stroke:none;stroke-width:0.469142"
       d="m 1.8983343,370.4659 3.684016,-19.96446 h 4.380992 l 3.6840157,19.96446 h -3.48488 l -0.6637927,-4.07438 h -3.451678 l -0.663793,4.07438 z m 6.073648,-13.47262 -0.09957,-0.5161 h -0.199136 l -0.09957,0.5161 -1.028863,6.3017 h 2.455998 z" />
    <path
       inkscape:connector-curvature="0"
       id="path982"
       style="font-style:normal;font-variant:normal;font-weight:normal;font-stretch:normal;font-size:16.9333px;line-height:1.25;font-family:'League Gothic';-inkscape-font-specification:'League Gothic';letter-spacing:0px;word-spacing:0px;fill:#333333;fill-opacity:1;stroke:none;stroke-width:0.23457"
       d="m 21.260741,358.7113 v -0.69264 c 0,-0.66548 0.11616,-1.3174 0.464656,-1.79274 0.34849,-0.47532 0.945898,-0.7877 1.924976,-0.7877 0.912712,0 1.52671,0.2852 1.891792,0.7198 0.365088,0.4482 0.49784,1.07292 0.49784,1.76558 0,1.01858 -0.464648,2.22732 -1.045464,3.35456 -0.597408,1.14084 -1.294384,2.15942 -1.759032,2.79774 h 2.837688 v 1.4532 h -4.86224 v -1.4532 c 0.547624,-0.69264 1.045464,-1.39886 1.49352,-2.1051 0.38168,-0.59754 0.746758,-1.27662 1.02887,-1.96926 0.282114,-0.69266 0.49784,-1.3717 0.514432,-1.98286 0,-0.27162 -0.0166,-0.584 -0.09956,-0.81488 -0.08302,-0.23086 -0.232318,-0.40744 -0.497838,-0.40744 -0.24892,0 -0.398272,0.1494 -0.48124,0.3667 -0.083,0.23088 -0.11616,0.52968 -0.11616,0.85562 v 0.69264 z" />
    <path
       inkscape:connector-curvature="0"
       id="path984"
       style="font-style:normal;font-variant:normal;font-weight:normal;font-stretch:normal;font-size:16.9333px;line-height:1.25;font-family:'League Gothic';-inkscape-font-specification:'League Gothic';letter-spacing:0px;word-spacing:0px;fill:#333333;fill-opacity:1;stroke:none;stroke-width:0.248646"
       d="m 38.570165,360.99476 v -1.29566 c 0.791566,-0.0432 1.160962,-0.1728 1.319276,-0.47508 0.08798,-0.144 0.12314,-0.3311 0.12314,-0.56144 0,-0.23034 0,-0.51826 0,-0.84938 0,-0.30232 0,-0.63342 -0.07032,-0.90694 -0.07034,-0.27354 -0.228682,-0.4607 -0.52771,-0.4607 -0.22868,0 -0.369398,0.0862 -0.439766,0.35992 -0.088,0.28792 -0.12314,0.73422 -0.12314,1.4396 h -1.864572 c 0,-0.59022 0.0176,-1.3964 0.334214,-2.04424 0.316626,-0.63346 0.897106,-1.1229 2.093254,-1.1229 1.196138,0 1.811802,0.50386 2.128428,1.03652 0.316626,0.53266 0.334214,1.1085 0.334214,1.23806 0,1.56918 -0.334214,2.31778 -0.914696,2.79284 l -0.0176,0.014 c 0.914696,0.59024 1.090606,1.68434 1.090606,2.90802 0,0.0432 0,0.144 -0.0176,0.3023 -0.0176,0.30232 -0.12314,0.7486 -0.316626,1.20928 -0.211084,0.4607 -0.562896,0.87818 -1.108192,1.1229 -0.281452,0.1296 -0.615666,0.1872 -1.020246,0.1872 -1.196138,0 -1.811804,-0.48944 -2.146016,-1.13728 -0.334224,-0.63344 -0.369398,-1.43962 -0.369398,-2.02986 h 1.864574 c 0,0.70542 0.05276,1.1517 0.15832,1.42524 0.10554,0.28792 0.263856,0.3743 0.492528,0.3743 0.299038,0 0.45735,-0.1872 0.52771,-0.44628 0.07032,-0.25914 0.07032,-0.59024 0.07032,-0.89254 0,-0.33112 0,-0.63344 0.0176,-0.90696 0,-0.51826 -0.12314,-0.87818 -0.52771,-1.09412 -0.211084,-0.1008 -0.52771,-0.1728 -0.932282,-0.1872 z" />
    <path
       inkscape:connector-curvature="0"
       id="path986"
       style="font-style:normal;font-variant:normal;font-weight:normal;font-stretch:normal;font-size:16.9333px;line-height:1.25;font-family:'League Gothic';-inkscape-font-specification:'League Gothic';letter-spacing:0px;word-spacing:0px;fill:#333333;fill-opacity:1;stroke:none;stroke-width:0.26272"
       d="m 55.547821,363.63994 h -3.103872 v -1.44502 l 2.936598,-7.3013 h 2.00729 v 7.3013 h 0.929304 v 1.44502 h -0.929304 v 2.43378 h -1.840016 z m -1.393952,-1.44502 h 1.393952 v -3.83318 h -0.11152 l -0.11152,0.33464 z" />
    <path
       inkscape:connector-curvature="0"
       id="path988"
       style="font-style:normal;font-variant:normal;font-weight:normal;font-stretch:normal;font-size:16.9333px;line-height:1.25;font-family:'League Gothic';-inkscape-font-specification:'League Gothic';letter-spacing:0px;word-spacing:0px;fill:#333333;fill-opacity:1;stroke:none;stroke-width:0.276794"
       d="m 71.895967,360.73204 c 0,-0.49678 -0.215404,-0.8654 -0.665774,-0.8654 -0.234982,0 -0.430808,0.1442 -0.587452,0.32054 -0.15666,0.1924 -0.234982,0.41668 -0.234982,0.54486 h -1.781944 v -6.20198 h 5.110826 v 1.71474 h -3.289714 v 2.45196 c 0.23498,-0.1442 0.48954,-0.27242 0.783264,-0.35258 0.13706,-0.0482 0.293726,-0.064 0.430794,-0.0482 1.09658,0 1.68403,0.51284 1.997334,1.07374 0.313302,0.5609 0.35247,1.1699 0.35247,1.36222 v 2.62824 c 0,0.56092 -0.0392,1.31412 -0.411216,1.93912 -0.372048,0.64104 -1.076988,1.13784 -2.349804,1.13784 -1.31197,0 -1.977756,-0.4968 -2.349804,-1.20192 -0.37206,-0.68912 -0.411216,-1.57054 -0.411216,-2.35582 h 2.114824 v 0.46476 c 0,0.59294 0.0392,1.00962 0.13708,1.234 0.09796,0.24038 0.254558,0.35256 0.509118,0.35256 0.215402,0 0.391638,-0.1122 0.489538,-0.33654 0.09796,-0.22436 0.15666,-0.64104 0.15666,-1.234 z" />
    <path
       inkscape:connector-curvature="0"
       id="path990"
       style="font-style:normal;font-variant:normal;font-weight:normal;font-stretch:normal;font-size:16.9333px;line-height:1.25;font-family:'League Gothic';-inkscape-font-specification:'League Gothic';letter-spacing:0px;word-spacing:0px;fill:#333333;fill-opacity:1;stroke:none;stroke-width:0.290868"
       d="m 90.020417,364.1297 c 0,0.2863 -0.0412,0.95992 -0.432126,1.54934 -0.390966,0.60628 -1.131752,1.12832 -2.469286,1.12832 -1.37868,0 -2.07832,-0.52204 -2.469286,-1.12832 -0.390966,-0.58942 -0.432126,-1.26304 -0.432126,-1.54934 v -7.03944 c 0,-0.42102 0.02054,-1.17886 0.411552,-1.80196 0.390966,-0.60628 1.090594,-1.12834 2.48986,-1.12834 1.399266,0 2.098894,0.52206 2.48986,1.12834 0.390978,0.6231 0.411552,1.38094 0.411552,1.80196 v 0.77466 h -2.22236 c 0,-0.82518 -0.02054,-1.36408 -0.10294,-1.68404 -0.08228,-0.31998 -0.24693,-0.43788 -0.576164,-0.43788 -0.267514,0 -0.452712,0.101 -0.535014,0.31998 -0.10294,0.21892 -0.14404,0.55574 -0.14404,1.02728 v 2.20614 c 0.390966,-0.1852 0.7202,-0.30312 1.111178,-0.30312 1.152324,0 1.769648,0.48838 2.098894,1.0441 0.329234,0.55578 0.370394,1.2294 0.370394,1.5662 z m -3.580466,0.53888 c 0,0.1516 0.16462,0.55578 0.679054,0.55578 0.473284,0 0.679052,-0.4042 0.679052,-0.55578 v -3.70494 c 0,-0.1516 -0.205768,-0.55576 -0.679052,-0.55576 -0.473286,0 -0.658482,0.31998 -0.679054,0.50522 z" />
    <path
       inkscape:connector-curvature="0"
       id="path992"
       style="font-style:normal;font-variant:normal;font-weight:normal;font-stretch:normal;font-size:16.9333px;line-height:1.25;font-family:'League Gothic';-inkscape-font-specification:'League Gothic';letter-spacing:0px;word-spacing:0px;fill:#333333;fill-opacity:1;stroke:none;stroke-width:0.304942"
       d="m 103.54914,355.88436 h -3.49484 v -1.88914 h 5.86788 v 1.90682 l -2.32989,11.07008 h -2.41618 z" />
    <path
       inkscape:connector-curvature="0"
       id="path994"
       style="font-style:normal;font-variant:normal;font-weight:normal;font-stretch:normal;font-size:16.9333px;line-height:1.25;font-family:'League Gothic';-inkscape-font-specification:'League Gothic';letter-spacing:0px;word-spacing:0px;fill:#333333;fill-opacity:1;stroke:none;stroke-width:0.3284"
       d="m 122.20296,364.48608 c 0,0.1332 -0.0232,0.51336 -0.1394,0.9697 -0.11622,0.47534 -0.39496,1.00774 -0.88284,1.42602 -0.48789,0.4183 -1.23133,0.74154 -2.32325,0.74154 -1.09195,0 -1.8354,-0.32324 -2.32328,-0.74154 -0.48788,-0.41828 -0.76667,-0.95068 -0.88283,-1.42602 -0.11622,-0.45634 -0.1394,-0.8366 -0.1394,-0.9697 v -1.63518 c 0,-1.04578 0.44142,-2.09152 1.30102,-2.75702 -0.76668,-0.62746 -1.16162,-1.59716 -1.16162,-2.56684 v -1.17886 c 0,-0.1712 0.0232,-0.93166 0.44141,-1.63518 0.41819,-0.70352 1.18486,-1.369 2.76469,-1.369 1.5798,0 2.36972,0.66548 2.78791,1.369 0.41818,0.7035 0.41818,1.46406 0.41818,1.63518 v 1.17886 c 0,0.96968 -0.39496,1.93938 -1.16163,2.56684 0.8596,0.6655 1.30103,1.71126 1.30103,2.75702 z m -2.60205,-7.41538 c 0,-0.64644 -0.0465,-1.1218 -0.11622,-1.44504 -0.0929,-0.32322 -0.30202,-0.47534 -0.62728,-0.47534 -0.27879,0 -0.46464,0.1332 -0.5576,0.4183 -0.20909,0.5514 -0.23232,2.43376 -0.0465,3.09924 0.0697,0.34224 0.27881,0.51338 0.60407,0.51338 0.32526,0 0.53435,-0.1712 0.62727,-0.51338 0.0697,-0.32322 0.11622,-0.85562 0.11622,-1.59716 z m 0.16264,6.59778 c 0,-0.8366 -0.0465,-1.46404 -0.11622,-1.86334 -0.0929,-0.3993 -0.34849,-0.60842 -0.78992,-0.60842 -0.44142,0 -0.69699,0.20912 -0.76669,0.60842 -0.18586,0.8176 -0.16262,2.85204 0.0697,3.4605 0.11622,0.32324 0.3485,0.47534 0.69699,0.47534 0.44143,0 0.69698,-0.1902 0.78992,-0.55138 0.0697,-0.36128 0.11622,-0.87466 0.11622,-1.52112 z" />
    <path
       inkscape:connector-curvature="0"
       id="path996"
       style="font-style:normal;font-variant:normal;font-weight:normal;font-stretch:normal;font-size:16.9333px;line-height:1.25;font-family:'League Gothic';-inkscape-font-specification:'League Gothic';letter-spacing:0px;word-spacing:0px;fill:#333333;fill-opacity:1;stroke:none;stroke-width:0.351856"
       d="m 131.21694,356.07316 c 0,-0.34634 0.0498,-1.1612 0.52273,-1.8946 0.47294,-0.71302 1.31928,-1.34452 2.98704,-1.34452 1.61798,0 2.5141,0.6315 2.98704,1.34452 0.47294,0.7334 0.52273,1.54828 0.52273,1.8946 v 8.51544 c 0,0.55004 -0.0248,1.42604 -0.49785,2.15942 -0.47294,0.75376 -1.31926,1.38528 -3.01192,1.38528 -1.69266,0 -2.53899,-0.6315 -3.01193,-1.38528 -0.47296,-0.73338 -0.49784,-1.60938 -0.49784,-2.15942 v -0.9371 h 2.68833 c 0,0.9982 0.0248,1.65012 0.12452,2.03718 0.0995,0.38706 0.29871,0.52968 0.69697,0.52968 0.32359,0 0.54762,-0.1222 0.67209,-0.38708 0.0995,-0.26482 0.14936,-0.67226 0.14936,-1.24268 v -2.81132 c -0.47295,0.22408 -0.87123,0.36668 -1.34417,0.36668 -1.39394,0 -2.1407,-0.59078 -2.53899,-1.26304 -0.39826,-0.67228 -0.44805,-1.48718 -0.44805,-1.89458 z m 4.3312,-0.6519 c 0,-0.1834 -0.19914,-0.6723 -0.82143,-0.6723 -0.57252,0 -0.82144,0.48894 -0.82144,0.6723 v 4.3392 c 0,0.1834 0.24892,0.67228 0.82144,0.67228 0.57252,0 0.79655,-0.38704 0.82143,-0.61114 z" />
    <g
       style="fill:#333333;fill-opacity:1"
       id="g1002"
       transform="matrix(1.568,0,0,1.283269,-9.5231669,188.22698)">
      <path
         d="m 98.918068,129.90366 v -0.85195 c 0.555625,-0.11113 0.889,-0.39512 1.123602,-0.64206 0.12347,-0.14817 0.22225,-0.30868 0.29633,-0.46919 h 0.80257 v 9.07521 h -1.333502 v -7.11201 z"
         style="font-style:normal;font-variant:normal;font-weight:normal;font-stretch:normal;font-size:12.3472px;line-height:1.25;font-family:'League Gothic';-inkscape-font-specification:'League Gothic';letter-spacing:0px;word-spacing:0px;fill:#333333;fill-opacity:1;stroke:none;stroke-width:0.264583"
         id="path998"
         inkscape:connector-curvature="0" />
      <path
         d="m 105.31547,138.50566 c -0.0127,0.381 -0.0889,0.7239 -0.2286,1.016 -0.1143,0.254 -0.2921,0.4953 -0.5461,0.6858 -0.254,0.2032 -0.5969,0.3175 -1.0541,0.3175 -0.4572,0 -0.8128,-0.1143 -1.0668,-0.3175 -0.254,-0.1905 -0.4191,-0.4318 -0.5334,-0.6858 -0.1397,-0.2921 -0.2159,-0.635 -0.2286,-1.016 v -5.4991 c 0.0127,-0.3683 0.0889,-0.7112 0.2286,-1.0033 0.1143,-0.254 0.2794,-0.508 0.5334,-0.6985 0.254,-0.1905 0.6096,-0.3175 1.0668,-0.3175 0.4572,0 0.8001,0.127 1.0541,0.3175 0.254,0.1905 0.4318,0.4445 0.5461,0.6985 0.1397,0.2921 0.2159,0.635 0.2286,1.0033 z m -1.3716,-5.4991 c 0,-0.254 -0.0508,-0.4318 -0.1778,-0.5842 -0.0635,-0.0635 -0.1651,-0.1016 -0.2794,-0.1016 -0.2413,0 -0.3556,0.1778 -0.4064,0.3429 -0.0381,0.1016 -0.0508,0.2159 -0.0508,0.3429 v 5.4991 c 0,0.2667 0.0635,0.4445 0.1905,0.5842 0.0635,0.0635 0.1524,0.1016 0.2667,0.1016 0.2413,0 0.3556,-0.1524 0.4064,-0.3429 0.0381,-0.0889 0.0508,-0.2032 0.0508,-0.3429 z"
         style="font-style:normal;font-variant:normal;font-weight:normal;font-stretch:normal;font-size:12.7px;line-height:1.25;font-family:'League Gothic';-inkscape-font-specification:'League Gothic';letter-spacing:0px;word-spacing:0px;fill:#333333;fill-opacity:1;stroke:none;stroke-width:0.264583"
         id="path1000"
         inkscape:connector-curvature="0" />
    </g>
    <path
       inkscape:connector-curvature="0"
       id="path1004"
       style="font-style:normal;font-variant:normal;font-weight:normal;font-stretch:normal;font-size:16.9333px;line-height:1.25;font-family:'League Gothic';-inkscape-font-specification:'League Gothic';letter-spacing:0px;word-spacing:0px;fill:#333333;fill-opacity:1;stroke:none;stroke-width:0.39877"
       d="m 164.12365,366.59498 c 0.59243,0.0694 1.0438,-0.046 1.38234,-0.4156 0.16928,-0.1616 0.25389,-0.43866 0.25389,-0.83116 v -13.4373 h 3.04679 v 13.8298 c 0,0.92352 -0.28211,1.7778 -0.98739,2.40116 -0.70527,0.62338 -1.89013,0.9928 -3.69563,0.90042 z" />
    <path
       inkscape:connector-curvature="0"
       id="path1006"
       style="font-style:normal;font-variant:normal;font-weight:normal;font-stretch:normal;font-size:16.9333px;line-height:1.25;font-family:'League Gothic';-inkscape-font-specification:'League Gothic';letter-spacing:0px;word-spacing:0px;fill:#333333;fill-opacity:1;stroke:none;stroke-width:0.422228"
       d="m 186.3221,365.18958 c 0,0.4156 -0.0896,0.88008 -0.26883,1.39346 -0.0896,0.2689 -0.23897,0.51338 -0.38831,0.78226 0.26883,0.29336 0.65714,0.53782 1.28442,0.6356 v 2.24904 c -1.82209,0 -2.74808,-0.63558 -3.31562,-1.39344 -0.44805,0.1222 -0.98572,0.22004 -1.613,0.22004 -1.07533,0 -1.9117,-0.22004 -2.50911,-0.61118 -0.59741,-0.36668 -0.98572,-0.83114 -1.25456,-1.32006 -0.32858,-0.56226 -0.5078,-1.22232 -0.53766,-1.95572 v -10.58522 c 0.0298,-0.70896 0.20908,-1.369 0.53766,-1.93124 0.26884,-0.48894 0.65714,-0.97788 1.25456,-1.34456 0.59741,-0.3667 1.43378,-0.61116 2.50911,-0.61116 1.07534,0 1.88184,0.24446 2.47925,0.61116 0.5974,0.36668 1.01559,0.85562 1.28442,1.34456 0.32858,0.56224 0.50781,1.22228 0.53767,1.93124 z m -3.226,-10.58522 c 0,-0.48894 -0.11942,-0.83118 -0.4182,-1.12452 -0.14942,-0.1222 -0.3883,-0.1956 -0.65714,-0.1956 -0.56753,0 -0.83636,0.34224 -0.95586,0.66002 -0.0896,0.1956 -0.11942,0.4156 -0.11942,0.66006 v 10.58524 c 0,0.51336 0.14942,0.85562 0.44806,1.12454 0.14942,0.1222 0.35844,0.1956 0.62728,0.1956 0.56753,0 0.83636,-0.29336 0.95586,-0.66002 0.0896,-0.1712 0.11942,-0.39116 0.11942,-0.66006 z" />
    <path
       inkscape:connector-curvature="0"
       id="path1008"
       style="font-style:normal;font-variant:normal;font-weight:normal;font-stretch:normal;font-size:16.9333px;line-height:1.25;font-family:'League Gothic';-inkscape-font-specification:'League Gothic';letter-spacing:0px;word-spacing:0px;fill:#333333;fill-opacity:1;stroke:none;stroke-width:0.445684"
       d="m 196.48525,351.00056 v 6.63172 h 0.12606 l 0.15772,-0.30966 2.83769,-6.32206 h 3.31065 l -3.12147,6.24464 3.53135,12.72158 h -3.31064 l -2.36474,-8.25742 -0.0946,-0.38706 h -0.0946 l -0.18918,0.38706 -0.78825,1.54826 v 6.70916 h -3.40522 v -18.96622 z" />
  </g>
</svg>
