<?xml version="1.0" encoding="UTF-8" standalone="no"?>
<svg
   xmlns:dc="http://purl.org/dc/elements/1.1/"
   xmlns:cc="http://creativecommons.org/ns#"
   xmlns:rdf="http://www.w3.org/1999/02/22-rdf-syntax-ns#"
   xmlns:svg="http://www.w3.org/2000/svg"
   xmlns="http://www.w3.org/2000/svg"
   xmlns:sodipodi="http://sodipodi.sourceforge.net/DTD/sodipodi-0.dtd"
   xmlns:inkscape="http://www.inkscape.org/namespaces/inkscape"
   inkscape:export-ydpi="96"
   inkscape:export-xdpi="96"
   inkscape:export-filename="/Users/lachlan/Documents/pixitest1/build/assets/Cards.png"
   inkscape:version="1.0 (4035a4f, 2020-05-01)"
   sodipodi:docname="Cards.svg"
   id="svg8"
   version="1.1"
   viewBox="0 0 142.87494 63.499997"
   height="240"
   width="540">
  <defs
     id="defs2" />
  <sodipodi:namedview
     inkscape:document-rotation="0"
     units="px"
     inkscape:window-maximized="1"
     inkscape:window-y="23"
     inkscape:window-x="0"
     inkscape:window-height="786"
     inkscape:window-width="1440"
     fit-margin-bottom="0"
     fit-margin-right="0"
     fit-margin-left="0"
     fit-margin-top="0"
     inkscape:snap-global="true"
     inkscape:guide-bbox="true"
     showguides="true"
     showgrid="true"
     inkscape:current-layer="layer1"
     inkscape:document-units="mm"
     inkscape:cy="164.1012"
     inkscape:cx="196.95327"
     inkscape:zoom="1.8455855"
     inkscape:pageshadow="2"
     inkscape:pageopacity="0.0"
     borderopacity="1.0"
     bordercolor="#666666"
     pagecolor="#ffffff"
     id="base">
    <sodipodi:guide
       inkscape:locked="false"
       id="guide3807"
       orientation="0,1"
       position="27.81315,169.66963" />
    <sodipodi:guide
       inkscape:locked="false"
       id="guide3809"
       orientation="0,1"
       position="38.212049,159.42824" />
    <inkscape:grid
       originy="-7.6293942e-06"
       dotted="false"
       snapvisiblegridlinesonly="true"
       spacingy="12.699997"
       empspacing="1"
       empopacity="0.41960784"
       empcolor="#3f3fff"
       spacingx="7.9374997"
       originx="0"
       id="grid3919"
       type="xygrid" />
  </sodipodi:namedview>
  <metadata
     id="metadata5">
    <rdf:RDF>
      <cc:Work
         rdf:about="">
        <dc:format>image/svg+xml</dc:format>
        <dc:type
           rdf:resource="http://purl.org/dc/dcmitype/StillImage" />
        <dc:title></dc:title>
      </cc:Work>
    </rdf:RDF>
  </metadata>
  <g
     transform="translate(0,-258.90002)"
     id="layer1"
     inkscape:groupmode="layer"
     inkscape:label="Layer 1">
    <rect
       rx="0.95323128"
       ry="0.95323128"
       y="259.10828"
       x="32.104046"
       height="12.283461"
       width="15.251957"
       id="rect3921"
       style="fill:#999999;fill-opacity:1;stroke:#000000;stroke-width:0.255905;stroke-linecap:butt;stroke-linejoin:bevel;stroke-miterlimit:4;stroke-dasharray:none" />
    <path
       d="m 19.692065,260.00446 q 0.159532,0.93174 0.490873,1.66506 0.331339,0.73332 1.178098,1.82036 0.852891,1.0784 1.07992,1.65643 0.22703,0.57803 0.22703,1.17332 0,0.82822 -0.392701,1.38036 -0.392697,0.55215 -0.957201,0.55215 -0.478603,0 -0.871302,-0.41412 -0.386562,-0.42273 -0.687221,-1.22507 0.0062,1.26821 0.233164,2.01879 0.233165,0.74194 0.736309,1.17331 0.509282,0.42274 1.349902,0.50039 l 0.04296,0.3192 h -4.865783 l 0.04909,-0.3192 q 1.129007,0 1.748736,-0.92312 0.625862,-0.93175 0.601321,-2.76937 -0.276117,0.8196 -0.687224,1.2337 -0.404972,0.40549 -0.920388,0.40549 -0.552231,0 -0.951068,-0.56079 -0.392697,-0.56076 -0.392697,-1.34585 0,-0.62979 0.202484,-1.1388 0.276117,-0.70743 0.895844,-1.42349 0.619726,-0.71608 0.914251,-1.18195 0.447922,-0.71605 0.650408,-1.27683 0.208619,-0.56076 0.325202,-1.31997 z"
       style="font-style:normal;font-variant:normal;font-weight:normal;font-stretch:normal;font-size:16.9333px;line-height:1.25;font-family:NoCurvesBoustrophedon;-inkscape-font-specification:NoCurvesBoustrophedon;letter-spacing:0px;word-spacing:0px;fill:#000000;fill-opacity:1;stroke:none;stroke-width:0.232823"
       id="path3733"
       inkscape:connector-curvature="0" />
    <path
       d="m 30.064639,270.62464 h -4.358406 l 0.04112,-0.29332 q 0.84804,-0.30196 1.12558,-0.59529 0.416309,-0.43999 0.67843,-1.30271 0.267262,-0.86273 0.267262,-1.82035 0,-0.13804 -0.0052,-0.39686 -0.313519,1.06979 -0.765807,1.56154 -0.447148,0.49173 -0.914854,0.49173 -0.596197,0 -1.012507,-0.6988 -0.416311,-0.6988 -0.416311,-1.71681 0,-1.00077 0.380334,-1.68232 0.380333,-0.69019 0.863459,-0.69019 0.308376,0 0.837758,0.44 -0.215864,-0.60392 -0.282679,-0.90588 -0.06167,-0.31057 -0.06167,-0.66429 0,-0.98352 0.406032,-1.66506 0.40603,-0.68156 1.012506,-0.68156 0.606476,0 1.017647,0.68156 0.41631,0.68154 0.41631,1.62193 0,0.76782 -0.354635,1.6133 0.431728,-0.34509 0.519102,-0.38823 0.13877,-0.069 0.313517,-0.069 0.513964,0 0.889152,0.68156 0.380335,0.67292 0.380335,1.6737 0,1.03528 -0.416308,1.7427 -0.411171,0.69883 -0.991948,0.69883 -0.323797,0 -0.668154,-0.25883 -0.339214,-0.26746 -0.591055,-0.70744 -0.179887,-0.31921 -0.447148,-1.07841 0.02055,1.37173 0.246702,2.17407 0.231282,0.79372 0.704129,1.31998 0.318658,0.35372 1.146137,0.62116 z"
       style="font-style:normal;font-variant:normal;font-weight:normal;font-stretch:normal;font-size:16.93329999999999913px;line-height:1.25;font-family:NoCurvesBoustrophedon;-inkscape-font-specification:NoCurvesBoustrophedon;letter-spacing:0px;word-spacing:0px;fill:#333333;fill-opacity:1;stroke:none;stroke-width:0.213085"
       id="path3735"
       inkscape:connector-curvature="0" />
    <path
       d="m 3.8919719,270.72817 q -0.190214,-1.01801 -0.546097,-1.90663 -0.349746,-0.89724 -1.362173,-2.77798 -0.742446,-1.38037 -0.914251,-1.75134 -0.28225197,-0.60392 -0.41110597,-1.10429 -0.122719,-0.50902 -0.122719,-1.02665 0,-0.95763 0.454058,-1.60467 0.45405797,-0.64705 1.12287297,-0.64705 0.674949,0 1.17196,0.67293 0.374291,0.50038 0.607455,1.49253 0.202485,-0.97489 0.57064,-1.48391 0.509281,-0.69018 1.178095,-0.69018 0.662678,0 1.122872,0.64705 0.460195,0.63842 0.460195,1.52704 0,0.77645 -0.269982,1.62192 -0.269981,0.83683 -1.043104,2.19995 -1.006292,1.78584 -1.466487,2.93328 -0.362019,0.90585 -0.552229,1.898 z"
       style="font-style:normal;font-variant:normal;font-weight:normal;font-stretch:normal;font-size:16.93329999999999913px;line-height:1.25;font-family:NoCurvesBoustrophedon;-inkscape-font-specification:NoCurvesBoustrophedon;letter-spacing:0px;word-spacing:0px;fill:#c83737;fill-opacity:1;stroke:none;stroke-width:0.232823"
       id="path3737"
       inkscape:connector-curvature="0" />
    <path
       d="m 11.770547,259.90093 q 0.546095,1.3027 1.343766,2.79524 0.92039,1.72545 1.484891,2.61407 -0.45406,0.67292 -1.484891,2.60543 -0.834486,1.57016 -1.337628,2.8125 -0.165675,-0.44862 -0.45406,-1.04391 -0.497008,-1.03527 -1.233321,-2.407 -0.1595333,-0.30197 -1.1228723,-1.96702 0.619727,-0.99215 1.5953393,-2.82976 0.724038,-1.36311 1.208776,-2.57955 z"
       style="font-style:normal;font-variant:normal;font-weight:normal;font-stretch:normal;font-size:16.9333px;line-height:1.25;font-family:NoCurvesBoustrophedon;-inkscape-font-specification:NoCurvesBoustrophedon;letter-spacing:0px;word-spacing:0px;fill:#800000;fill-opacity:1;stroke:none;stroke-width:0.232823"
       id="path3739"
       inkscape:connector-curvature="0" />
    <path
       d="M 0.88250043,282.97584 2.7621004,272.78989 h 2.2352 l 1.879599,10.18595 h -1.777999 l -0.338667,-2.07877 h -1.761067 l -0.338666,2.07877 z m 3.09879997,-6.87379 -0.0508,-0.26331 h -0.1016 l -0.0508,0.26331 -0.524934,3.21516 h 1.253067 z"
       style="font-style:normal;font-variant:normal;font-weight:normal;font-stretch:normal;font-size:16.93329999999999913px;line-height:1.25;font-family:'League Gothic';-inkscape-font-specification:'League Gothic';letter-spacing:0px;word-spacing:0px;fill:#c83737;fill-opacity:1;stroke:none;stroke-width:0.239358"
       id="path3760"
       inkscape:connector-curvature="0" />
    <path
       d="m 9.384383,276.07434 v -0.70679 c 0,-0.67905 0.118533,-1.34426 0.474133,-1.8293 0.355601,-0.48504 0.9652,-0.8038 1.964267,-0.8038 0.931333,0 1.557866,0.29104 1.9304,0.73451 0.372533,0.45733 0.508,1.09481 0.508,1.80159 0,1.03939 -0.474134,2.27278 -1.0668,3.42303 -0.6096,1.16411 -1.3208,2.20349 -1.794934,2.85484 h 2.8956 v 1.48286 H 9.333583 v -1.48286 c 0.5588,-0.70678 1.0668,-1.42741 1.524,-2.14806 0.389466,-0.60976 0.761999,-1.30269 1.049865,-2.00947 0.287867,-0.70678 0.508,-1.3997 0.524934,-2.02333 0,-0.27716 -0.01693,-0.59591 -0.1016,-0.83151 -0.08467,-0.23558 -0.237067,-0.41575 -0.507999,-0.41575 -0.254,0 -0.4064,0.15245 -0.491067,0.37418 -0.08467,0.23559 -0.118533,0.54048 -0.118533,0.87308 v 0.70678 z"
       style="font-style:normal;font-variant:normal;font-weight:normal;font-stretch:normal;font-size:16.93329999999999913px;line-height:1.25;font-family:'League Gothic';-inkscape-font-specification:'League Gothic';letter-spacing:0px;word-spacing:0px;fill:#c83737;fill-opacity:1;stroke:none;stroke-width:0.239358"
       id="path3762"
       inkscape:connector-curvature="0" />
    <path
       d="m 18.842993,278.37487 v -1.24726 c 0.762,-0.0416 1.1176,-0.16631 1.27,-0.45733 0.08467,-0.13857 0.118533,-0.31875 0.118533,-0.54049 0,-0.22173 0,-0.49889 0,-0.81764 0,-0.29104 0,-0.60977 -0.06773,-0.87308 -0.06773,-0.2633 -0.220133,-0.44346 -0.508,-0.44346 -0.220133,0 -0.3556,0.0831 -0.423333,0.34646 -0.08467,0.27717 -0.118534,0.70678 -0.118534,1.38584 h -1.794933 c 0,-0.56819 0.01693,-1.34426 0.321733,-1.96789 0.3048,-0.60978 0.8636,-1.08096 2.015067,-1.08096 1.151467,0 1.744133,0.48505 2.048933,0.9978 0.3048,0.51276 0.321734,1.0671 0.321734,1.19183 0,1.51056 -0.321734,2.23121 -0.880534,2.68853 l -0.01693,0.0138 c 0.880533,0.56819 1.049867,1.62143 1.049867,2.7994 0,0.0416 0,0.13858 -0.01693,0.29102 -0.01693,0.29103 -0.118533,0.72064 -0.3048,1.16411 -0.2032,0.44348 -0.541866,0.84536 -1.0668,1.08096 -0.270933,0.12473 -0.592666,0.18016 -0.982133,0.18016 -1.151467,0 -1.744133,-0.47119 -2.065867,-1.09482 -0.321733,-0.60977 -0.3556,-1.38584 -0.3556,-1.95404 h 1.794934 c 0,0.67907 0.0508,1.10868 0.1524,1.372 0.1016,0.27717 0.254,0.36032 0.474133,0.36032 0.287867,0 0.440267,-0.18016 0.508,-0.42962 0.06773,-0.24945 0.06773,-0.56819 0.06773,-0.8592 0,-0.31875 0,-0.60978 0.01693,-0.87308 0,-0.49891 -0.118534,-0.84537 -0.508,-1.05325 -0.2032,-0.097 -0.508,-0.1663 -0.897467,-0.18016 z"
       style="font-style:normal;font-variant:normal;font-weight:normal;font-stretch:normal;font-size:16.93329999999999913px;line-height:1.25;font-family:'League Gothic';-inkscape-font-specification:'League Gothic';letter-spacing:0px;word-spacing:0px;fill:#c83737;fill-opacity:1;stroke:none;stroke-width:0.239358"
       id="path3764"
       inkscape:connector-curvature="0" />
    <path
       d="m 27.835948,280.75848 h -2.827866 v -1.31654 l 2.675466,-6.65205 h 1.8288 v 6.65205 h 0.846668 v 1.31654 h -0.846668 v 2.21736 h -1.6764 z m -1.269999,-1.31654 h 1.269999 v -3.49233 h -0.1016 l -0.1016,0.30489 z"
       style="font-style:normal;font-variant:normal;font-weight:normal;font-stretch:normal;font-size:16.93329999999999913px;line-height:1.25;font-family:'League Gothic';-inkscape-font-specification:'League Gothic';letter-spacing:0px;word-spacing:0px;fill:#c83737;fill-opacity:1;stroke:none;stroke-width:0.239358"
       id="path3766"
       inkscape:connector-curvature="0" />
    <path
       d="m 36.176961,278.09767 c 0,-0.42959 -0.18627,-0.74835 -0.57573,-0.74835 -0.2032,0 -0.37254,0.12472 -0.508,0.27716 -0.13547,0.16631 -0.2032,0.36033 -0.2032,0.4712 h -1.540938 v -5.3632 h 4.419599 v 1.48285 h -2.844791 v 2.12034 c 0.2032,-0.12473 0.42333,-0.2356 0.67733,-0.30489 0.11853,-0.0416 0.254,-0.0554 0.37253,-0.0416 0.948271,0 1.456271,0.44346 1.727201,0.9285 0.27093,0.48505 0.3048,1.01168 0.3048,1.17797 v 2.27278 c 0,0.48505 -0.0339,1.13641 -0.3556,1.67689 -0.32173,0.55432 -0.93133,0.98393 -2.032001,0.98393 -1.13453,0 -1.710268,-0.42961 -2.031998,-1.03937 -0.32173,-0.59592 -0.3556,-1.35813 -0.3556,-2.03721 h 1.828798 v 0.4019 c 0,0.51276 0.0339,0.87308 0.11854,1.06712 0.0847,0.20787 0.22013,0.30488 0.44026,0.30488 0.18627,0 0.33867,-0.097 0.42333,-0.29104 0.0847,-0.19402 0.13547,-0.55432 0.13547,-1.06711 z"
       style="font-style:normal;font-variant:normal;font-weight:normal;font-stretch:normal;font-size:16.93329999999999913px;line-height:1.25;font-family:'League Gothic';-inkscape-font-specification:'League Gothic';letter-spacing:0px;word-spacing:0px;fill:#c83737;fill-opacity:1;stroke:none;stroke-width:0.239358"
       id="path3768"
       inkscape:connector-curvature="0" />
    <path
       d="m 45.94038,280.88321 c 0,0.2356 -0.0339,0.78993 -0.355601,1.27498 -0.32173,0.4989 -0.93133,0.92851 -2.031999,0.92851 -1.13453,0 -1.71027,-0.42961 -2.032,-0.92851 -0.32173,-0.48505 -0.3556,-1.03938 -0.3556,-1.27498 v -5.79282 c 0,-0.34646 0.0169,-0.97009 0.33867,-1.48286 0.32173,-0.49889 0.89746,-0.9285 2.04893,-0.9285 1.15147,0 1.7272,0.42961 2.04893,0.9285 0.321739,0.51277 0.33867,1.13641 0.33867,1.48286 v 0.63748 h -1.828801 c 0,-0.67905 -0.0169,-1.12253 -0.0847,-1.38584 -0.0677,-0.2633 -0.203201,-0.36032 -0.474131,-0.36032 -0.22014,0 -0.37254,0.0832 -0.440269,0.26332 -0.0847,0.18015 -0.11853,0.45732 -0.11853,0.84536 v 1.81545 c 0.32173,-0.15244 0.59266,-0.24945 0.9144,-0.24945 0.948259,0 1.45626,0.40189 1.7272,0.85922 0.27093,0.45733 0.3048,1.01167 0.3048,1.28883 z m -2.9464,0.44347 c 0,0.12473 0.13547,0.45733 0.5588,0.45733 0.38947,0 0.558799,-0.3326 0.558799,-0.45733 v -3.04885 c 0,-0.12473 -0.16933,-0.45733 -0.558799,-0.45733 -0.389471,0 -0.541871,0.26331 -0.5588,0.41575 z"
       style="font-style:normal;font-variant:normal;font-weight:normal;font-stretch:normal;font-size:16.93329999999999913px;line-height:1.25;font-family:'League Gothic';-inkscape-font-specification:'League Gothic';letter-spacing:0px;word-spacing:0px;fill:#c83737;fill-opacity:1;stroke:none;stroke-width:0.239358"
       id="path3770"
       inkscape:connector-curvature="0" />
    <path
       d="m 51.927664,274.27274 h -2.7432 v -1.48285 h 4.60587 v 1.49671 l -1.8288,8.68924 h -1.896529 z"
       style="font-style:normal;font-variant:normal;font-weight:normal;font-stretch:normal;font-size:16.93329999999999913px;line-height:1.25;font-family:'League Gothic';-inkscape-font-specification:'League Gothic';letter-spacing:0px;word-spacing:0px;fill:#c83737;fill-opacity:1;stroke:none;stroke-width:0.239358"
       id="path3772"
       inkscape:connector-curvature="0" />
    <path
       d="m 61.860409,280.80007 c 0,0.097 -0.0169,0.37417 -0.101599,0.70678 -0.0847,0.34646 -0.28787,0.7345 -0.64347,1.03938 -0.355601,0.30489 -0.89747,0.54048 -1.693331,0.54048 -0.79587,0 -1.337739,-0.23559 -1.69334,-0.54048 -0.3556,-0.30488 -0.558799,-0.69292 -0.643459,-1.03938 -0.0847,-0.33261 -0.1016,-0.60977 -0.1016,-0.70678 v -1.19183 c 0,-0.76223 0.32173,-1.52442 0.94826,-2.00947 -0.5588,-0.45734 -0.84666,-1.16411 -0.84666,-1.8709 v -0.8592 c 0,-0.12473 0.0169,-0.67907 0.32173,-1.19184 0.3048,-0.51276 0.8636,-0.99781 2.01507,-0.99781 1.15146,0 1.7272,0.48505 2.032,0.99781 0.3048,0.51275 0.3048,1.06711 0.3048,1.19184 v 0.8592 c 0,0.70679 -0.28787,1.41355 -0.846671,1.8709 0.626531,0.48505 0.94827,1.24726 0.94827,2.00947 z m -1.89654,-5.40479 c 0,-0.47118 -0.0339,-0.81764 -0.0847,-1.05324 -0.0677,-0.23559 -0.220129,-0.34646 -0.4572,-0.34646 -0.2032,0 -0.338659,0.097 -0.406399,0.30489 -0.1524,0.40189 -0.169331,1.77388 -0.0339,2.25892 0.0508,0.24945 0.203201,0.37418 0.44027,0.37418 0.23707,0 0.38947,-0.12473 0.4572,-0.37418 0.0508,-0.23559 0.0847,-0.62363 0.0847,-1.16411 z m 0.118541,4.80888 c 0,-0.60977 -0.0339,-1.06712 -0.0847,-1.35813 -0.0677,-0.29103 -0.254,-0.44346 -0.575741,-0.44346 -0.32173,0 -0.508,0.15243 -0.558799,0.44346 -0.135461,0.59592 -0.11853,2.07876 0.0508,2.52224 0.0847,0.23559 0.254,0.34646 0.508,0.34646 0.32174,0 0.508,-0.13859 0.57574,-0.40189 0.0508,-0.26332 0.0847,-0.6375 0.0847,-1.10868 z"
       style="font-style:normal;font-variant:normal;font-weight:normal;font-stretch:normal;font-size:16.93329999999999913px;line-height:1.25;font-family:'League Gothic';-inkscape-font-specification:'League Gothic';letter-spacing:0px;word-spacing:0px;fill:#c83737;fill-opacity:1;stroke:none;stroke-width:0.239358"
       id="path3774"
       inkscape:connector-curvature="0" />
    <path
       d="m 64.969027,274.88251 c 0,-0.2356 0.0339,-0.78992 0.3556,-1.28882 0.321731,-0.48505 0.89747,-0.91466 2.032,-0.91466 1.10067,0 1.71027,0.42961 2.032,0.91466 0.32173,0.4989 0.3556,1.05323 0.3556,1.28882 v 5.79283 c 0,0.37418 -0.0169,0.9701 -0.33867,1.46899 -0.32173,0.51275 -0.89746,0.94238 -2.04893,0.94238 -1.15147,0 -1.7272,-0.42961 -2.04893,-0.94238 -0.32174,-0.49889 -0.33867,-1.09481 -0.33867,-1.46899 v -0.6375 h 1.8288 c 0,0.67906 0.0169,1.12253 0.0847,1.38584 0.0677,0.2633 0.2032,0.36032 0.47413,0.36032 0.22013,0 0.37253,-0.0831 0.4572,-0.2633 0.0677,-0.18016 0.1016,-0.45734 0.1016,-0.84537 v -1.91247 c -0.32173,0.15244 -0.59267,0.24944 -0.9144,0.24944 -0.94826,0 -1.45626,-0.40189 -1.7272,-0.85921 -0.27093,-0.45733 -0.3048,-1.01168 -0.3048,-1.28882 z m 2.9464,-0.44346 c 0,-0.12473 -0.13547,-0.45734 -0.5588,-0.45734 -0.38947,0 -0.5588,0.33261 -0.5588,0.45734 v 2.95184 c 0,0.12473 0.169331,0.45734 0.5588,0.45734 0.38947,0 0.54187,-0.26331 0.5588,-0.41576 z"
       style="font-style:normal;font-variant:normal;font-weight:normal;font-stretch:normal;font-size:16.93329999999999913px;line-height:1.25;font-family:'League Gothic';-inkscape-font-specification:'League Gothic';letter-spacing:0px;word-spacing:0px;fill:#c83737;fill-opacity:1;stroke:none;stroke-width:0.239358"
       id="path3776"
       inkscape:connector-curvature="0" />
    <g
       style="fill:#c83737;fill-opacity:1"
       transform="matrix(1,0,0,0.81841136,-26.825531,168.02529)"
       id="g3805">
      <path
         inkscape:connector-curvature="0"
         id="path3778"
         style="font-style:normal;font-variant:normal;font-weight:normal;font-stretch:normal;font-size:12.34720000000000084px;line-height:1.25;font-family:'League Gothic';-inkscape-font-specification:'League Gothic';letter-spacing:0px;word-spacing:0px;fill:#c83737;fill-opacity:1;stroke:none;stroke-width:0.264583"
         d="m 98.918068,129.90366 v -0.85195 c 0.555625,-0.11113 0.889,-0.39512 1.123602,-0.64206 0.12347,-0.14817 0.22225,-0.30868 0.29633,-0.46919 h 0.80257 v 9.07521 h -1.333502 v -7.11201 z" />
      <path
         inkscape:connector-curvature="0"
         id="path3780"
         style="font-style:normal;font-variant:normal;font-weight:normal;font-stretch:normal;font-size:12.69999999999999929px;line-height:1.25;font-family:'League Gothic';-inkscape-font-specification:'League Gothic';letter-spacing:0px;word-spacing:0px;fill:#c83737;fill-opacity:1;stroke:none;stroke-width:0.264583"
         d="m 105.31547,138.50566 c -0.0127,0.381 -0.0889,0.7239 -0.2286,1.016 -0.1143,0.254 -0.2921,0.4953 -0.5461,0.6858 -0.254,0.2032 -0.5969,0.3175 -1.0541,0.3175 -0.4572,0 -0.8128,-0.1143 -1.0668,-0.3175 -0.254,-0.1905 -0.4191,-0.4318 -0.5334,-0.6858 -0.1397,-0.2921 -0.2159,-0.635 -0.2286,-1.016 v -5.4991 c 0.0127,-0.3683 0.0889,-0.7112 0.2286,-1.0033 0.1143,-0.254 0.2794,-0.508 0.5334,-0.6985 0.254,-0.1905 0.6096,-0.3175 1.0668,-0.3175 0.4572,0 0.8001,0.127 1.0541,0.3175 0.254,0.1905 0.4318,0.4445 0.5461,0.6985 0.1397,0.2921 0.2159,0.635 0.2286,1.0033 z m -1.3716,-5.4991 c 0,-0.254 -0.0508,-0.4318 -0.1778,-0.5842 -0.0635,-0.0635 -0.1651,-0.1016 -0.2794,-0.1016 -0.2413,0 -0.3556,0.1778 -0.4064,0.3429 -0.0381,0.1016 -0.0508,0.2159 -0.0508,0.3429 v 5.4991 c 0,0.2667 0.0635,0.4445 0.1905,0.5842 0.0635,0.0635 0.1524,0.1016 0.2667,0.1016 0.2413,0 0.3556,-0.1524 0.4064,-0.3429 0.0381,-0.0889 0.0508,-0.2032 0.0508,-0.3429 z" />
    </g>
    <path
       d="m 81.820391,281.55113 c 0.3556,0.0416 0.62653,-0.0277 0.82973,-0.24945 0.1016,-0.097 0.1524,-0.26331 0.1524,-0.4989 v -8.06561 h 1.8288 v 8.3012 c 0,0.55434 -0.16933,1.0671 -0.59267,1.44128 -0.42333,0.37417 -1.13453,0.59591 -2.21826,0.54047 z"
       style="font-style:normal;font-variant:normal;font-weight:normal;font-stretch:normal;font-size:16.93329999999999913px;line-height:1.25;font-family:'League Gothic';-inkscape-font-specification:'League Gothic';letter-spacing:0px;word-spacing:0px;fill:#c83737;fill-opacity:1;stroke:none;stroke-width:0.239358"
       id="path3782"
       inkscape:connector-curvature="0" />
    <path
       d="m 93.421076,280.55062 c 0,0.2356 -0.0508,0.4989 -0.1524,0.78993 -0.0508,0.15244 -0.13547,0.29103 -0.220129,0.44346 0.1524,0.16631 0.372529,0.30489 0.728129,0.36032 v 1.27497 c -1.032929,0 -1.55787,-0.36031 -1.8796,-0.78993 -0.254,0.0693 -0.5588,0.12473 -0.9144,0.12473 -0.6096,0 -1.08373,-0.12473 -1.422399,-0.34646 -0.33867,-0.20787 -0.558801,-0.47118 -0.711201,-0.74834 -0.186269,-0.31875 -0.28787,-0.69293 -0.3048,-1.10868 v -6.0007 c 0.0169,-0.4019 0.118531,-0.77607 0.3048,-1.09481 0.1524,-0.27717 0.37253,-0.55435 0.711201,-0.76222 0.338669,-0.20788 0.812799,-0.34646 1.422399,-0.34646 0.6096,0 1.0668,0.13858 1.40547,0.34646 0.33866,0.20787 0.57573,0.48505 0.72813,0.76222 0.18627,0.31874 0.28787,0.69291 0.3048,1.09481 z m -1.8288,-6.0007 c 0,-0.27717 -0.0677,-0.47118 -0.23707,-0.63748 -0.0847,-0.0693 -0.22013,-0.11088 -0.37253,-0.11088 -0.32173,0 -0.47413,0.19402 -0.54187,0.37417 -0.0508,0.11087 -0.0677,0.2356 -0.0677,0.37418 v 6.0007 c 0,0.29103 0.0847,0.48505 0.254,0.63749 0.0847,0.0693 0.2032,0.11086 0.3556,0.11086 0.32173,0 0.47413,-0.1663 0.54187,-0.37416 0.0508,-0.097 0.0677,-0.22175 0.0677,-0.37418 z"
       style="font-style:normal;font-variant:normal;font-weight:normal;font-stretch:normal;font-size:16.93329999999999913px;line-height:1.25;font-family:'League Gothic';-inkscape-font-specification:'League Gothic';letter-spacing:0px;word-spacing:0px;fill:#c83737;fill-opacity:1;stroke:none;stroke-width:0.239358"
       id="path3784"
       inkscape:connector-curvature="0" />
    <path
       d="m 98.172216,272.78989 v 3.56161 h 0.0677 l 0.0847,-0.1663 1.524,-3.39531 h 1.778014 l -1.676411,3.35374 1.896541,6.83221 h -1.77801 l -1.270004,-4.4347 -0.0508,-0.20788 h -0.0508 l -0.1016,0.20788 -0.42333,0.8315 v 3.6032 h -1.8288 v -10.18595 z"
       style="font-style:normal;font-variant:normal;font-weight:normal;font-stretch:normal;font-size:16.93329999999999913px;line-height:1.25;font-family:'League Gothic';-inkscape-font-specification:'League Gothic';letter-spacing:0px;word-spacing:0px;fill:#c83737;fill-opacity:1;stroke:none;stroke-width:0.239358"
       id="path3786"
       inkscape:connector-curvature="0" />
    <path
       inkscape:connector-curvature="0"
       id="path3811"
       style="font-style:normal;font-variant:normal;font-weight:normal;font-stretch:normal;font-size:16.9333px;line-height:1.25;font-family:'League Gothic';-inkscape-font-specification:'League Gothic';letter-spacing:0px;word-spacing:0px;fill:#800000;fill-opacity:1;stroke:none;stroke-width:0.239358"
       d="M 0.88250039,295.84067 2.7621004,285.65472 h 2.2352 l 1.8796,10.18595 h -1.778 l -0.33867,-2.07877 h -1.76106 l -0.33867,2.07877 z m 3.09880001,-6.87379 -0.0508,-0.26331 h -0.1016 l -0.0508,0.26331 -0.52493,3.21516 h 1.25306 z" />
    <path
       inkscape:connector-curvature="0"
       id="path3813"
       style="font-style:normal;font-variant:normal;font-weight:normal;font-stretch:normal;font-size:16.9333px;line-height:1.25;font-family:'League Gothic';-inkscape-font-specification:'League Gothic';letter-spacing:0px;word-spacing:0px;fill:#800000;fill-opacity:1;stroke:none;stroke-width:0.239358"
       d="m 9.3843809,288.93916 v -0.70678 c 0,-0.67906 0.11854,-1.34427 0.47414,-1.82931 0.3556011,-0.48504 0.9652011,-0.80379 1.9642601,-0.80379 0.93134,0 1.557869,0.29103 1.9304,0.7345 0.37254,0.45734 0.508,1.09481 0.508,1.80159 0,1.03939 -0.47413,2.27279 -1.0668,3.42304 -0.6096,1.16411 -1.3208,2.20348 -1.79493,2.85484 h 2.8956 v 1.48285 H 9.3335809 v -1.48285 c 0.5588,-0.70679 1.0668001,-1.42742 1.5240011,-2.14806 0.38947,-0.60975 0.761998,-1.30268 1.049868,-2.00945 0.28787,-0.7068 0.508,-1.3997 0.52493,-2.02333 0,-0.27716 -0.0169,-0.59591 -0.1016,-0.83151 -0.0847,-0.23558 -0.237059,-0.41575 -0.507999,-0.41575 -0.254,0 -0.4064,0.15244 -0.49106,0.37418 -0.0847,0.23559 -0.118539,0.54048 -0.118539,0.87307 v 0.70678 z" />
    <path
       inkscape:connector-curvature="0"
       id="path3815"
       style="font-style:normal;font-variant:normal;font-weight:normal;font-stretch:normal;font-size:16.9333px;line-height:1.25;font-family:'League Gothic';-inkscape-font-specification:'League Gothic';letter-spacing:0px;word-spacing:0px;fill:#800000;fill-opacity:1;stroke:none;stroke-width:0.239358"
       d="m 18.842943,291.23971 v -1.24726 c 0.762,-0.0416 1.117599,-0.1663 1.269999,-0.45733 0.0847,-0.13858 0.11854,-0.31875 0.11854,-0.54048 0,-0.22173 0,-0.4989 0,-0.81765 0,-0.29103 0,-0.60977 -0.0677,-0.87308 -0.0677,-0.26331 -0.22014,-0.44347 -0.507999,-0.44347 -0.22014,0 -0.355601,0.0831 -0.423341,0.34646 -0.0847,0.27718 -0.11853,0.7068 -0.11853,1.38583 h -1.794929 c 0,-0.56817 0.0169,-1.34424 0.32173,-1.96789 0.3048,-0.60978 0.863599,-1.08096 2.01507,-1.08096 1.15146,0 1.74413,0.48505 2.04893,0.99781 0.3048,0.51277 0.321729,1.0671 0.321729,1.19183 0,1.51056 -0.321729,2.2312 -0.88053,2.68853 l -0.0169,0.0138 c 0.88053,0.5682 1.04987,1.62144 1.04987,2.7994 0,0.0416 0,0.13858 -0.0169,0.29102 -0.0169,0.29103 -0.11854,0.72064 -0.3048,1.16411 -0.2032,0.44349 -0.54187,0.84537 -1.0668,1.08096 -0.27094,0.12473 -0.59267,0.18016 -0.98214,0.18016 -1.15146,0 -1.74413,-0.47118 -2.06586,-1.09482 -0.32174,-0.60977 -0.3556,-1.38584 -0.3556,-1.95403 h 1.79493 c 0,0.67906 0.0508,1.10867 0.1524,1.372 0.1016,0.27717 0.254,0.36032 0.47413,0.36032 0.28787,0 0.44027,-0.18016 0.508,-0.42962 0.0677,-0.24945 0.0677,-0.56819 0.0677,-0.8592 0,-0.31875 0,-0.60978 0.0169,-0.87308 0,-0.49891 -0.11853,-0.84537 -0.508,-1.05325 -0.2032,-0.097 -0.508,-0.16629 -0.89746,-0.18016 z" />
    <path
       inkscape:connector-curvature="0"
       id="path3817"
       style="font-style:normal;font-variant:normal;font-weight:normal;font-stretch:normal;font-size:16.9333px;line-height:1.25;font-family:'League Gothic';-inkscape-font-specification:'League Gothic';letter-spacing:0px;word-spacing:0px;fill:#800000;fill-opacity:1;stroke:none;stroke-width:0.239358"
       d="m 27.835951,293.62331 h -2.82787 v -1.31654 l 2.67547,-6.65205 h 1.8288 v 6.65205 h 0.846668 v 1.31654 h -0.846668 v 2.21736 h -1.6764 z m -1.269999,-1.31654 h 1.269999 v -3.49233 h -0.1016 l -0.1016,0.30489 z" />
    <path
       inkscape:connector-curvature="0"
       id="path3819"
       style="font-style:normal;font-variant:normal;font-weight:normal;font-stretch:normal;font-size:16.9333px;line-height:1.25;font-family:'League Gothic';-inkscape-font-specification:'League Gothic';letter-spacing:0px;word-spacing:0px;fill:#800000;fill-opacity:1;stroke:none;stroke-width:0.239358"
       d="m 36.176963,290.9625 c 0,-0.4296 -0.18627,-0.74835 -0.57573,-0.74835 -0.203201,0 -0.372541,0.12471 -0.508001,0.27718 -0.13547,0.16629 -0.2032,0.36032 -0.2032,0.47118 h -1.54094 v -5.3632 h 4.4196 v 1.48284 h -2.84479 v 2.12034 c 0.2032,-0.12473 0.42333,-0.23559 0.67733,-0.30489 0.11853,-0.0416 0.254,-0.0554 0.37253,-0.0416 0.94827,0 1.45627,0.44347 1.7272,0.92851 0.27093,0.48505 0.3048,1.01167 0.3048,1.17798 v 2.27278 c 0,0.48505 -0.0339,1.13639 -0.3556,1.67687 -0.32173,0.55433 -0.93133,0.98395 -2.032,0.98395 -1.13453,0 -1.71027,-0.42962 -2.032,-1.03938 -0.321739,-0.59591 -0.3556,-1.35812 -0.3556,-2.03719 h 1.8288 v 0.4019 c 0,0.51275 0.0339,0.87308 0.118541,1.0671 0.0847,0.20787 0.220129,0.30488 0.44026,0.30488 0.18627,0 0.33867,-0.097 0.42333,-0.29103 0.0847,-0.19402 0.13547,-0.55433 0.13547,-1.0671 z" />
    <path
       inkscape:connector-curvature="0"
       id="path3821"
       style="font-style:normal;font-variant:normal;font-weight:normal;font-stretch:normal;font-size:16.9333px;line-height:1.25;font-family:'League Gothic';-inkscape-font-specification:'League Gothic';letter-spacing:0px;word-spacing:0px;fill:#800000;fill-opacity:1;stroke:none;stroke-width:0.239358"
       d="m 45.94038,293.74805 c 0,0.2356 -0.0339,0.78993 -0.355601,1.27498 -0.32173,0.49889 -0.93133,0.9285 -2.031999,0.9285 -1.13453,0 -1.71027,-0.4296 -2.032,-0.9285 -0.32173,-0.48505 -0.3556,-1.03938 -0.3556,-1.27498 v -5.79283 c 0,-0.34646 0.0169,-0.97009 0.33867,-1.48285 0.32173,-0.4989 0.89746,-0.92852 2.04893,-0.92852 1.15147,0 1.7272,0.42962 2.04893,0.92852 0.321739,0.51277 0.33867,1.1364 0.33867,1.48285 v 0.63749 h -1.828801 c 0,-0.67906 -0.0169,-1.12252 -0.0847,-1.38583 -0.0677,-0.26331 -0.203201,-0.36032 -0.474131,-0.36032 -0.22014,0 -0.37254,0.0832 -0.440269,0.26331 -0.0847,0.18015 -0.11853,0.45733 -0.11853,0.84536 v 1.81545 c 0.32173,-0.15244 0.59266,-0.24944 0.9144,-0.24944 0.948259,0 1.45626,0.40189 1.7272,0.85921 0.27093,0.45734 0.3048,1.01168 0.3048,1.28883 z m -2.9464,0.44346 c 0,0.12473 0.13547,0.45734 0.5588,0.45734 0.38947,0 0.558799,-0.33261 0.558799,-0.45734 v -3.04884 c 0,-0.12473 -0.16933,-0.45734 -0.558799,-0.45734 -0.389471,0 -0.541871,0.26331 -0.5588,0.41575 z" />
    <path
       inkscape:connector-curvature="0"
       id="path3823"
       style="font-style:normal;font-variant:normal;font-weight:normal;font-stretch:normal;font-size:16.9333px;line-height:1.25;font-family:'League Gothic';-inkscape-font-specification:'League Gothic';letter-spacing:0px;word-spacing:0px;fill:#800000;fill-opacity:1;stroke:none;stroke-width:0.239358"
       d="m 51.927662,287.13757 h -2.7432 v -1.48285 h 4.60587 v 1.49671 l -1.8288,8.68924 h -1.89653 z" />
    <path
       inkscape:connector-curvature="0"
       id="path3825"
       style="font-style:normal;font-variant:normal;font-weight:normal;font-stretch:normal;font-size:16.9333px;line-height:1.25;font-family:'League Gothic';-inkscape-font-specification:'League Gothic';letter-spacing:0px;word-spacing:0px;fill:#800000;fill-opacity:1;stroke:none;stroke-width:0.239358"
       d="m 61.860415,293.6649 c 0,0.097 -0.0169,0.37418 -0.101599,0.70678 -0.0847,0.34646 -0.28787,0.7345 -0.64347,1.03938 -0.355601,0.30489 -0.89747,0.54048 -1.693331,0.54048 -0.795879,0 -1.33775,-0.23559 -1.69335,-0.54048 -0.3556,-0.30488 -0.5588,-0.69292 -0.64346,-1.03938 -0.0847,-0.3326 -0.101599,-0.60977 -0.101599,-0.70678 v -1.19182 c 0,-0.76223 0.32173,-1.52443 0.948259,-2.00948 -0.5588,-0.45734 -0.84666,-1.16411 -0.84666,-1.87089 v -0.85921 c 0,-0.12473 0.0169,-0.67907 0.321731,-1.19183 0.3048,-0.51277 0.863599,-0.99782 2.015079,-0.99782 1.15146,0 1.727201,0.48505 2.032001,0.99782 0.3048,0.51275 0.3048,1.0671 0.3048,1.19183 v 0.85921 c 0,0.70678 -0.28787,1.41355 -0.846671,1.87089 0.626531,0.48505 0.94827,1.24726 0.94827,2.00948 z m -1.89654,-5.40479 c 0,-0.47118 -0.0339,-0.81764 -0.0847,-1.05324 -0.0677,-0.23559 -0.220129,-0.34646 -0.4572,-0.34646 -0.2032,0 -0.338659,0.097 -0.40641,0.30489 -0.1524,0.40189 -0.16933,1.77388 -0.0339,2.25892 0.0508,0.24945 0.20321,0.37418 0.44028,0.37418 0.23707,0 0.38947,-0.12473 0.4572,-0.37418 0.0508,-0.23559 0.0847,-0.62363 0.0847,-1.16411 z m 0.118541,4.80888 c 0,-0.60977 -0.0339,-1.0671 -0.0847,-1.35813 -0.0677,-0.29103 -0.254,-0.44346 -0.575741,-0.44346 -0.32173,0 -0.508009,0.15243 -0.55881,0.44346 -0.13546,0.59592 -0.11853,2.07876 0.0508,2.52224 0.0847,0.23559 0.25401,0.34646 0.508009,0.34646 0.32174,0 0.508001,-0.13859 0.575741,-0.40189 0.0508,-0.26332 0.0847,-0.6375 0.0847,-1.10868 z" />
    <path
       inkscape:connector-curvature="0"
       id="path3827"
       style="font-style:normal;font-variant:normal;font-weight:normal;font-stretch:normal;font-size:16.9333px;line-height:1.25;font-family:'League Gothic';-inkscape-font-specification:'League Gothic';letter-spacing:0px;word-spacing:0px;fill:#800000;fill-opacity:1;stroke:none;stroke-width:0.239358"
       d="m 64.96903,287.74734 c 0,-0.2356 0.0339,-0.78993 0.3556,-1.28883 0.321731,-0.48505 0.89747,-0.91465 2.032,-0.91465 1.10067,0 1.71027,0.4296 2.032,0.91465 0.32173,0.4989 0.3556,1.05324 0.3556,1.28883 v 5.79282 c 0,0.37418 -0.0169,0.9701 -0.33867,1.469 -0.32173,0.51275 -0.89746,0.94237 -2.04893,0.94237 -1.15147,0 -1.7272,-0.4296 -2.04893,-0.94237 -0.32174,-0.4989 -0.33867,-1.09482 -0.33867,-1.469 v -0.63748 h 1.8288 c 0,0.67905 0.0169,1.12253 0.0847,1.38584 0.0677,0.2633 0.2032,0.36032 0.47413,0.36032 0.22013,0 0.37253,-0.0831 0.4572,-0.26331 0.0677,-0.18016 0.1016,-0.45733 0.1016,-0.84537 v -1.91246 c -0.32173,0.15244 -0.59267,0.24945 -0.9144,0.24945 -0.94826,0 -1.45626,-0.4019 -1.7272,-0.85922 -0.27093,-0.45733 -0.3048,-1.01168 -0.3048,-1.28883 z m 2.9464,-0.44347 c 0,-0.12473 -0.13547,-0.45733 -0.5588,-0.45733 -0.38947,0 -0.5588,0.3326 -0.5588,0.45733 v 2.95185 c 0,0.12473 0.169331,0.45733 0.5588,0.45733 0.38947,0 0.54187,-0.2633 0.5588,-0.41575 z" />
    <g
       style="fill:#800000"
       id="g3833"
       transform="matrix(1,0,0,0.81841136,-26.825528,180.89012)">
      <path
         d="m 98.918068,129.90366 v -0.85195 c 0.555625,-0.11113 0.889,-0.39512 1.123602,-0.64206 0.12347,-0.14817 0.22225,-0.30868 0.29633,-0.46919 h 0.80257 v 9.07521 h -1.333502 v -7.11201 z"
         style="font-style:normal;font-variant:normal;font-weight:normal;font-stretch:normal;font-size:12.3472px;line-height:1.25;font-family:'League Gothic';-inkscape-font-specification:'League Gothic';letter-spacing:0px;word-spacing:0px;fill:#800000;fill-opacity:1;stroke:none;stroke-width:0.264583"
         id="path3829"
         inkscape:connector-curvature="0" />
      <path
         d="m 105.31547,138.50566 c -0.0127,0.381 -0.0889,0.7239 -0.2286,1.016 -0.1143,0.254 -0.2921,0.4953 -0.5461,0.6858 -0.254,0.2032 -0.5969,0.3175 -1.0541,0.3175 -0.4572,0 -0.8128,-0.1143 -1.0668,-0.3175 -0.254,-0.1905 -0.4191,-0.4318 -0.5334,-0.6858 -0.1397,-0.2921 -0.2159,-0.635 -0.2286,-1.016 v -5.4991 c 0.0127,-0.3683 0.0889,-0.7112 0.2286,-1.0033 0.1143,-0.254 0.2794,-0.508 0.5334,-0.6985 0.254,-0.1905 0.6096,-0.3175 1.0668,-0.3175 0.4572,0 0.8001,0.127 1.0541,0.3175 0.254,0.1905 0.4318,0.4445 0.5461,0.6985 0.1397,0.2921 0.2159,0.635 0.2286,1.0033 z m -1.3716,-5.4991 c 0,-0.254 -0.0508,-0.4318 -0.1778,-0.5842 -0.0635,-0.0635 -0.1651,-0.1016 -0.2794,-0.1016 -0.2413,0 -0.3556,0.1778 -0.4064,0.3429 -0.0381,0.1016 -0.0508,0.2159 -0.0508,0.3429 v 5.4991 c 0,0.2667 0.0635,0.4445 0.1905,0.5842 0.0635,0.0635 0.1524,0.1016 0.2667,0.1016 0.2413,0 0.3556,-0.1524 0.4064,-0.3429 0.0381,-0.0889 0.0508,-0.2032 0.0508,-0.3429 z"
         style="font-style:normal;font-variant:normal;font-weight:normal;font-stretch:normal;font-size:12.7px;line-height:1.25;font-family:'League Gothic';-inkscape-font-specification:'League Gothic';letter-spacing:0px;word-spacing:0px;fill:#800000;fill-opacity:1;stroke:none;stroke-width:0.264583"
         id="path3831"
         inkscape:connector-curvature="0" />
    </g>
    <path
       inkscape:connector-curvature="0"
       id="path3835"
       style="font-style:normal;font-variant:normal;font-weight:normal;font-stretch:normal;font-size:16.9333px;line-height:1.25;font-family:'League Gothic';-inkscape-font-specification:'League Gothic';letter-spacing:0px;word-spacing:0px;fill:#800000;fill-opacity:1;stroke:none;stroke-width:0.239358"
       d="m 81.820391,294.41596 c 0.3556,0.0416 0.62653,-0.0277 0.82973,-0.24945 0.1016,-0.097 0.1524,-0.26331 0.1524,-0.4989 V 285.602 h 1.8288 v 8.3012 c 0,0.55434 -0.16933,1.0671 -0.59267,1.44128 -0.42333,0.37417 -1.13453,0.59591 -2.21826,0.54047 z" />
    <path
       inkscape:connector-curvature="0"
       id="path3837"
       style="font-style:normal;font-variant:normal;font-weight:normal;font-stretch:normal;font-size:16.9333px;line-height:1.25;font-family:'League Gothic';-inkscape-font-specification:'League Gothic';letter-spacing:0px;word-spacing:0px;fill:#800000;fill-opacity:1;stroke:none;stroke-width:0.239358"
       d="m 93.421076,293.41545 c 0,0.2356 -0.0508,0.4989 -0.1524,0.78993 -0.0508,0.15244 -0.13547,0.29103 -0.220129,0.44346 0.1524,0.16631 0.372529,0.30489 0.728129,0.36032 v 1.27497 c -1.032929,0 -1.55787,-0.36031 -1.8796,-0.78993 -0.254,0.0693 -0.5588,0.12473 -0.9144,0.12473 -0.6096,0 -1.08373,-0.12473 -1.422399,-0.34646 -0.33867,-0.20787 -0.558801,-0.47118 -0.711201,-0.74834 -0.186269,-0.31875 -0.28787,-0.69293 -0.3048,-1.10868 v -6.0007 c 0.0169,-0.4019 0.118531,-0.77607 0.3048,-1.09481 0.1524,-0.27717 0.37253,-0.55435 0.711201,-0.76222 0.338669,-0.20788 0.812799,-0.34646 1.422399,-0.34646 0.6096,0 1.0668,0.13858 1.40547,0.34646 0.33866,0.20787 0.57573,0.48505 0.72813,0.76222 0.18627,0.31874 0.28787,0.69291 0.3048,1.09481 z m -1.8288,-6.0007 c 0,-0.27717 -0.0677,-0.47118 -0.23707,-0.63748 -0.0847,-0.0693 -0.22013,-0.11088 -0.37253,-0.11088 -0.32173,0 -0.47413,0.19402 -0.54187,0.37417 -0.0508,0.11087 -0.0677,0.2356 -0.0677,0.37418 v 6.0007 c 0,0.29103 0.0847,0.48505 0.254,0.63749 0.0847,0.0693 0.2032,0.11086 0.3556,0.11086 0.32173,0 0.47413,-0.1663 0.54187,-0.37416 0.0508,-0.097 0.0677,-0.22175 0.0677,-0.37418 z" />
    <path
       inkscape:connector-curvature="0"
       id="path3839"
       style="font-style:normal;font-variant:normal;font-weight:normal;font-stretch:normal;font-size:16.9333px;line-height:1.25;font-family:'League Gothic';-inkscape-font-specification:'League Gothic';letter-spacing:0px;word-spacing:0px;fill:#800000;fill-opacity:1;stroke:none;stroke-width:0.239358"
       d="m 98.172224,285.65472 v 3.56161 h 0.0677 l 0.0847,-0.1663 1.524,-3.39531 h 1.777996 l -1.676396,3.35374 1.896526,6.83221 h -1.778 l -1.269996,-4.4347 -0.0508,-0.20788 h -0.0508 l -0.1016,0.20788 -0.42333,0.8315 v 3.6032 h -1.8288 v -10.18595 z" />
    <rect
       style="fill:#ff8080;fill-opacity:1;stroke:#000000;stroke-width:0.255905;stroke-linecap:butt;stroke-linejoin:bevel;stroke-miterlimit:4;stroke-dasharray:none"
       id="rect4728"
       width="15.251957"
       height="12.283461"
       x="63.867718"
       y="259.13388"
       ry="0.95323128"
       rx="0.95323128" />
    <text
       id="text4734"
       y="347.08179"
       x="0.66145831"
       style="font-style:normal;font-variant:normal;font-weight:normal;font-stretch:normal;font-size:16.9333px;line-height:1.25;font-family:'Bou Western';-inkscape-font-specification:'Bou Western';letter-spacing:0px;word-spacing:0px;fill:#800000;fill-opacity:1;stroke:#000000;stroke-width:0.565;stroke-miterlimit:4;stroke-dasharray:none"
       xml:space="preserve"><tspan
         style="font-style:normal;font-variant:normal;font-weight:normal;font-stretch:normal;font-family:'Bou Western';-inkscape-font-specification:'Bou Western';fill:#800000;stroke:#000000;stroke-width:0.565;stroke-miterlimit:4;stroke-dasharray:none"
         y="347.08179"
         x="0.66145831"
         id="tspan4732"
         sodipodi:role="line">SWIPE POKER</tspan></text>
    <text
       id="text864"
       y="355.16501"
       x="31.809292"
       style="font-style:normal;font-variant:normal;font-weight:normal;font-stretch:normal;font-size:6.3749px;line-height:1.25;font-family:'Yatsurano Western';-inkscape-font-specification:'Yatsurano Western';letter-spacing:0px;word-spacing:0px;fill:#000000;fill-opacity:1;stroke:none;stroke-width:0.170756"
       xml:space="preserve"><tspan
         style="font-style:normal;font-variant:normal;font-weight:normal;font-stretch:normal;font-family:'Yatsurano Western';-inkscape-font-specification:'Yatsurano Western';stroke-width:0.170756"
         y="355.16501"
         x="31.809292"
         id="tspan862"
         sodipodi:role="line">- Lachlan Kingsford -</tspan></text>
    <rect
       rx="0.95323128"
       ry="0.95323128"
       y="259.13388"
       x="79.63662"
       height="12.283461"
       width="15.251957"
       id="rect866"
       style="fill:#afe9af;fill-opacity:1;stroke:#000000;stroke-width:0.255905;stroke-linecap:butt;stroke-linejoin:bevel;stroke-miterlimit:4;stroke-dasharray:none" />
    <rect
       rx="0.95323128"
       ry="0.95323128"
       y="259.13388"
       x="95.672791"
       height="12.283461"
       width="15.251957"
       id="rect868"
       style="fill:#550000;fill-opacity:1;stroke:#000000;stroke-width:0.255905;stroke-linecap:butt;stroke-linejoin:bevel;stroke-miterlimit:4;stroke-dasharray:none" />
    <rect
       style="fill:#f2f2f2;fill-opacity:1;stroke:#ff0000;stroke-width:0.255905;stroke-linecap:butt;stroke-linejoin:bevel;stroke-miterlimit:4;stroke-dasharray:none"
       id="rect1559"
       width="15.251957"
       height="12.283461"
       x="47.939766"
       y="259.10828"
       ry="0.95323128"
       rx="0.95323128" />
    <circle
       r="3.775182"
       cy="265.2756"
       cx="87.262596"
       id="path7072"
       style="fill:#cccccc;fill-opacity:1;stroke:#f2f2f2;stroke-width:0.665;stroke-linecap:round;stroke-linejoin:bevel;stroke-miterlimit:4;stroke-dasharray:none;stroke-opacity:1" />
    <path
       inkscape:connector-curvature="0"
       id="path7074"
       d="m 96.350663,259.51547 13.530517,11.05828"
       style="fill:#f2f2f2;stroke:#ececec;stroke-width:0.565;stroke-linecap:butt;stroke-linejoin:miter;stroke-miterlimit:4;stroke-dasharray:none;stroke-opacity:1" />
    <path
       style="fill:#f2f2f2;stroke:#ececec;stroke-width:0.565;stroke-linecap:butt;stroke-linejoin:miter;stroke-miterlimit:4;stroke-dasharray:none;stroke-opacity:1"
       d="M 109.88118,259.51547 96.350663,270.57375"
       id="path7076"
       inkscape:connector-curvature="0" />
    <rect
       rx="0.95323128"
       ry="0.95323128"
       y="259.13388"
       x="111.30373"
       height="12.283461"
       width="15.251957"
       id="rect4573"
       style="fill:none;fill-opacity:1;stroke:none;stroke-width:0.255905;stroke-linecap:butt;stroke-linejoin:bevel;stroke-miterlimit:4;stroke-dasharray:none" />
    <rect
       style="fill:#999999;fill-opacity:1;stroke:#000000;stroke-width:0.255905;stroke-linecap:butt;stroke-linejoin:bevel;stroke-miterlimit:4;stroke-dasharray:none"
       id="rect5173"
       width="15.251957"
       height="12.283461"
       x="32.104046"
       y="259.10828"
       ry="0.95323128"
       rx="0.95323128" />
    <rect
       rx="0.92106736"
       ry="0.86321443"
       y="259.68826"
       x="127.58844"
       height="11.123491"
       width="14.737324"
       id="rect5177"
       style="fill:#d7e3f4;fill-opacity:1;stroke:#0b1728;stroke-width:0.894262;stroke-linecap:butt;stroke-linejoin:bevel;stroke-miterlimit:4;stroke-dasharray:none;stroke-opacity:1" />
    <path
       inkscape:connector-curvature="0"
       id="path950"
       style="font-style:normal;font-variant:normal;font-weight:normal;font-stretch:normal;font-size:16.9333px;line-height:1.25;font-family:'League Gothic';-inkscape-font-specification:'League Gothic';letter-spacing:0px;word-spacing:0px;fill:#000000;fill-opacity:1;stroke:none;stroke-width:0.239358"
       d="M 0.88250043,308.44297 2.7621004,298.25702 h 2.2352 l 1.879599,10.18595 h -1.777999 l -0.338667,-2.07877 h -1.761067 l -0.338666,2.07877 z m 3.09879997,-6.87379 -0.0508,-0.26331 h -0.1016 l -0.0508,0.26331 -0.524934,3.21516 h 1.253067 z" />
    <path
       inkscape:connector-curvature="0"
       id="path952"
       style="font-style:normal;font-variant:normal;font-weight:normal;font-stretch:normal;font-size:16.9333px;line-height:1.25;font-family:'League Gothic';-inkscape-font-specification:'League Gothic';letter-spacing:0px;word-spacing:0px;fill:#000000;fill-opacity:1;stroke:none;stroke-width:0.239358"
       d="m 9.384383,301.54147 v -0.70679 c 0,-0.67905 0.118533,-1.34426 0.474133,-1.8293 0.355601,-0.48504 0.9652,-0.8038 1.964267,-0.8038 0.931333,0 1.557866,0.29104 1.9304,0.73451 0.372533,0.45733 0.508,1.09481 0.508,1.80159 0,1.03939 -0.474134,2.27278 -1.0668,3.42303 -0.6096,1.16411 -1.3208,2.20349 -1.794934,2.85484 h 2.8956 v 1.48286 H 9.333583 v -1.48286 c 0.5588,-0.70678 1.0668,-1.42741 1.524,-2.14806 0.389466,-0.60976 0.761999,-1.30269 1.049865,-2.00947 0.287867,-0.70678 0.508,-1.3997 0.524934,-2.02333 0,-0.27716 -0.01693,-0.59591 -0.1016,-0.83151 -0.08467,-0.23558 -0.237067,-0.41575 -0.507999,-0.41575 -0.254,0 -0.4064,0.15245 -0.491067,0.37418 -0.08467,0.23559 -0.118533,0.54048 -0.118533,0.87308 v 0.70678 z" />
    <path
       inkscape:connector-curvature="0"
       id="path954"
       style="font-style:normal;font-variant:normal;font-weight:normal;font-stretch:normal;font-size:16.9333px;line-height:1.25;font-family:'League Gothic';-inkscape-font-specification:'League Gothic';letter-spacing:0px;word-spacing:0px;fill:#000000;fill-opacity:1;stroke:none;stroke-width:0.239358"
       d="m 18.842993,303.842 v -1.24726 c 0.762,-0.0416 1.1176,-0.16631 1.27,-0.45733 0.08467,-0.13857 0.118533,-0.31875 0.118533,-0.54049 0,-0.22173 0,-0.49889 0,-0.81764 0,-0.29104 0,-0.60977 -0.06773,-0.87308 -0.06773,-0.2633 -0.220133,-0.44346 -0.508,-0.44346 -0.220133,0 -0.3556,0.0831 -0.423333,0.34646 -0.08467,0.27717 -0.118534,0.70678 -0.118534,1.38584 h -1.794933 c 0,-0.56819 0.01693,-1.34426 0.321733,-1.96789 0.3048,-0.60978 0.8636,-1.08096 2.015067,-1.08096 1.151467,0 1.744133,0.48505 2.048933,0.9978 0.3048,0.51276 0.321734,1.0671 0.321734,1.19183 0,1.51056 -0.321734,2.23121 -0.880534,2.68853 l -0.01693,0.0138 c 0.880533,0.56819 1.049867,1.62143 1.049867,2.7994 0,0.0416 0,0.13858 -0.01693,0.29102 -0.01693,0.29103 -0.118533,0.72064 -0.3048,1.16411 -0.2032,0.44348 -0.541866,0.84536 -1.0668,1.08096 -0.270933,0.12473 -0.592666,0.18016 -0.982133,0.18016 -1.151467,0 -1.744133,-0.47119 -2.065867,-1.09482 -0.321733,-0.60977 -0.3556,-1.38584 -0.3556,-1.95404 h 1.794934 c 0,0.67907 0.0508,1.10868 0.1524,1.372 0.1016,0.27717 0.254,0.36032 0.474133,0.36032 0.287867,0 0.440267,-0.18016 0.508,-0.42962 0.06773,-0.24945 0.06773,-0.56819 0.06773,-0.8592 0,-0.31875 0,-0.60978 0.01693,-0.87308 0,-0.49891 -0.118534,-0.84537 -0.508,-1.05325 -0.2032,-0.097 -0.508,-0.1663 -0.897467,-0.18016 z" />
    <path
       inkscape:connector-curvature="0"
       id="path956"
       style="font-style:normal;font-variant:normal;font-weight:normal;font-stretch:normal;font-size:16.9333px;line-height:1.25;font-family:'League Gothic';-inkscape-font-specification:'League Gothic';letter-spacing:0px;word-spacing:0px;fill:#000000;fill-opacity:1;stroke:none;stroke-width:0.239358"
       d="m 27.835948,306.22561 h -2.827866 v -1.31654 l 2.675466,-6.65205 h 1.8288 v 6.65205 h 0.846668 v 1.31654 h -0.846668 v 2.21736 h -1.6764 z m -1.269999,-1.31654 h 1.269999 v -3.49233 h -0.1016 l -0.1016,0.30489 z" />
    <path
       inkscape:connector-curvature="0"
       id="path958"
       style="font-style:normal;font-variant:normal;font-weight:normal;font-stretch:normal;font-size:16.9333px;line-height:1.25;font-family:'League Gothic';-inkscape-font-specification:'League Gothic';letter-spacing:0px;word-spacing:0px;fill:#000000;fill-opacity:1;stroke:none;stroke-width:0.239358"
       d="m 36.176961,303.5648 c 0,-0.42959 -0.18627,-0.74835 -0.57573,-0.74835 -0.2032,0 -0.37254,0.12472 -0.508,0.27716 -0.13547,0.16631 -0.2032,0.36033 -0.2032,0.4712 h -1.540938 v -5.3632 h 4.419599 v 1.48285 h -2.844791 v 2.12034 c 0.2032,-0.12473 0.42333,-0.2356 0.67733,-0.30489 0.11853,-0.0416 0.254,-0.0554 0.37253,-0.0416 0.948271,0 1.456271,0.44346 1.727201,0.9285 0.27093,0.48505 0.3048,1.01168 0.3048,1.17797 v 2.27278 c 0,0.48505 -0.0339,1.13641 -0.3556,1.67689 -0.32173,0.55432 -0.93133,0.98393 -2.032001,0.98393 -1.13453,0 -1.710268,-0.42961 -2.031998,-1.03937 -0.32173,-0.59592 -0.3556,-1.35813 -0.3556,-2.03721 h 1.828798 v 0.4019 c 0,0.51276 0.0339,0.87308 0.11854,1.06712 0.0847,0.20787 0.22013,0.30488 0.44026,0.30488 0.18627,0 0.33867,-0.097 0.42333,-0.29104 0.0847,-0.19402 0.13547,-0.55432 0.13547,-1.06711 z" />
    <path
       inkscape:connector-curvature="0"
       id="path960"
       style="font-style:normal;font-variant:normal;font-weight:normal;font-stretch:normal;font-size:16.9333px;line-height:1.25;font-family:'League Gothic';-inkscape-font-specification:'League Gothic';letter-spacing:0px;word-spacing:0px;fill:#000000;fill-opacity:1;stroke:none;stroke-width:0.239358"
       d="m 45.94038,306.35034 c 0,0.2356 -0.0339,0.78993 -0.355601,1.27498 -0.32173,0.4989 -0.93133,0.92851 -2.031999,0.92851 -1.13453,0 -1.71027,-0.42961 -2.032,-0.92851 -0.32173,-0.48505 -0.3556,-1.03938 -0.3556,-1.27498 v -5.79282 c 0,-0.34646 0.0169,-0.97009 0.33867,-1.48286 0.32173,-0.49889 0.89746,-0.9285 2.04893,-0.9285 1.15147,0 1.7272,0.42961 2.04893,0.9285 0.321739,0.51277 0.33867,1.13641 0.33867,1.48286 v 0.63748 h -1.828801 c 0,-0.67905 -0.0169,-1.12253 -0.0847,-1.38584 -0.0677,-0.2633 -0.203201,-0.36032 -0.474131,-0.36032 -0.22014,0 -0.37254,0.0832 -0.440269,0.26332 -0.0847,0.18015 -0.11853,0.45732 -0.11853,0.84536 v 1.81545 c 0.32173,-0.15244 0.59266,-0.24945 0.9144,-0.24945 0.948259,0 1.45626,0.40189 1.7272,0.85922 0.27093,0.45733 0.3048,1.01167 0.3048,1.28883 z m -2.9464,0.44347 c 0,0.12473 0.13547,0.45733 0.5588,0.45733 0.38947,0 0.558799,-0.3326 0.558799,-0.45733 v -3.04885 c 0,-0.12473 -0.16933,-0.45733 -0.558799,-0.45733 -0.389471,0 -0.541871,0.26331 -0.5588,0.41575 z" />
    <path
       inkscape:connector-curvature="0"
       id="path962"
       style="font-style:normal;font-variant:normal;font-weight:normal;font-stretch:normal;font-size:16.9333px;line-height:1.25;font-family:'League Gothic';-inkscape-font-specification:'League Gothic';letter-spacing:0px;word-spacing:0px;fill:#000000;fill-opacity:1;stroke:none;stroke-width:0.239358"
       d="m 51.927664,299.73987 h -2.7432 v -1.48285 h 4.60587 v 1.49671 l -1.8288,8.68924 h -1.896529 z" />
    <path
       inkscape:connector-curvature="0"
       id="path964"
       style="font-style:normal;font-variant:normal;font-weight:normal;font-stretch:normal;font-size:16.9333px;line-height:1.25;font-family:'League Gothic';-inkscape-font-specification:'League Gothic';letter-spacing:0px;word-spacing:0px;fill:#000000;fill-opacity:1;stroke:none;stroke-width:0.239358"
       d="m 61.860409,306.2672 c 0,0.097 -0.0169,0.37417 -0.101599,0.70678 -0.0847,0.34646 -0.28787,0.7345 -0.64347,1.03938 -0.355601,0.30489 -0.89747,0.54048 -1.693331,0.54048 -0.79587,0 -1.337739,-0.23559 -1.69334,-0.54048 -0.3556,-0.30488 -0.558799,-0.69292 -0.643459,-1.03938 -0.0847,-0.33261 -0.1016,-0.60977 -0.1016,-0.70678 v -1.19183 c 0,-0.76223 0.32173,-1.52442 0.94826,-2.00947 -0.5588,-0.45734 -0.84666,-1.16411 -0.84666,-1.8709 v -0.8592 c 0,-0.12473 0.0169,-0.67907 0.32173,-1.19184 0.3048,-0.51276 0.8636,-0.99781 2.01507,-0.99781 1.15146,0 1.7272,0.48505 2.032,0.99781 0.3048,0.51275 0.3048,1.06711 0.3048,1.19184 v 0.8592 c 0,0.70679 -0.28787,1.41355 -0.846671,1.8709 0.626531,0.48505 0.94827,1.24726 0.94827,2.00947 z m -1.89654,-5.40479 c 0,-0.47118 -0.0339,-0.81764 -0.0847,-1.05324 -0.0677,-0.23559 -0.220129,-0.34646 -0.4572,-0.34646 -0.2032,0 -0.338659,0.097 -0.406399,0.30489 -0.1524,0.40189 -0.169331,1.77388 -0.0339,2.25892 0.0508,0.24945 0.203201,0.37418 0.44027,0.37418 0.23707,0 0.38947,-0.12473 0.4572,-0.37418 0.0508,-0.23559 0.0847,-0.62363 0.0847,-1.16411 z m 0.118541,4.80888 c 0,-0.60977 -0.0339,-1.06712 -0.0847,-1.35813 -0.0677,-0.29103 -0.254,-0.44346 -0.575741,-0.44346 -0.32173,0 -0.508,0.15243 -0.558799,0.44346 -0.135461,0.59592 -0.11853,2.07876 0.0508,2.52224 0.0847,0.23559 0.254,0.34646 0.508,0.34646 0.32174,0 0.508,-0.13859 0.57574,-0.40189 0.0508,-0.26332 0.0847,-0.6375 0.0847,-1.10868 z" />
    <path
       inkscape:connector-curvature="0"
       id="path966"
       style="font-style:normal;font-variant:normal;font-weight:normal;font-stretch:normal;font-size:16.9333px;line-height:1.25;font-family:'League Gothic';-inkscape-font-specification:'League Gothic';letter-spacing:0px;word-spacing:0px;fill:#000000;fill-opacity:1;stroke:none;stroke-width:0.239358"
       d="m 64.969027,300.34964 c 0,-0.2356 0.0339,-0.78992 0.3556,-1.28882 0.321731,-0.48505 0.89747,-0.91466 2.032,-0.91466 1.10067,0 1.71027,0.42961 2.032,0.91466 0.32173,0.4989 0.3556,1.05323 0.3556,1.28882 v 5.79283 c 0,0.37418 -0.0169,0.9701 -0.33867,1.46899 -0.32173,0.51275 -0.89746,0.94238 -2.04893,0.94238 -1.15147,0 -1.7272,-0.42961 -2.04893,-0.94238 -0.32174,-0.49889 -0.33867,-1.09481 -0.33867,-1.46899 v -0.6375 h 1.8288 c 0,0.67906 0.0169,1.12253 0.0847,1.38584 0.0677,0.2633 0.2032,0.36032 0.47413,0.36032 0.22013,0 0.37253,-0.0831 0.4572,-0.2633 0.0677,-0.18016 0.1016,-0.45734 0.1016,-0.84537 v -1.91247 c -0.32173,0.15244 -0.59267,0.24944 -0.9144,0.24944 -0.94826,0 -1.45626,-0.40189 -1.7272,-0.85921 -0.27093,-0.45733 -0.3048,-1.01168 -0.3048,-1.28882 z m 2.9464,-0.44346 c 0,-0.12473 -0.13547,-0.45734 -0.5588,-0.45734 -0.38947,0 -0.5588,0.33261 -0.5588,0.45734 v 2.95184 c 0,0.12473 0.169331,0.45734 0.5588,0.45734 0.38947,0 0.54187,-0.26331 0.5588,-0.41576 z" />
    <g
       id="g972"
       transform="matrix(1,0,0,0.81841136,-26.825531,193.49242)">
      <path
         d="m 98.918068,129.90366 v -0.85195 c 0.555625,-0.11113 0.889,-0.39512 1.123602,-0.64206 0.12347,-0.14817 0.22225,-0.30868 0.29633,-0.46919 h 0.80257 v 9.07521 h -1.333502 v -7.11201 z"
         style="font-style:normal;font-variant:normal;font-weight:normal;font-stretch:normal;font-size:12.3472px;line-height:1.25;font-family:'League Gothic';-inkscape-font-specification:'League Gothic';letter-spacing:0px;word-spacing:0px;fill:#000000;fill-opacity:1;stroke:none;stroke-width:0.264583"
         id="path968"
         inkscape:connector-curvature="0" />
      <path
         d="m 105.31547,138.50566 c -0.0127,0.381 -0.0889,0.7239 -0.2286,1.016 -0.1143,0.254 -0.2921,0.4953 -0.5461,0.6858 -0.254,0.2032 -0.5969,0.3175 -1.0541,0.3175 -0.4572,0 -0.8128,-0.1143 -1.0668,-0.3175 -0.254,-0.1905 -0.4191,-0.4318 -0.5334,-0.6858 -0.1397,-0.2921 -0.2159,-0.635 -0.2286,-1.016 v -5.4991 c 0.0127,-0.3683 0.0889,-0.7112 0.2286,-1.0033 0.1143,-0.254 0.2794,-0.508 0.5334,-0.6985 0.254,-0.1905 0.6096,-0.3175 1.0668,-0.3175 0.4572,0 0.8001,0.127 1.0541,0.3175 0.254,0.1905 0.4318,0.4445 0.5461,0.6985 0.1397,0.2921 0.2159,0.635 0.2286,1.0033 z m -1.3716,-5.4991 c 0,-0.254 -0.0508,-0.4318 -0.1778,-0.5842 -0.0635,-0.0635 -0.1651,-0.1016 -0.2794,-0.1016 -0.2413,0 -0.3556,0.1778 -0.4064,0.3429 -0.0381,0.1016 -0.0508,0.2159 -0.0508,0.3429 v 5.4991 c 0,0.2667 0.0635,0.4445 0.1905,0.5842 0.0635,0.0635 0.1524,0.1016 0.2667,0.1016 0.2413,0 0.3556,-0.1524 0.4064,-0.3429 0.0381,-0.0889 0.0508,-0.2032 0.0508,-0.3429 z"
         style="font-style:normal;font-variant:normal;font-weight:normal;font-stretch:normal;font-size:12.7px;line-height:1.25;font-family:'League Gothic';-inkscape-font-specification:'League Gothic';letter-spacing:0px;word-spacing:0px;fill:#000000;fill-opacity:1;stroke:none;stroke-width:0.264583"
         id="path970"
         inkscape:connector-curvature="0" />
    </g>
    <path
       inkscape:connector-curvature="0"
       id="path974"
       style="font-style:normal;font-variant:normal;font-weight:normal;font-stretch:normal;font-size:16.9333px;line-height:1.25;font-family:'League Gothic';-inkscape-font-specification:'League Gothic';letter-spacing:0px;word-spacing:0px;fill:#000000;fill-opacity:1;stroke:none;stroke-width:0.239358"
       d="m 81.820391,307.01826 c 0.3556,0.0416 0.62653,-0.0277 0.82973,-0.24945 0.1016,-0.097 0.1524,-0.26331 0.1524,-0.4989 v -8.06561 h 1.8288 v 8.3012 c 0,0.55434 -0.16933,1.0671 -0.59267,1.44128 -0.42333,0.37417 -1.13453,0.59591 -2.21826,0.54047 z" />
    <path
       inkscape:connector-curvature="0"
       id="path976"
       style="font-style:normal;font-variant:normal;font-weight:normal;font-stretch:normal;font-size:16.9333px;line-height:1.25;font-family:'League Gothic';-inkscape-font-specification:'League Gothic';letter-spacing:0px;word-spacing:0px;fill:#000000;fill-opacity:1;stroke:none;stroke-width:0.239358"
       d="m 93.421076,306.01775 c 0,0.2356 -0.0508,0.4989 -0.1524,0.78993 -0.0508,0.15244 -0.13547,0.29103 -0.220129,0.44346 0.1524,0.16631 0.372529,0.30489 0.728129,0.36032 v 1.27497 c -1.032929,0 -1.55787,-0.36031 -1.8796,-0.78993 -0.254,0.0693 -0.5588,0.12473 -0.9144,0.12473 -0.6096,0 -1.08373,-0.12473 -1.422399,-0.34646 -0.33867,-0.20787 -0.558801,-0.47118 -0.711201,-0.74834 -0.186269,-0.31875 -0.28787,-0.69293 -0.3048,-1.10868 v -6.0007 c 0.0169,-0.4019 0.118531,-0.77607 0.3048,-1.09481 0.1524,-0.27717 0.37253,-0.55435 0.711201,-0.76222 0.338669,-0.20788 0.812799,-0.34646 1.422399,-0.34646 0.6096,0 1.0668,0.13858 1.40547,0.34646 0.33866,0.20787 0.57573,0.48505 0.72813,0.76222 0.18627,0.31874 0.28787,0.69291 0.3048,1.09481 z m -1.8288,-6.0007 c 0,-0.27717 -0.0677,-0.47118 -0.23707,-0.63748 -0.0847,-0.0693 -0.22013,-0.11088 -0.37253,-0.11088 -0.32173,0 -0.47413,0.19402 -0.54187,0.37417 -0.0508,0.11087 -0.0677,0.2356 -0.0677,0.37418 v 6.0007 c 0,0.29103 0.0847,0.48505 0.254,0.63749 0.0847,0.0693 0.2032,0.11086 0.3556,0.11086 0.32173,0 0.47413,-0.1663 0.54187,-0.37416 0.0508,-0.097 0.0677,-0.22175 0.0677,-0.37418 z" />
    <path
       inkscape:connector-curvature="0"
       id="path978"
       style="font-style:normal;font-variant:normal;font-weight:normal;font-stretch:normal;font-size:16.9333px;line-height:1.25;font-family:'League Gothic';-inkscape-font-specification:'League Gothic';letter-spacing:0px;word-spacing:0px;fill:#000000;fill-opacity:1;stroke:none;stroke-width:0.239358"
       d="m 98.172216,298.25702 v 3.56161 h 0.0677 l 0.0847,-0.1663 1.524,-3.39531 h 1.778014 l -1.676411,3.35374 1.896541,6.83221 h -1.77801 l -1.270004,-4.4347 -0.0508,-0.20788 h -0.0508 l -0.1016,0.20788 -0.42333,0.8315 v 3.6032 h -1.8288 v -10.18595 z" />
    <path
       d="M 0.88250039,321.14299 2.7621004,310.95704 h 2.2352 l 1.8796,10.18595 h -1.778 l -0.33867,-2.07877 h -1.76106 l -0.33867,2.07877 z m 3.09880001,-6.87379 -0.0508,-0.26331 h -0.1016 l -0.0508,0.26331 -0.52493,3.21516 h 1.25306 z"
       style="font-style:normal;font-variant:normal;font-weight:normal;font-stretch:normal;font-size:16.93329999999999913px;line-height:1.25;font-family:'League Gothic';-inkscape-font-specification:'League Gothic';letter-spacing:0px;word-spacing:0px;fill:#333333;fill-opacity:1;stroke:none;stroke-width:0.239358"
       id="path980"
       inkscape:connector-curvature="0" />
    <path
       d="m 9.3843809,314.24148 v -0.70678 c 0,-0.67906 0.11854,-1.34427 0.47414,-1.82931 0.3556011,-0.48504 0.9652011,-0.80379 1.9642601,-0.80379 0.93134,0 1.557869,0.29103 1.9304,0.7345 0.37254,0.45734 0.508,1.09481 0.508,1.80159 0,1.03939 -0.47413,2.27279 -1.0668,3.42304 -0.6096,1.16411 -1.3208,2.20348 -1.79493,2.85484 h 2.8956 v 1.48285 H 9.3335809 v -1.48285 c 0.5588,-0.70679 1.0668001,-1.42742 1.5240011,-2.14806 0.38947,-0.60975 0.761998,-1.30268 1.049868,-2.00945 0.28787,-0.7068 0.508,-1.3997 0.52493,-2.02333 0,-0.27716 -0.0169,-0.59591 -0.1016,-0.83151 -0.0847,-0.23558 -0.237059,-0.41575 -0.507999,-0.41575 -0.254,0 -0.4064,0.15244 -0.49106,0.37418 -0.0847,0.23559 -0.118539,0.54048 -0.118539,0.87307 v 0.70678 z"
       style="font-style:normal;font-variant:normal;font-weight:normal;font-stretch:normal;font-size:16.93329999999999913px;line-height:1.25;font-family:'League Gothic';-inkscape-font-specification:'League Gothic';letter-spacing:0px;word-spacing:0px;fill:#333333;fill-opacity:1;stroke:none;stroke-width:0.239358"
       id="path982"
       inkscape:connector-curvature="0" />
    <path
       d="m 18.842943,316.54203 v -1.24726 c 0.762,-0.0416 1.117599,-0.1663 1.269999,-0.45733 0.0847,-0.13858 0.11854,-0.31875 0.11854,-0.54048 0,-0.22173 0,-0.4989 0,-0.81765 0,-0.29103 0,-0.60977 -0.0677,-0.87308 -0.0677,-0.26331 -0.22014,-0.44347 -0.507999,-0.44347 -0.22014,0 -0.355601,0.0831 -0.423341,0.34646 -0.0847,0.27718 -0.11853,0.7068 -0.11853,1.38583 h -1.794929 c 0,-0.56817 0.0169,-1.34424 0.32173,-1.96789 0.3048,-0.60978 0.863599,-1.08096 2.01507,-1.08096 1.15146,0 1.74413,0.48505 2.04893,0.99781 0.3048,0.51277 0.321729,1.0671 0.321729,1.19183 0,1.51056 -0.321729,2.2312 -0.88053,2.68853 l -0.0169,0.0138 c 0.88053,0.5682 1.04987,1.62144 1.04987,2.7994 0,0.0416 0,0.13858 -0.0169,0.29102 -0.0169,0.29103 -0.11854,0.72064 -0.3048,1.16411 -0.2032,0.44349 -0.54187,0.84537 -1.0668,1.08096 -0.27094,0.12473 -0.59267,0.18016 -0.98214,0.18016 -1.15146,0 -1.74413,-0.47118 -2.06586,-1.09482 -0.32174,-0.60977 -0.3556,-1.38584 -0.3556,-1.95403 h 1.79493 c 0,0.67906 0.0508,1.10867 0.1524,1.372 0.1016,0.27717 0.254,0.36032 0.47413,0.36032 0.28787,0 0.44027,-0.18016 0.508,-0.42962 0.0677,-0.24945 0.0677,-0.56819 0.0677,-0.8592 0,-0.31875 0,-0.60978 0.0169,-0.87308 0,-0.49891 -0.11853,-0.84537 -0.508,-1.05325 -0.2032,-0.097 -0.508,-0.16629 -0.89746,-0.18016 z"
       style="font-style:normal;font-variant:normal;font-weight:normal;font-stretch:normal;font-size:16.93329999999999913px;line-height:1.25;font-family:'League Gothic';-inkscape-font-specification:'League Gothic';letter-spacing:0px;word-spacing:0px;fill:#333333;fill-opacity:1;stroke:none;stroke-width:0.239358"
       id="path984"
       inkscape:connector-curvature="0" />
    <path
       d="m 27.835951,318.92563 h -2.82787 v -1.31654 l 2.67547,-6.65205 h 1.8288 v 6.65205 h 0.846668 v 1.31654 h -0.846668 v 2.21736 h -1.6764 z m -1.269999,-1.31654 h 1.269999 v -3.49233 h -0.1016 l -0.1016,0.30489 z"
       style="font-style:normal;font-variant:normal;font-weight:normal;font-stretch:normal;font-size:16.93329999999999913px;line-height:1.25;font-family:'League Gothic';-inkscape-font-specification:'League Gothic';letter-spacing:0px;word-spacing:0px;fill:#333333;fill-opacity:1;stroke:none;stroke-width:0.239358"
       id="path986"
       inkscape:connector-curvature="0" />
    <path
       d="m 36.176963,316.26481 c 0,-0.4296 -0.18627,-0.74835 -0.57573,-0.74835 -0.203201,0 -0.372541,0.12471 -0.508001,0.27718 -0.13547,0.16629 -0.2032,0.36032 -0.2032,0.47118 h -1.54094 v -5.3632 h 4.4196 v 1.48284 h -2.84479 v 2.12034 c 0.2032,-0.12473 0.42333,-0.23559 0.67733,-0.30489 0.11853,-0.0416 0.254,-0.0554 0.37253,-0.0416 0.94827,0 1.45627,0.44347 1.7272,0.92851 0.27093,0.48505 0.3048,1.01167 0.3048,1.17798 v 2.27278 c 0,0.48505 -0.0339,1.13639 -0.3556,1.67687 -0.32173,0.55433 -0.93133,0.98395 -2.032,0.98395 -1.13453,0 -1.71027,-0.42962 -2.032,-1.03938 -0.321739,-0.59591 -0.3556,-1.35812 -0.3556,-2.03719 h 1.8288 v 0.4019 c 0,0.51275 0.0339,0.87308 0.118541,1.0671 0.0847,0.20787 0.220129,0.30488 0.44026,0.30488 0.18627,0 0.33867,-0.097 0.42333,-0.29103 0.0847,-0.19402 0.13547,-0.55433 0.13547,-1.0671 z"
       style="font-style:normal;font-variant:normal;font-weight:normal;font-stretch:normal;font-size:16.93329999999999913px;line-height:1.25;font-family:'League Gothic';-inkscape-font-specification:'League Gothic';letter-spacing:0px;word-spacing:0px;fill:#333333;fill-opacity:1;stroke:none;stroke-width:0.239358"
       id="path988"
       inkscape:connector-curvature="0" />
    <path
       d="m 45.94038,319.05037 c 0,0.2356 -0.0339,0.78993 -0.355601,1.27498 -0.32173,0.49889 -0.93133,0.9285 -2.031999,0.9285 -1.13453,0 -1.71027,-0.4296 -2.032,-0.9285 -0.32173,-0.48505 -0.3556,-1.03938 -0.3556,-1.27498 v -5.79283 c 0,-0.34646 0.0169,-0.97009 0.33867,-1.48285 0.32173,-0.4989 0.89746,-0.92852 2.04893,-0.92852 1.15147,0 1.7272,0.42962 2.04893,0.92852 0.321739,0.51277 0.33867,1.1364 0.33867,1.48285 v 0.63749 h -1.828801 c 0,-0.67906 -0.0169,-1.12252 -0.0847,-1.38583 -0.0677,-0.26331 -0.203201,-0.36032 -0.474131,-0.36032 -0.22014,0 -0.37254,0.0832 -0.440269,0.26331 -0.0847,0.18015 -0.11853,0.45733 -0.11853,0.84536 v 1.81545 c 0.32173,-0.15244 0.59266,-0.24944 0.9144,-0.24944 0.948259,0 1.45626,0.40189 1.7272,0.85921 0.27093,0.45734 0.3048,1.01168 0.3048,1.28883 z m -2.9464,0.44346 c 0,0.12473 0.13547,0.45734 0.5588,0.45734 0.38947,0 0.558799,-0.33261 0.558799,-0.45734 v -3.04884 c 0,-0.12473 -0.16933,-0.45734 -0.558799,-0.45734 -0.389471,0 -0.541871,0.26331 -0.5588,0.41575 z"
       style="font-style:normal;font-variant:normal;font-weight:normal;font-stretch:normal;font-size:16.93329999999999913px;line-height:1.25;font-family:'League Gothic';-inkscape-font-specification:'League Gothic';letter-spacing:0px;word-spacing:0px;fill:#333333;fill-opacity:1;stroke:none;stroke-width:0.239358"
       id="path990"
       inkscape:connector-curvature="0" />
    <path
       d="m 51.927662,312.43989 h -2.7432 v -1.48285 h 4.60587 v 1.49671 l -1.8288,8.68924 h -1.89653 z"
       style="font-style:normal;font-variant:normal;font-weight:normal;font-stretch:normal;font-size:16.93329999999999913px;line-height:1.25;font-family:'League Gothic';-inkscape-font-specification:'League Gothic';letter-spacing:0px;word-spacing:0px;fill:#333333;fill-opacity:1;stroke:none;stroke-width:0.239358"
       id="path992"
       inkscape:connector-curvature="0" />
    <path
       d="m 61.860415,318.96722 c 0,0.097 -0.0169,0.37418 -0.101599,0.70678 -0.0847,0.34646 -0.28787,0.7345 -0.64347,1.03938 -0.355601,0.30489 -0.89747,0.54048 -1.693331,0.54048 -0.795879,0 -1.33775,-0.23559 -1.69335,-0.54048 -0.3556,-0.30488 -0.5588,-0.69292 -0.64346,-1.03938 -0.0847,-0.3326 -0.101599,-0.60977 -0.101599,-0.70678 v -1.19182 c 0,-0.76223 0.32173,-1.52443 0.948259,-2.00948 -0.5588,-0.45734 -0.84666,-1.16411 -0.84666,-1.87089 v -0.85921 c 0,-0.12473 0.0169,-0.67907 0.321731,-1.19183 0.3048,-0.51277 0.863599,-0.99782 2.015079,-0.99782 1.15146,0 1.727201,0.48505 2.032001,0.99782 0.3048,0.51275 0.3048,1.0671 0.3048,1.19183 v 0.85921 c 0,0.70678 -0.28787,1.41355 -0.846671,1.87089 0.626531,0.48505 0.94827,1.24726 0.94827,2.00948 z m -1.89654,-5.40479 c 0,-0.47118 -0.0339,-0.81764 -0.0847,-1.05324 -0.0677,-0.23559 -0.220129,-0.34646 -0.4572,-0.34646 -0.2032,0 -0.338659,0.097 -0.40641,0.30489 -0.1524,0.40189 -0.16933,1.77388 -0.0339,2.25892 0.0508,0.24945 0.20321,0.37418 0.44028,0.37418 0.23707,0 0.38947,-0.12473 0.4572,-0.37418 0.0508,-0.23559 0.0847,-0.62363 0.0847,-1.16411 z m 0.118541,4.80888 c 0,-0.60977 -0.0339,-1.0671 -0.0847,-1.35813 -0.0677,-0.29103 -0.254,-0.44346 -0.575741,-0.44346 -0.32173,0 -0.508009,0.15243 -0.55881,0.44346 -0.13546,0.59592 -0.11853,2.07876 0.0508,2.52224 0.0847,0.23559 0.25401,0.34646 0.508009,0.34646 0.32174,0 0.508001,-0.13859 0.575741,-0.40189 0.0508,-0.26332 0.0847,-0.6375 0.0847,-1.10868 z"
       style="font-style:normal;font-variant:normal;font-weight:normal;font-stretch:normal;font-size:16.93329999999999913px;line-height:1.25;font-family:'League Gothic';-inkscape-font-specification:'League Gothic';letter-spacing:0px;word-spacing:0px;fill:#333333;fill-opacity:1;stroke:none;stroke-width:0.239358"
       id="path994"
       inkscape:connector-curvature="0" />
    <path
       d="m 64.96903,313.04966 c 0,-0.2356 0.0339,-0.78993 0.3556,-1.28883 0.321731,-0.48505 0.89747,-0.91465 2.032,-0.91465 1.10067,0 1.71027,0.4296 2.032,0.91465 0.32173,0.4989 0.3556,1.05324 0.3556,1.28883 v 5.79282 c 0,0.37418 -0.0169,0.9701 -0.33867,1.469 -0.32173,0.51275 -0.89746,0.94237 -2.04893,0.94237 -1.15147,0 -1.7272,-0.4296 -2.04893,-0.94237 -0.32174,-0.4989 -0.33867,-1.09482 -0.33867,-1.469 V 318.205 h 1.8288 c 0,0.67905 0.0169,1.12253 0.0847,1.38584 0.0677,0.2633 0.2032,0.36032 0.47413,0.36032 0.22013,0 0.37253,-0.0831 0.4572,-0.26331 0.0677,-0.18016 0.1016,-0.45733 0.1016,-0.84537 v -1.91246 c -0.32173,0.15244 -0.59267,0.24945 -0.9144,0.24945 -0.94826,0 -1.45626,-0.4019 -1.7272,-0.85922 -0.27093,-0.45733 -0.3048,-1.01168 -0.3048,-1.28883 z m 2.9464,-0.44347 c 0,-0.12473 -0.13547,-0.45733 -0.5588,-0.45733 -0.38947,0 -0.5588,0.3326 -0.5588,0.45733 v 2.95185 c 0,0.12473 0.169331,0.45733 0.5588,0.45733 0.38947,0 0.54187,-0.2633 0.5588,-0.41575 z"
       style="font-style:normal;font-variant:normal;font-weight:normal;font-stretch:normal;font-size:16.93329999999999913px;line-height:1.25;font-family:'League Gothic';-inkscape-font-specification:'League Gothic';letter-spacing:0px;word-spacing:0px;fill:#333333;fill-opacity:1;stroke:none;stroke-width:0.239358"
       id="path996"
       inkscape:connector-curvature="0" />
    <g
       transform="matrix(1,0,0,0.81841136,-26.825528,206.19244)"
       id="g1002"
       style="fill:#333333;fill-opacity:1">
      <path
         inkscape:connector-curvature="0"
         id="path998"
         style="font-style:normal;font-variant:normal;font-weight:normal;font-stretch:normal;font-size:12.34720000000000084px;line-height:1.25;font-family:'League Gothic';-inkscape-font-specification:'League Gothic';letter-spacing:0px;word-spacing:0px;fill:#333333;fill-opacity:1;stroke:none;stroke-width:0.264583"
         d="m 98.918068,129.90366 v -0.85195 c 0.555625,-0.11113 0.889,-0.39512 1.123602,-0.64206 0.12347,-0.14817 0.22225,-0.30868 0.29633,-0.46919 h 0.80257 v 9.07521 h -1.333502 v -7.11201 z" />
      <path
         inkscape:connector-curvature="0"
         id="path1000"
         style="font-style:normal;font-variant:normal;font-weight:normal;font-stretch:normal;font-size:12.69999999999999929px;line-height:1.25;font-family:'League Gothic';-inkscape-font-specification:'League Gothic';letter-spacing:0px;word-spacing:0px;fill:#333333;fill-opacity:1;stroke:none;stroke-width:0.264583"
         d="m 105.31547,138.50566 c -0.0127,0.381 -0.0889,0.7239 -0.2286,1.016 -0.1143,0.254 -0.2921,0.4953 -0.5461,0.6858 -0.254,0.2032 -0.5969,0.3175 -1.0541,0.3175 -0.4572,0 -0.8128,-0.1143 -1.0668,-0.3175 -0.254,-0.1905 -0.4191,-0.4318 -0.5334,-0.6858 -0.1397,-0.2921 -0.2159,-0.635 -0.2286,-1.016 v -5.4991 c 0.0127,-0.3683 0.0889,-0.7112 0.2286,-1.0033 0.1143,-0.254 0.2794,-0.508 0.5334,-0.6985 0.254,-0.1905 0.6096,-0.3175 1.0668,-0.3175 0.4572,0 0.8001,0.127 1.0541,0.3175 0.254,0.1905 0.4318,0.4445 0.5461,0.6985 0.1397,0.2921 0.2159,0.635 0.2286,1.0033 z m -1.3716,-5.4991 c 0,-0.254 -0.0508,-0.4318 -0.1778,-0.5842 -0.0635,-0.0635 -0.1651,-0.1016 -0.2794,-0.1016 -0.2413,0 -0.3556,0.1778 -0.4064,0.3429 -0.0381,0.1016 -0.0508,0.2159 -0.0508,0.3429 v 5.4991 c 0,0.2667 0.0635,0.4445 0.1905,0.5842 0.0635,0.0635 0.1524,0.1016 0.2667,0.1016 0.2413,0 0.3556,-0.1524 0.4064,-0.3429 0.0381,-0.0889 0.0508,-0.2032 0.0508,-0.3429 z" />
    </g>
    <path
       d="m 81.820391,319.71827 c 0.3556,0.0416 0.62653,-0.0277 0.82973,-0.24945 0.1016,-0.097 0.1524,-0.26331 0.1524,-0.4989 v -8.06561 h 1.8288 v 8.3012 c 0,0.55434 -0.16933,1.0671 -0.59267,1.44128 -0.42333,0.37417 -1.13453,0.59591 -2.21826,0.54047 z"
       style="font-style:normal;font-variant:normal;font-weight:normal;font-stretch:normal;font-size:16.93329999999999913px;line-height:1.25;font-family:'League Gothic';-inkscape-font-specification:'League Gothic';letter-spacing:0px;word-spacing:0px;fill:#333333;fill-opacity:1;stroke:none;stroke-width:0.239358"
       id="path1004"
       inkscape:connector-curvature="0" />
    <path
       d="m 93.421076,318.71777 c 0,0.2356 -0.0508,0.4989 -0.1524,0.78993 -0.0508,0.15244 -0.13547,0.29103 -0.220129,0.44346 0.1524,0.16631 0.372529,0.30489 0.728129,0.36032 v 1.27497 c -1.032929,0 -1.55787,-0.36031 -1.8796,-0.78993 -0.254,0.0693 -0.5588,0.12473 -0.9144,0.12473 -0.6096,0 -1.08373,-0.12473 -1.422399,-0.34646 -0.33867,-0.20787 -0.558801,-0.47118 -0.711201,-0.74834 -0.186269,-0.31875 -0.28787,-0.69293 -0.3048,-1.10868 v -6.0007 c 0.0169,-0.4019 0.118531,-0.77607 0.3048,-1.09481 0.1524,-0.27717 0.37253,-0.55435 0.711201,-0.76222 0.338669,-0.20788 0.812799,-0.34646 1.422399,-0.34646 0.6096,0 1.0668,0.13858 1.40547,0.34646 0.33866,0.20787 0.57573,0.48505 0.72813,0.76222 0.18627,0.31874 0.28787,0.69291 0.3048,1.09481 z m -1.8288,-6.0007 c 0,-0.27717 -0.0677,-0.47118 -0.23707,-0.63748 -0.0847,-0.0693 -0.22013,-0.11088 -0.37253,-0.11088 -0.32173,0 -0.47413,0.19402 -0.54187,0.37417 -0.0508,0.11087 -0.0677,0.2356 -0.0677,0.37418 v 6.0007 c 0,0.29103 0.0847,0.48505 0.254,0.63749 0.0847,0.0693 0.2032,0.11086 0.3556,0.11086 0.32173,0 0.47413,-0.1663 0.54187,-0.37416 0.0508,-0.097 0.0677,-0.22175 0.0677,-0.37418 z"
       style="font-style:normal;font-variant:normal;font-weight:normal;font-stretch:normal;font-size:16.93329999999999913px;line-height:1.25;font-family:'League Gothic';-inkscape-font-specification:'League Gothic';letter-spacing:0px;word-spacing:0px;fill:#333333;fill-opacity:1;stroke:none;stroke-width:0.239358"
       id="path1006"
       inkscape:connector-curvature="0" />
    <path
       d="m 98.172224,310.95704 v 3.56161 h 0.0677 l 0.0847,-0.1663 1.524,-3.39531 h 1.777996 l -1.676396,3.35374 1.896526,6.83221 h -1.778 l -1.269996,-4.4347 -0.0508,-0.20788 h -0.0508 l -0.1016,0.20788 -0.42333,0.8315 v 3.6032 h -1.8288 v -10.18595 z"
       style="font-style:normal;font-variant:normal;font-weight:normal;font-stretch:normal;font-size:16.93329999999999913px;line-height:1.25;font-family:'League Gothic';-inkscape-font-specification:'League Gothic';letter-spacing:0px;word-spacing:0px;fill:#333333;fill-opacity:1;stroke:none;stroke-width:0.239358"
       id="path1008"
       inkscape:connector-curvature="0" />
  </g>
</svg>
